{
.appVersion = "3148";
copyright = "Digitized data copyright (C) 2010-2011, Google Corporation.";
customParameters = (
{
name = panose;
value = (
2,
11,
7,
6,
3,
8,
4,
2,
2,
4
);
},
{
name = unicodeRanges;
value = (
0,
1,
2,
3,
5,
6,
7,
9,
29,
30,
31,
32,
33,
35,
36,
38,
45,
62,
67,
69
);
},
{
name = codePageRanges;
value = (
1252,
1250,
1251,
1253,
1254,
1257,
1258
);
},
{
name = glyphOrder;
value = (
.notdef,
null,
nonmarkingreturn,
space,
exclam,
quotedbl,
numbersign,
dollar,
percent,
ampersand,
quotesingle,
parenleft,
parenright,
asterisk,
plus,
comma,
hyphen,
period,
slash,
zero,
one,
two,
three,
four,
five,
six,
seven,
eight,
nine,
colon,
semicolon,
less,
equal,
greater,
question,
at,
A,
B,
C,
D,
E,
F,
G,
H,
I.alt,
J,
K,
L,
M,
N,
O,
P,
Q,
R,
S,
T,
U,
V,
W,
X,
Y,
Z,
bracketleft,
backslash,
bracketright,
asciicircum,
underscore,
grave,
a,
b,
c,
d,
e,
f,
g,
h,
i,
j,
k,
l,
m,
n,
o,
p,
q,
r,
s,
t,
u,
v,
w,
x,
y,
z,
braceleft,
bar,
braceright,
asciitilde,
nonbreakingspace,
exclamdown,
cent,
sterling,
currency,
yen,
brokenbar,
section,
dieresis,
copyright,
ordfeminine,
guillemotleft,
logicalnot,
uni00AD,
registered,
overscore,
degree,
plusminus,
twosuperior,
threesuperior,
acute,
mu,
paragraph,
periodcentered,
cedilla,
onesuperior,
ordmasculine,
guillemotright,
onequarter,
onehalf,
threequarters,
questiondown,
Agrave,
Aacute,
Acircumflex,
Atilde,
Adieresis,
Aring,
AE,
Ccedilla,
Egrave,
Eacute,
Ecircumflex,
Edieresis,
Igrave.alt,
Iacute.alt,
Icircumflex.alt,
Idieresis.alt,
Eth,
Ntilde,
Ograve,
Oacute,
Ocircumflex,
Otilde,
Odieresis,
multiply,
Oslash,
Ugrave,
Uacute,
Ucircumflex,
Udieresis,
Yacute,
Thorn,
germandbls,
agrave,
aacute,
acircumflex,
atilde,
adieresis,
aring,
ae,
ccedilla,
egrave,
eacute,
ecircumflex,
edieresis,
igrave,
iacute,
icircumflex,
idieresis,
eth,
ntilde,
ograve,
oacute,
ocircumflex,
otilde,
odieresis,
divide,
oslash,
ugrave,
uacute,
ucircumflex,
udieresis,
yacute,
thorn,
ydieresis,
Amacron,
amacron,
Abreve,
abreve,
Aogonek,
aogonek,
Cacute,

glyphs = (
{
glyphname = .notdef;
lastChange = "2018-06-23 23:43:57 +0000";
layers = (
{
layerId = "5202FA21-D17A-4E33-A53E-97CF8C508FBD";
paths = (
{
closed = 1;
nodes = (
"505 0 LINE",
"505 714 LINE",
"94 714 LINE",
"94 0 LINE"
);
},
{
closed = 1;
nodes = (
"454 663 LINE",
"454 51 LINE",
"145 51 LINE",
"145 663 LINE"
);
}
);
width = 600;
}
);
note = ".notdef";
},
{
glyphname = exclam;
lastChange = "2018-06-23 23:43:57 +0000";
layers = (
{
layerId = "5202FA21-D17A-4E33-A53E-97CF8C508FBD";
paths = (
{
closed = 1;
nodes = (
"160 714 LINE",
"78 217 LINE",
"164 217 LINE",
"293 714 LINE"
);
},
{
closed = 1;
nodes = (
"16 10 OFFCURVE",
"40 -13 OFFCURVE",
"80 -13 CURVE SMOOTH",
"129 -13 OFFCURVE",
"163 22 OFFCURVE",
"163 73 CURVE SMOOTH",
"163 113 OFFCURVE",
"139 135 OFFCURVE",
"102 135 CURVE SMOOTH",
"47 135 OFFCURVE",
"16 99 OFFCURVE",
"16 47 CURVE SMOOTH"
);
}
);
width = 272;
}
);
note = exclam;
unicode = 0021;
},
{
glyphname = quotedbl;
lastChange = "2018-06-23 23:43:57 +0000";
layers = (
{
layerId = "5202FA21-D17A-4E33-A53E-97CF8C508FBD";
paths = (
{
closed = 1;
nodes = (
"104 456 LINE",
"178 456 LINE",
"252 714 LINE",
"139 714 LINE"
);
},
{
closed = 1;
nodes = (
"287 456 LINE",
"362 456 LINE",
"436 714 LINE",
"323 714 LINE"
);
}
);
width = 419;
}
);
note = quotedbl;
unicode = 0022;
},
{
glyphname = numbersign;
lastChange = "2018-06-23 23:43:57 +0000";
layers = (
{
layerId = "5202FA21-D17A-4E33-A53E-97CF8C508FBD";
paths = (
{
closed = 1;
nodes = (
"652 508 LINE",
"529 508 LINE",
"588 714 LINE",
"503 714 LINE",
"444 508 LINE",
"321 508 LINE",
"380 714 LINE",
"293 714 LINE",
"234 508 LINE",
"90 508 LINE",
"82 426 LINE",
"211 426 LINE",
"170 286 LINE",
"33 286 LINE",
"25 204 LINE",
"147 204 LINE",
"90 0 LINE",
"175 0 LINE",
"234 204 LINE",
"355 204 LINE",
"295 0 LINE",
"383 0 LINE",
"442 204 LINE",
"590 204 LINE",
"597 286 LINE",
"465 286 LINE",
"506 426 LINE",
"645 426 LINE"
);
},
{
closed = 1;
nodes = (
"419 426 LINE",
"379 286 LINE",
"257 286 LINE",
"297 426 LINE"
);
}
);
width = 646;
}
);
note = numbersign;
unicode = 0023;
},
{
glyphname = dollar;
lastChange = "2018-06-23 23:43:57 +0000";
layers = (
{
layerId = "5202FA21-D17A-4E33-A53E-97CF8C508FBD";
paths = (
{
closed = 1;
nodes = (
"482 267 OFFCURVE",
"478 289 OFFCURVE",
"468 307 CURVE SMOOTH",
"450 344 OFFCURVE",
"418 370 OFFCURVE",
"335 403 CURVE",
"374 584 LINE",
"410 582 OFFCURVE",
"450 569 OFFCURVE",
"493 548 CURVE",
"535 638 LINE",
"494 660 OFFCURVE",
"446 673 OFFCURVE",
"394 678 CURVE",
"411 759 LINE",
"345 759 LINE",
"327 679 LINE",
"193 668 OFFCURVE",
"111 600 OFFCURVE",
"111 491 CURVE SMOOTH",
"111 415 OFFCURVE",
"151 363 OFFCURVE",
"253 326 CURVE",
"212 137 LINE",
"152 139 OFFCURVE",
"81 159 OFFCURVE",
"30 186 CURVE",
"30 84 LINE",
"74 62 OFFCURVE",
"129 49 OFFCURVE",
"193 45 CURVE",
"171 -58 LINE",
"237 -58 LINE",
"259 45 LINE",
"401 58 OFFCURVE",
"482 129 OFFCURVE",
"482 241 CURVE SMOOTH"
);
},
{
closed = 1;
nodes = (
"352 287 OFFCURVE",
"370 263 OFFCURVE",
"370 230 CURVE SMOOTH",
"370 180 OFFCURVE",
"335 146 OFFCURVE",
"279 139 CURVE",
"314 301 LINE"
);
},
{
closed = 1;
nodes = (
"238 441 OFFCURVE",
"220 464 OFFCURVE",
"220 496 CURVE SMOOTH",
"220 545 OFFCURVE",
"249 577 OFFCURVE",
"307 584 CURVE",
"274 428 LINE"
);
}
);
width = 551;
}
);
note = dollar;
unicode = 0024;
},
{
glyphname = percent;
lastChange = "2018-06-23 23:43:57 +0000";
layers = (
{
layerId = "5202FA21-D17A-4E33-A53E-97CF8C508FBD";
paths = (
{
closed = 1;
nodes = (
"286 642 OFFCURVE",
"299 621 OFFCURVE",
"299 578 CURVE SMOOTH",
"299 545 OFFCURVE",
"294 509 OFFCURVE",
"285 471 CURVE SMOOTH",
"265 395 OFFCURVE",
"236 357 OFFCURVE",
"202 357 CURVE SMOOTH",
"176 357 OFFCURVE",
"163 379 OFFCURVE",
"163 423 CURVE SMOOTH",
"163 457 OFFCURVE",
"167 491 OFFCURVE",
"176 528 CURVE SMOOTH",
"193 601 OFFCURVE",
"223 642 OFFCURVE",
"259 642 CURVE SMOOTH"
);
},
{
closed = 1;
nodes = (
"393 673 OFFCURVE",
"349 724 OFFCURVE",
"266 724 CURVE SMOOTH",
"228 724 OFFCURVE",
"193 712 OFFCURVE",
"165 688 CURVE SMOOTH",
"106 639 OFFCURVE",
"69 534 OFFCURVE",
"69 426 CURVE SMOOTH",
"69 329 OFFCURVE",
"113 276 OFFCURVE",
"194 276 CURVE SMOOTH",
"231 276 OFFCURVE",
"265 289 OFFCURVE",
"294 313 CURVE SMOOTH",
"354 364 OFFCURVE",
"393 475 OFFCURVE",
"393 579 CURVE SMOOTH"
);
},
{
closed = 1;
nodes = (
"113 0 LINE",
"208 0 LINE",
"738 714 LINE",
"643 714 LINE"
);
},
{
closed = 1;
nodes = (
"676 357 OFFCURVE",
"690 335 OFFCURVE",
"690 293 CURVE SMOOTH",
"690 259 OFFCURVE",
"685 223 OFFCURVE",
"676 186 CURVE SMOOTH",
"656 110 OFFCURVE",
"626 72 OFFCURVE",
"593 72 CURVE SMOOTH",
"566 72 OFFCURVE",
"553 94 OFFCURVE",
"553 137 CURVE SMOOTH",
"553 172 OFFCURVE",
"558 208 OFFCURVE",
"567 246 CURVE SMOOTH",
"586 319 OFFCURVE",
"615 357 OFFCURVE",
"649 357 CURVE SMOOTH"
);
},
{
closed = 1;
nodes = (
"784 388 OFFCURVE",
"738 438 OFFCURVE",
"656 438 CURVE SMOOTH",
"617 438 OFFCURVE",
"583 426 OFFCURVE",
"555 402 CURVE SMOOTH",
"496 353 OFFCURVE",
"459 248 OFFCURVE",
"459 136 CURVE SMOOTH",
"459 41 OFFCURVE",
"503 -10 OFFCURVE",
"586 -10 CURVE SMOOTH",
"623 -10 OFFCURVE",
"656 3 OFFCURVE",
"686 28 CURVE SMOOTH",
"745 78 OFFCURVE",
"784 190 OFFCURVE",
"784 295 CURVE SMOOTH"
);
}
);
width = 824;
}
);
note = percent;
unicode = 0025;
},
{
glyphname = ampersand;
lastChange = "2018-06-23 23:43:57 +0000";
layers = (
{
layerId = "5202FA21-D17A-4E33-A53E-97CF8C508FBD";
paths = (
{
closed = 1;
nodes = (
"405 634 OFFCURVE",
"430 610 OFFCURVE",
"430 567 CURVE SMOOTH",
"430 545 OFFCURVE",
"422 524 OFFCURVE",
"405 505 CURVE SMOOTH",
"388 486 OFFCURVE",
"355 464 OFFCURVE",
"307 440 CURVE",
"287 470 OFFCURVE",
"277 502 OFFCURVE",
"277 538 CURVE SMOOTH",
"277 595 OFFCURVE",
"309 634 OFFCURVE",
"365 634 CURVE SMOOTH"
);
},
{
closed = 1;
nodes = (
"189 86 OFFCURVE",
"149 125 OFFCURVE",
"149 181 CURVE SMOOTH",
"149 237 OFFCURVE",
"175 277 OFFCURVE",
"261 325 CURVE",
"390 139 LINE",
"342 104 OFFCURVE",
"298 86 OFFCURVE",
"248 86 CURVE SMOOTH"
);
},
{
closed = 1;
nodes = (
"32 57 OFFCURVE",
"104 -10 OFFCURVE",
"228 -10 CURVE SMOOTH",
"309 -10 OFFCURVE",
"374 12 OFFCURVE",
"443 64 CURVE",
"489 0 LINE",
"624 0 LINE",
"524 136 LINE",
"584 196 OFFCURVE",
"632 270 OFFCURVE",
"669 358 CURVE",
"555 358 LINE",
"532 298 OFFCURVE",
"502 250 OFFCURVE",
"467 214 CURVE",
"352 373 LINE",
"485 432 OFFCURVE",
"539 495 OFFCURVE",
"539 579 CURVE SMOOTH",
"539 668 OFFCURVE",
"475 725 OFFCURVE",
"371 725 CURVE SMOOTH",
"250 725 OFFCURVE",
"171 650 OFFCURVE",
"171 533 CURVE SMOOTH",
"171 490 OFFCURVE",
"185 444 OFFCURVE",
"214 395 CURVE",
"83 331 OFFCURVE",
"32 267 OFFCURVE",
"32 171 CURVE SMOOTH"
);
}
);
width = 689;
}
);
note = ampersand;
unicode = 0026;
},
{
glyphname = quotesingle;
lastChange = "2018-06-23 23:43:57 +0000";
layers = (
{
layerId = "5202FA21-D17A-4E33-A53E-97CF8C508FBD";
paths = (
{
closed = 1;
nodes = (
"104 456 LINE",
"178 456 LINE",
"252 714 LINE",
"139 714 LINE"
);
}
);
width = 236;
}
);
note = quotesingle;
unicode = 0027;
},
{
glyphname = parenleft;
lastChange = "2018-06-23 23:43:57 +0000";
layers = (
{
layerId = "5202FA21-D17A-4E33-A53E-97CF8C508FBD";
paths = (
{
closed = 1;
nodes = (
"38 24 OFFCURVE",
"62 -73 OFFCURVE",
"110 -158 CURVE",
"199 -158 LINE",
"162 -71 OFFCURVE",
"143 26 OFFCURVE",
"143 133 CURVE SMOOTH",
"143 342 OFFCURVE",
"224 536 OFFCURVE",
"386 714 CURVE",
"284 714 LINE",
"118 542 OFFCURVE",
"38 358 OFFCURVE",
"38 135 CURVE SMOOTH"
);
}
);
width = 312;
}
);
note = parenleft;
unicode = 0028;
},
{
glyphname = parenright;
lastChange = "2018-06-23 23:43:57 +0000";
layers = (
{
layerId = "5202FA21-D17A-4E33-A53E-97CF8C508FBD";
paths = (
{
closed = 1;
nodes = (
"273 530 OFFCURVE",
"249 627 OFFCURVE",
"201 714 CURVE",
"112 714 LINE",
"149 626 OFFCURVE",
"168 529 OFFCURVE",
"168 423 CURVE SMOOTH",
"168 214 OFFCURVE",
"87 20 OFFCURVE",
"-75 -158 CURVE",
"27 -158 LINE",
"195 16 OFFCURVE",
"273 197 OFFCURVE",
"273 420 CURVE SMOOTH"
);
}
);
width = 312;
}
);
note = parenright;
unicode = 0029;
},
{
glyphname = asterisk;
lastChange = "2018-06-23 23:43:57 +0000";
layers = (
{
layerId = "5202FA21-D17A-4E33-A53E-97CF8C508FBD";
paths = (
{
closed = 1;
nodes = (
"302 578 LINE",
"129 665 LINE",
"94 570 LINE",
"265 521 LINE",
"122 391 LINE",
"201 321 LINE",
"312 473 LINE",
"362 292 LINE",
"462 322 LINE",
"379 498 LINE",
"558 476 LINE",
"564 576 LINE",
"367 565 LINE",
"424 744 LINE",
"320 765 LINE"
);
}
);
width = 548;
}
);
note = asterisk;
unicode = 002A;
},
{
glyphname = plus;
lastChange = "2018-06-23 23:43:57 +0000";
layers = (
{
layerId = "5202FA21-D17A-4E33-A53E-97CF8C508FBD";
paths = (
{
closed = 1;
nodes = (
"330 125 LINE",
"330 308 LINE",
"514 308 LINE",
"514 396 LINE",
"330 396 LINE",
"330 582 LINE",
"242 582 LINE",
"242 396 LINE",
"57 396 LINE",
"57 308 LINE",
"242 308 LINE",
"242 125 LINE"
);
}
);
width = 551;
}
);
note = plus;
unicode = 002B;
},
{
glyphname = comma;
lastChange = "2018-06-23 23:43:57 +0000";
layers = (
{
layerId = "5202FA21-D17A-4E33-A53E-97CF8C508FBD";
paths = (
{
closed = 1;
nodes = (
"17 30 OFFCURVE",
"-16 -51 OFFCURVE",
"-50 -129 CURVE",
"37 -129 LINE",
"83 -58 OFFCURVE",
"126 21 OFFCURVE",
"167 105 CURVE",
"163 116 LINE",
"48 116 LINE"
);
}
);
width = 259;
}
);
note = comma;
unicode = 002C;
},
{
glyphname = hyphen;
lastChange = "2018-06-23 23:43:57 +0000";
layers = (
{
layerId = "5202FA21-D17A-4E33-A53E-97CF8C508FBD";
paths = (
{
closed = 1;
nodes = (
"290 317 LINE",
"45 317 LINE",
"23 218 LINE",
"268 218 LINE"
);
}
);
width = 317;
}
);
note = hyphen;
unicode = 002D;
},
{
glyphname = period;
lastChange = "2018-06-23 23:43:57 +0000";
layers = (
{
layerId = "5202FA21-D17A-4E33-A53E-97CF8C508FBD";
paths = (
{
closed = 1;
nodes = (
"16 12 OFFCURVE",
"36 -14 OFFCURVE",
"79 -14 CURVE SMOOTH",
"129 -14 OFFCURVE",
"163 23 OFFCURVE",
"163 74 CURVE SMOOTH",
"163 114 OFFCURVE",
"140 135 OFFCURVE",
"103 135 CURVE SMOOTH",
"48 135 OFFCURVE",
"16 100 OFFCURVE",
"16 46 CURVE SMOOTH"
);
}
);
width = 269;
}
);
note = period;
unicode = 002E;
},
{
glyphname = slash;
lastChange = "2018-06-23 23:43:57 +0000";
layers = (
{
layerId = "5202FA21-D17A-4E33-A53E-97CF8C508FBD";
paths = (
{
closed = 1;
nodes = (
"-45 0 LINE",
"69 0 LINE",
"465 714 LINE",
"351 714 LINE"
);
}
);
width = 385;
}
);
note = slash;
unicode = 002F;
},
{
glyphname = zero;
lastChange = "2018-06-23 23:43:57 +0000";
layers = (
{
layerId = "5202FA21-D17A-4E33-A53E-97CF8C508FBD";
paths = (
{
closed = 1;
nodes = (
"537 648 OFFCURVE",
"473 725 OFFCURVE",
"351 725 CURVE SMOOTH",
"292 725 OFFCURVE",
"240 705 OFFCURVE",
"194 665 CURVE SMOOTH",
"104 585 OFFCURVE",
"45 415 OFFCURVE",
"45 230 CURVE SMOOTH",
"45 76 OFFCURVE",
"106 -10 OFFCURVE",
"233 -10 CURVE SMOOTH",
"293 -10 OFFCURVE",
"346 10 OFFCURVE",
"392 50 CURVE SMOOTH",
"483 130 OFFCURVE",
"537 295 OFFCURVE",
"537 494 CURVE SMOOTH"
);
},
{
closed = 1;
nodes = (
"395 629 OFFCURVE",
"421 585 OFFCURVE",
"421 498 CURVE SMOOTH",
"421 429 OFFCURVE",
"413 362 OFFCURVE",
"397 296 CURVE SMOOTH",
"365 164 OFFCURVE",
"308 86 OFFCURVE",
"243 86 CURVE SMOOTH",
"185 86 OFFCURVE",
"161 136 OFFCURVE",
"161 229 CURVE SMOOTH",
"161 292 OFFCURVE",
"170 356 OFFCURVE",
"188 422 CURVE SMOOTH",
"222 552 OFFCURVE",
"279 629 OFFCURVE",
"342 629 CURVE SMOOTH"
);
}
);
width = 551;
}
);
note = zero;
unicode = 0030;
},
{
glyphname = one;
lastChange = "2018-06-23 23:43:57 +0000";
layers = (
{
layerId = "5202FA21-D17A-4E33-A53E-97CF8C508FBD";
paths = (
{
closed = 1;
nodes = (
"366 714 LINE",
"118 559 LINE",
"170 476 LINE",
"261 533 LINE SMOOTH",
"287 548 OFFCURVE",
"309 565 OFFCURVE",
"327 583 CURVE",
"310 526 OFFCURVE",
"296 474 OFFCURVE",
"287 425 CURVE SMOOTH",
"195 0 LINE",
"311 0 LINE",
"463 714 LINE"
);
}
);
width = 551;
}
);
note = one;
unicode = 0031;
},
{
glyphname = two;
lastChange = "2018-06-23 23:43:57 +0000";
layers = (
{
layerId = "5202FA21-D17A-4E33-A53E-97CF8C508FBD";
paths = (
{
closed = 1;
nodes = (
"161 101 LINE",
"161 105 LINE",
"313 234 LINE SMOOTH",
"378 290 OFFCURVE",
"424 333 OFFCURVE",
"452 365 CURVE SMOOTH",
"506 429 OFFCURVE",
"531 486 OFFCURVE",
"531 556 CURVE SMOOTH",
"531 659 OFFCURVE",
"456 724 OFFCURVE",
"338 724 CURVE SMOOTH",
"262 724 OFFCURVE",
"192 699 OFFCURVE",
"114 636 CURVE",
"170 558 LINE",
"236 609 OFFCURVE",
"275 626 OFFCURVE",
"321 626 CURVE SMOOTH",
"379 626 OFFCURVE",
"413 591 OFFCURVE",
"413 536 CURVE SMOOTH",
"413 491 OFFCURVE",
"396 454 OFFCURVE",
"355 407 CURVE SMOOTH",
"335 383 OFFCURVE",
"296 346 OFFCURVE",
"239 294 CURVE SMOOTH",
"9 88 LINE",
"-9 0 LINE",
"445 0 LINE",
"465 101 LINE"
);
}
);
width = 551;
}
);
note = two;
unicode = 0032;
},
{
glyphname = three;
lastChange = "2018-06-23 23:43:57 +0000";
layers = (
{
layerId = "5202FA21-D17A-4E33-A53E-97CF8C508FBD";
paths = (
{
closed = 1;
nodes = (
"531 663 OFFCURVE",
"460 724 OFFCURVE",
"341 724 CURVE SMOOTH",
"262 724 OFFCURVE",
"198 706 OFFCURVE",
"120 653 CURVE",
"171 574 LINE",
"228 613 OFFCURVE",
"275 628 OFFCURVE",
"322 628 CURVE SMOOTH",
"380 628 OFFCURVE",
"414 596 OFFCURVE",
"414 545 CURVE SMOOTH",
"414 463 OFFCURVE",
"340 411 OFFCURVE",
"233 411 CURVE SMOOTH",
"181 411 LINE",
"163 322 LINE",
"228 322 LINE SMOOTH",
"318 322 OFFCURVE",
"364 286 OFFCURVE",
"364 215 CURVE SMOOTH",
"364 133 OFFCURVE",
"303 84 OFFCURVE",
"201 84 CURVE SMOOTH",
"140 84 OFFCURVE",
"70 102 OFFCURVE",
"15 134 CURVE",
"15 29 LINE",
"67 3 OFFCURVE",
"130 -10 OFFCURVE",
"203 -10 CURVE SMOOTH",
"260 -10 OFFCURVE",
"310 0 OFFCURVE",
"352 18 CURVE SMOOTH",
"436 55 OFFCURVE",
"481 125 OFFCURVE",
"481 212 CURVE SMOOTH",
"481 292 OFFCURVE",
"434 348 OFFCURVE",
"351 364 CURVE",
"351 367 LINE",
"462 387 OFFCURVE",
"531 460 OFFCURVE",
"531 563 CURVE SMOOTH"
);
}
);
width = 551;
}
);
note = three;
unicode = 0033;
},
{
glyphname = four;
lastChange = "2018-06-23 23:43:57 +0000";
layers = (
{
layerId = "5202FA21-D17A-4E33-A53E-97CF8C508FBD";
paths = (
{
closed = 1;
nodes = (
"434 251 LINE",
"532 716 LINE",
"408 716 LINE",
"16 251 LINE",
"-2 155 LINE",
"302 155 LINE",
"268 0 LINE",
"380 0 LINE",
"413 155 LINE",
"511 155 LINE",
"532 251 LINE"
);
},
{
closed = 1;
nodes = (
"334 495 LINE SMOOTH",
"361 528 OFFCURVE",
"383 558 OFFCURVE",
"400 586 CURVE",
"404 586 LINE",
"381 507 OFFCURVE",
"365 446 OFFCURVE",
"355 402 CURVE SMOOTH",
"322 251 LINE",
"128 251 LINE"
);
}
);
width = 551;
}
);
note = four;
unicode = 0034;
},
{
glyphname = five;
lastChange = "2018-06-23 23:43:57 +0000";
layers = (
{
layerId = "5202FA21-D17A-4E33-A53E-97CF8C508FBD";
paths = (
{
closed = 1;
nodes = (
"278 443 OFFCURVE",
"252 440 OFFCURVE",
"222 434 CURVE",
"274 612 LINE",
"521 612 LINE",
"543 714 LINE",
"195 714 LINE",
"97 368 LINE",
"140 335 LINE",
"183 346 OFFCURVE",
"219 352 OFFCURVE",
"250 352 CURVE SMOOTH",
"332 352 OFFCURVE",
"372 307 OFFCURVE",
"372 239 CURVE SMOOTH",
"372 143 OFFCURVE",
"306 86 OFFCURVE",
"193 86 CURVE SMOOTH",
"136 86 OFFCURVE",
"80 102 OFFCURVE",
"26 135 CURVE",
"26 29 LINE",
"72 3 OFFCURVE",
"129 -10 OFFCURVE",
"199 -10 CURVE SMOOTH",
"261 -10 OFFCURVE",
"314 1 OFFCURVE",
"357 23 CURVE SMOOTH",
"445 66 OFFCURVE",
"491 148 OFFCURVE",
"491 253 CURVE SMOOTH",
"491 372 OFFCURVE",
"416 443 OFFCURVE",
"298 443 CURVE SMOOTH"
);
}
);
width = 551;
}
);
note = five;
unicode = 0035;
},
{
glyphname = six;
lastChange = "2018-06-23 23:43:57 +0000";
layers = (
{
layerId = "5202FA21-D17A-4E33-A53E-97CF8C508FBD";
paths = (
{
closed = 1;
nodes = (
"54 71 OFFCURVE",
"125 -10 OFFCURVE",
"251 -10 CURVE SMOOTH",
"301 -10 OFFCURVE",
"345 2 OFFCURVE",
"383 25 CURVE SMOOTH",
"459 72 OFFCURVE",
"507 169 OFFCURVE",
"507 275 CURVE SMOOTH",
"507 388 OFFCURVE",
"447 456 OFFCURVE",
"345 456 CURVE SMOOTH",
"280 456 OFFCURVE",
"227 428 OFFCURVE",
"186 373 CURVE",
"183 373 LINE",
"226 544 OFFCURVE",
"311 628 OFFCURVE",
"444 628 CURVE SMOOTH",
"479 628 OFFCURVE",
"509 625 OFFCURVE",
"532 617 CURVE",
"553 712 LINE",
"525 720 OFFCURVE",
"492 724 OFFCURVE",
"454 724 CURVE SMOOTH",
"327 724 OFFCURVE",
"232 676 OFFCURVE",
"165 583 CURVE SMOOTH",
"96 491 OFFCURVE",
"54 351 OFFCURVE",
"54 218 CURVE SMOOTH"
);
},
{
closed = 1;
nodes = (
"200 85 OFFCURVE",
"166 132 OFFCURVE",
"166 204 CURVE",
"166 226 OFFCURVE",
"167 245 OFFCURVE",
"172 260 CURVE SMOOTH",
"182 290 OFFCURVE",
"198 312 OFFCURVE",
"220 331 CURVE SMOOTH",
"243 350 OFFCURVE",
"272 364 OFFCURVE",
"305 364 CURVE SMOOTH",
"363 364 OFFCURVE",
"392 331 OFFCURVE",
"392 266 CURVE SMOOTH",
"392 233 OFFCURVE",
"387 202 OFFCURVE",
"375 174 CURVE SMOOTH",
"354 118 OFFCURVE",
"312 85 OFFCURVE",
"259 85 CURVE SMOOTH"
);
}
);
width = 551;
}
);
note = six;
unicode = 0036;
},
{
glyphname = seven;
lastChange = "2018-06-23 23:43:57 +0000";
layers = (
{
layerId = "5202FA21-D17A-4E33-A53E-97CF8C508FBD";
paths = (
{
closed = 1;
nodes = (
"560 632 LINE",
"576 714 LINE",
"121 714 LINE",
"100 614 LINE",
"429 614 LINE",
"61 0 LINE",
"190 0 LINE"
);
}
);
width = 551;
}
);
note = seven;
unicode = 0037;
},
{
glyphname = eight;
lastChange = "2018-06-23 23:43:57 +0000";
layers = (
{
layerId = "5202FA21-D17A-4E33-A53E-97CF8C508FBD";
paths = (
{
closed = 1;
nodes = (
"225 725 OFFCURVE",
"134 647 OFFCURVE",
"134 531 CURVE SMOOTH",
"134 474 OFFCURVE",
"158 426 OFFCURVE",
"217 381 CURVE",
"97 337 OFFCURVE",
"37 267 OFFCURVE",
"37 170 CURVE SMOOTH",
"37 61 OFFCURVE",
"116 -10 OFFCURVE",
"248 -10 CURVE SMOOTH",
"299 -10 OFFCURVE",
"343 -1 OFFCURVE",
"380 16 CURVE SMOOTH",
"455 50 OFFCURVE",
"496 115 OFFCURVE",
"496 194 CURVE SMOOTH",
"496 268 OFFCURVE",
"464 322 OFFCURVE",
"386 373 CURVE",
"496 416 OFFCURVE",
"546 479 OFFCURVE",
"546 565 CURVE SMOOTH",
"546 663 OFFCURVE",
"474 725 OFFCURVE",
"357 725 CURVE SMOOTH"
);
},
{
closed = 1;
nodes = (
"349 293 OFFCURVE",
"382 252 OFFCURVE",
"382 193 CURVE SMOOTH",
"382 126 OFFCURVE",
"333 80 OFFCURVE",
"258 80 CURVE SMOOTH",
"193 80 OFFCURVE",
"152 120 OFFCURVE",
"152 180 CURVE SMOOTH",
"152 248 OFFCURVE",
"193 293 OFFCURVE",
"290 328 CURVE"
);
},
{
closed = 1;
nodes = (
"399 635 OFFCURVE",
"433 604 OFFCURVE",
"433 551 CURVE SMOOTH",
"433 489 OFFCURVE",
"391 451 OFFCURVE",
"316 423 CURVE",
"273 448 OFFCURVE",
"246 481 OFFCURVE",
"246 535 CURVE SMOOTH",
"246 595 OFFCURVE",
"287 635 OFFCURVE",
"347 635 CURVE SMOOTH"
);
}
);
width = 551;
}
);
note = eight;
unicode = 0038;
},
{
glyphname = nine;
lastChange = "2018-06-23 23:43:57 +0000";
layers = (
{
layerId = "5202FA21-D17A-4E33-A53E-97CF8C508FBD";
paths = (
{
closed = 1;
nodes = (
"527 644 OFFCURVE",
"458 724 OFFCURVE",
"333 724 CURVE SMOOTH",
"283 724 OFFCURVE",
"238 712 OFFCURVE",
"199 689 CURVE SMOOTH",
"121 643 OFFCURVE",
"75 550 OFFCURVE",
"75 448 CURVE SMOOTH",
"75 327 OFFCURVE",
"137 258 OFFCURVE",
"244 258 CURVE SMOOTH",
"307 258 OFFCURVE",
"356 284 OFFCURVE",
"393 336 CURVE",
"396 336 LINE",
"357 163 OFFCURVE",
"283 86 OFFCURVE",
"160 86 CURVE SMOOTH",
"123 86 OFFCURVE",
"84 93 OFFCURVE",
"45 107 CURVE",
"45 6 LINE",
"80 -4 OFFCURVE",
"119 -10 OFFCURVE",
"162 -10 CURVE SMOOTH",
"279 -10 OFFCURVE",
"363 34 OFFCURVE",
"424 125 CURVE SMOOTH",
"486 215 OFFCURVE",
"527 364 OFFCURVE",
"527 497 CURVE SMOOTH"
);
},
{
closed = 1;
nodes = (
"380 629 OFFCURVE",
"413 583 OFFCURVE",
"413 513 CURVE SMOOTH",
"413 418 OFFCURVE",
"353 350 OFFCURVE",
"277 350 CURVE SMOOTH",
"220 350 OFFCURVE",
"189 387 OFFCURVE",
"189 455 CURVE SMOOTH",
"189 486 OFFCURVE",
"194 516 OFFCURVE",
"206 542 CURVE SMOOTH",
"228 597 OFFCURVE",
"271 629 OFFCURVE",
"324 629 CURVE SMOOTH"
);
}
);
width = 551;
}
);
note = nine;
unicode = 0039;
},
{
glyphname = colon;
lastChange = "2018-06-23 23:43:57 +0000";
layers = (
{
layerId = "5202FA21-D17A-4E33-A53E-97CF8C508FBD";
paths = (
{
closed = 1;
nodes = (
"100 429 OFFCURVE",
"119 403 OFFCURVE",
"162 403 CURVE SMOOTH",
"212 403 OFFCURVE",
"247 440 OFFCURVE",
"247 491 CURVE SMOOTH",
"247 531 OFFCURVE",
"224 552 OFFCURVE",
"187 552 CURVE SMOOTH",
"132 552 OFFCURVE",
"100 517 OFFCURVE",
"100 463 CURVE SMOOTH"
);
},
{
closed = 1;
nodes = (
"16 12 OFFCURVE",
"36 -14 OFFCURVE",
"79 -14 CURVE SMOOTH",
"129 -14 OFFCURVE",
"163 23 OFFCURVE",
"163 74 CURVE SMOOTH",
"163 114 OFFCURVE",
"140 135 OFFCURVE",
"103 135 CURVE SMOOTH",
"48 135 OFFCURVE",
"16 100 OFFCURVE",
"16 46 CURVE SMOOTH"
);
}
);
width = 269;
}
);
note = colon;
unicode = 003A;
},
{
glyphname = semicolon;
lastChange = "2018-06-23 23:43:57 +0000";
layers = (
{
layerId = "5202FA21-D17A-4E33-A53E-97CF8C508FBD";
paths = (
{
closed = 1;
nodes = (
"14 22 OFFCURVE",
"-18 -59 OFFCURVE",
"-49 -129 CURVE",
"37 -129 LINE",
"83 -58 OFFCURVE",
"126 21 OFFCURVE",
"167 105 CURVE",
"163 116 LINE",
"48 116 LINE"
);
},
{
closed = 1;
nodes = (
"100 429 OFFCURVE",
"119 403 OFFCURVE",
"162 403 CURVE SMOOTH",
"212 403 OFFCURVE",
"247 440 OFFCURVE",
"247 491 CURVE SMOOTH",
"247 531 OFFCURVE",
"224 552 OFFCURVE",
"187 552 CURVE SMOOTH",
"132 552 OFFCURVE",
"100 517 OFFCURVE",
"100 463 CURVE SMOOTH"
);
}
);
width = 269;
}
);
note = semicolon;
unicode = 003B;
},
{
glyphname = less;
lastChange = "2018-06-23 23:43:57 +0000";
layers = (
{
layerId = "5202FA21-D17A-4E33-A53E-97CF8C508FBD";
paths = (
{
closed = 1;
nodes = (
"173 352 LINE",
"513 520 LINE",
"513 615 LINE",
"56 377 LINE",
"56 318 LINE",
"513 108 LINE",
"513 204 LINE"
);
}
);
width = 551;
}
);
note = less;
unicode = 003C;
},
{
glyphname = equal;
lastChange = "2018-06-23 23:43:57 +0000";
layers = (
{
layerId = "5202FA21-D17A-4E33-A53E-97CF8C508FBD";
paths = (
{
closed = 1;
nodes = (
"514 493 LINE",
"57 493 LINE",
"57 406 LINE",
"514 406 LINE"
);
},
{
closed = 1;
nodes = (
"514 298 LINE",
"57 298 LINE",
"57 210 LINE",
"514 210 LINE"
);
}
);
width = 551;
}
);
note = equal;
unicode = 003D;
},
{
glyphname = greater;
lastChange = "2018-06-23 23:43:57 +0000";
layers = (
{
layerId = "5202FA21-D17A-4E33-A53E-97CF8C508FBD";
paths = (
{
closed = 1;
nodes = (
"513 318 LINE",
"513 377 LINE",
"56 615 LINE",
"56 520 LINE",
"395 352 LINE",
"56 204 LINE",
"56 108 LINE"
);
}
);
width = 551;
}
);
note = greater;
unicode = 003E;
},
{
glyphname = question;
lastChange = "2018-06-23 23:43:57 +0000";
layers = (
{
layerId = "5202FA21-D17A-4E33-A53E-97CF8C508FBD";
paths = (
{
closed = 1;
nodes = (
"233 272 OFFCURVE",
"258 304 OFFCURVE",
"326 352 CURVE SMOOTH",
"436 430 OFFCURVE",
"470 486 OFFCURVE",
"470 564 CURVE SMOOTH",
"470 666 OFFCURVE",
"402 724 OFFCURVE",
"291 724 CURVE SMOOTH",
"225 724 OFFCURVE",
"158 706 OFFCURVE",
"91 669 CURVE",
"129 583 LINE",
"180 607 OFFCURVE",
"226 628 OFFCURVE",
"276 628 CURVE SMOOTH",
"329 628 OFFCURVE",
"357 596 OFFCURVE",
"357 551 CURVE SMOOTH",
"357 520 OFFCURVE",
"345 494 OFFCURVE",
"320 468 CURVE SMOOTH",
"307 455 OFFCURVE",
"283 436 OFFCURVE",
"248 411 CURVE SMOOTH",
"168 353 OFFCURVE",
"139 303 OFFCURVE",
"127 217 CURVE",
"223 217 LINE"
);
},
{
closed = 1;
nodes = (
"79 12 OFFCURVE",
"98 -13 OFFCURVE",
"141 -13 CURVE SMOOTH",
"190 -13 OFFCURVE",
"226 23 OFFCURVE",
"226 74 CURVE SMOOTH",
"226 114 OFFCURVE",
"203 135 OFFCURVE",
"166 135 CURVE SMOOTH",
"111 135 OFFCURVE",
"79 100 OFFCURVE",
"79 46 CURVE SMOOTH"
);
}
);
width = 443;
}
);
note = question;
unicode = 003F;
},
{
glyphname = at;
lastChange = "2018-06-23 23:43:57 +0000";
layers = (
{
layerId = "5202FA21-D17A-4E33-A53E-97CF8C508FBD";
paths = (
{
closed = 1;
nodes = (
"833 473 OFFCURVE",
"820 526 OFFCURVE",
"795 572 CURVE SMOOTH",
"745 663 OFFCURVE",
"647 713 OFFCURVE",
"517 713 CURVE SMOOTH",
"428 713 OFFCURVE",
"348 692 OFFCURVE",
"276 652 CURVE SMOOTH",
"133 570 OFFCURVE",
"49 421 OFFCURVE",
"49 245 CURVE SMOOTH",
"49 177 OFFCURVE",
"63 118 OFFCURVE",
"90 67 CURVE SMOOTH",
"145 -35 OFFCURVE",
"250 -91 OFFCURVE",
"387 -91 CURVE SMOOTH",
"464 -91 OFFCURVE",
"538 -76 OFFCURVE",
"609 -47 CURVE",
"609 29 LINE",
"534 1 OFFCURVE",
"464 -13 OFFCURVE",
"399 -13 CURVE SMOOTH",
"235 -13 OFFCURVE",
"139 83 OFFCURVE",
"139 252 CURVE SMOOTH",
"139 325 OFFCURVE",
"155 391 OFFCURVE",
"186 450 CURVE SMOOTH",
"248 569 OFFCURVE",
"365 636 OFFCURVE",
"504 636 CURVE SMOOTH",
"657 636 OFFCURVE",
"744 557 OFFCURVE",
"744 408 CURVE SMOOTH",
"744 369 OFFCURVE",
"738 331 OFFCURVE",
"727 296 CURVE SMOOTH",
"704 226 OFFCURVE",
"661 178 OFFCURVE",
"614 178 CURVE SMOOTH",
"588 178 OFFCURVE",
"575 193 OFFCURVE",
"575 223 CURVE SMOOTH",
"575 238 OFFCURVE",
"580 264 OFFCURVE",
"590 301 CURVE SMOOTH",
"639 492 LINE",
"609 502 OFFCURVE",
"588 509 OFFCURVE",
"576 511 CURVE SMOOTH",
"552 517 OFFCURVE",
"525 520 OFFCURVE",
"491 520 CURVE SMOOTH",
"445 520 OFFCURVE",
"402 508 OFFCURVE",
"363 484 CURVE SMOOTH",
"284 435 OFFCURVE",
"238 346 OFFCURVE",
"238 248 CURVE SMOOTH",
"238 157 OFFCURVE",
"283 103 OFFCURVE",
"363 103 CURVE SMOOTH",
"420 103 OFFCURVE",
"465 130 OFFCURVE",
"498 184 CURVE",
"501 184 LINE",
"509 136 OFFCURVE",
"542 103 OFFCURVE",
"606 103 CURVE SMOOTH",
"649 103 OFFCURVE",
"688 117 OFFCURVE",
"723 144 CURVE SMOOTH",
"792 198 OFFCURVE",
"833 298 OFFCURVE",
"833 413 CURVE SMOOTH"
);
},
{
closed = 1;
nodes = (
"500 446 OFFCURVE",
"517 443 OFFCURVE",
"534 438 CURVE",
"503 321 LINE SMOOTH",
"476 225 OFFCURVE",
"438 178 OFFCURVE",
"385 178 CURVE SMOOTH",
"348 178 OFFCURVE",
"330 204 OFFCURVE",
"330 255 CURVE SMOOTH",
"330 289 OFFCURVE",
"337 320 OFFCURVE",
"350 350 CURVE SMOOTH",
"377 408 OFFCURVE",
"427 446 OFFCURVE",
"483 446 CURVE SMOOTH"
);
}
);
width = 851;
}
);
note = at;
unicode = 0040;
},
{
glyphname = A;
lastChange = "2018-06-23 23:43:57 +0000";
layers = (
{
anchors = (
{
name = bottom;
position = "{238, 0}";
},
{
name = ogonek;
position = "{474, 5}";
},
{
name = top;
position = "{390, 714}";
}
);
layerId = "5202FA21-D17A-4E33-A53E-97CF8C508FBD";
paths = (
{
closed = 1;
nodes = (
"538 0 LINE",
"457 715 LINE",
"323 715 LINE",
"-59 0 LINE",
"65 0 LINE",
"167 198 LINE",
"404 198 LINE",
"424 0 LINE"
);
},
{
closed = 1;
nodes = (
"302 464 LINE SMOOTH",
"330 519 OFFCURVE",
"353 568 OFFCURVE",
"371 614 CURVE",
"371 597 OFFCURVE",
"372 574 OFFCURVE",
"374 546 CURVE SMOOTH",
"375 517 OFFCURVE",
"383 435 OFFCURVE",
"396 300 CURVE",
"218 300 LINE"
);
}
);
width = 591;
}
);
note = A;
unicode = 0041;
},
{
glyphname = B;
lastChange = "2018-06-23 23:43:57 +0000";
layers = (
{
anchors = (
{
name = bottom;
position = "{247, 0}";
},
{
name = top;
position = "{399, 714}";
}
);
layerId = "5202FA21-D17A-4E33-A53E-97CF8C508FBD";
paths = (
{
closed = 1;
nodes = (
"34 0 LINE",
"274 0 LINE SMOOTH",
"448 0 OFFCURVE",
"551 86 OFFCURVE",
"551 227 CURVE SMOOTH",
"551 297 OFFCURVE",
"510 349 OFFCURVE",
"440 367 CURVE",
"440 371 LINE",
"540 391 OFFCURVE",
"599 457 OFFCURVE",
"599 552 CURVE SMOOTH",
"599 659 OFFCURVE",
"524 714 OFFCURVE",
"380 714 CURVE SMOOTH",
"185 714 LINE"
);
},
{
closed = 1;
nodes = (
"369 616 LINE SMOOTH",
"442 616 OFFCURVE",
"478 588 OFFCURVE",
"478 532 CURVE SMOOTH",
"478 460 OFFCURVE",
"426 419 OFFCURVE",
"336 419 CURVE SMOOTH",
"239 419 LINE",
"281 616 LINE"
);
},
{
closed = 1;
nodes = (
"317 324 LINE SMOOTH",
"393 324 OFFCURVE",
"432 290 OFFCURVE",
"432 226 CURVE SMOOTH",
"432 144 OFFCURVE",
"375 98 OFFCURVE",
"279 98 CURVE SMOOTH",
"170 98 LINE",
"219 324 LINE"
);
}
);
width = 609;
}
);
note = B;
unicode = 0042;
},
{
glyphname = C;
lastChange = "2018-06-23 23:43:57 +0000";
layers = (
{
anchors = (
{
name = bottom;
position = "{242, 0}";
},
{
name = top;
position = "{394, 714}";
}
);
layerId = "5202FA21-D17A-4E33-A53E-97CF8C508FBD";
paths = (
{
closed = 1;
nodes = (
"510 624 OFFCURVE",
"554 606 OFFCURVE",
"595 584 CURVE",
"641 679 LINE",
"585 709 OFFCURVE",
"522 724 OFFCURVE",
"451 724 CURVE SMOOTH",
"377 724 OFFCURVE",
"312 705 OFFCURVE",
"255 667 CURVE SMOOTH",
"140 592 OFFCURVE",
"66 436 OFFCURVE",
"66 266 CURVE SMOOTH",
"66 92 OFFCURVE",
"163 -10 OFFCURVE",
"324 -10 CURVE SMOOTH",
"387 -10 OFFCURVE",
"448 1 OFFCURVE",
"507 23 CURVE",
"507 123 LINE",
"446 101 OFFCURVE",
"392 90 OFFCURVE",
"346 90 CURVE SMOOTH",
"241 90 OFFCURVE",
"187 154 OFFCURVE",
"187 271 CURVE SMOOTH",
"187 337 OFFCURVE",
"199 398 OFFCURVE",
"223 454 CURVE SMOOTH",
"270 565 OFFCURVE",
"351 624 OFFCURVE",
"451 624 CURVE SMOOTH"
);
}
);
width = 598;
}
);
note = C;
unicode = 0043;
},
{
glyphname = D;
lastChange = "2018-06-23 23:43:57 +0000";
layers = (
{
anchors = (
{
name = bottom;
position = "{278, 0}";
},
{
name = center;
position = "{354, 357}";
},
{
name = top;
position = "{430, 714}";
}
);
layerId = "5202FA21-D17A-4E33-A53E-97CF8C508FBD";
paths = (
{
closed = 1;
nodes = (
"640 618 OFFCURVE",
"542 714 OFFCURVE",
"365 714 CURVE SMOOTH",
"185 714 LINE",
"34 0 LINE",
"230 0 LINE SMOOTH",
"314 0 OFFCURVE",
"387 18 OFFCURVE",
"449 53 CURVE SMOOTH",
"574 124 OFFCURVE",
"640 260 OFFCURVE",
"640 436 CURVE SMOOTH"
);
},
{
closed = 1;
nodes = (
"281 616 LINE",
"352 616 LINE SMOOTH",
"461 616 OFFCURVE",
"520 552 OFFCURVE",
"520 432 CURVE SMOOTH",
"520 367 OFFCURVE",
"509 309 OFFCURVE",
"486 258 CURVE SMOOTH",
"440 157 OFFCURVE",
"351 98 OFFCURVE",
"236 98 CURVE SMOOTH",
"170 98 LINE"
);
}
);
width = 671;
}
);
note = D;
unicode = 0044;
},
{
glyphname = E;
lastChange = "2018-06-23 23:43:57 +0000";
layers = (
{
anchors = (
{
name = bottom;
position = "{206, 0}";
},
{
name = ogonek;
position = "{416, 5}";
},
{
name = top;
position = "{357, 714}";
},
{
name = topleft;
position = "{104, 714}";
}
);
layerId = "5202FA21-D17A-4E33-A53E-97CF8C508FBD";
paths = (
{
closed = 1;
nodes = (
"171 99 LINE",
"218 322 LINE",
"464 322 LINE",
"484 421 LINE",
"239 421 LINE",
"280 614 LINE",
"543 614 LINE",
"564 714 LINE",
"185 714 LINE",
"34 0 LINE",
"413 0 LINE",
"434 99 LINE"
);
}
);
width = 526;
}
);
note = E;
unicode = 0045;
},
{
glyphname = F;
lastChange = "2018-06-23 23:43:57 +0000";
layers = (
{
anchors = (
{
name = bottom;
position = "{193, 0}";
},
{
name = top;
position = "{345, 714}";
}
);
layerId = "5202FA21-D17A-4E33-A53E-97CF8C508FBD";
paths = (
{
closed = 1;
nodes = (
"456 293 LINE",
"478 392 LINE",
"233 392 LINE",
"280 614 LINE",
"542 614 LINE",
"563 714 LINE",
"185 714 LINE",
"34 0 LINE",
"150 0 LINE",
"212 293 LINE"
);
}
);
width = 501;
}
);
note = F;
unicode = 0046;
},
{
glyphname = G;
lastChange = "2018-06-23 23:43:57 +0000";
layers = (
{
anchors = (
{
name = bottom;
position = "{284, 0}";
},
{
name = top;
position = "{436, 714}";
}
);
layerId = "5202FA21-D17A-4E33-A53E-97CF8C508FBD";
paths = (
{
closed = 1;
nodes = (
"498 287 LINE",
"459 106 LINE",
"424 95 OFFCURVE",
"390 90 OFFCURVE",
"354 90 CURVE SMOOTH",
"247 90 OFFCURVE",
"187 152 OFFCURVE",
"187 271 CURVE SMOOTH",
"187 338 OFFCURVE",
"199 398 OFFCURVE",
"224 453 CURVE SMOOTH",
"272 562 OFFCURVE",
"360 623 OFFCURVE",
"463 623 CURVE SMOOTH",
"515 623 OFFCURVE",
"569 609 OFFCURVE",
"626 581 CURVE",
"670 680 LINE",
"603 712 OFFCURVE",
"538 724 OFFCURVE",
"466 724 CURVE SMOOTH",
"388 724 OFFCURVE",
"319 705 OFFCURVE",
"258 665 CURVE SMOOTH",
"136 586 OFFCURVE",
"66 435 OFFCURVE",
"66 263 CURVE SMOOTH",
"66 89 OFFCURVE",
"164 -10 OFFCURVE",
"334 -10 CURVE SMOOTH",
"420 -10 OFFCURVE",
"484 2 OFFCURVE",
"557 28 CURVE",
"634 387 LINE",
"384 387 LINE",
"363 287 LINE"
);
}
);
width = 683;
}
);
note = G;
unicode = 0047;
},
{
glyphname = H;
lastChange = "2018-06-23 23:43:57 +0000";
layers = (
{
anchors = (
{
name = bottom;
position = "{287, 0}";
},
{
name = center;
position = "{363, 357}";
},
{
name = top;
position = "{439, 714}";
},
{
name = topleft;
position = "{104, 714}";
}
);
layerId = "5202FA21-D17A-4E33-A53E-97CF8C508FBD";
paths = (
{
closed = 1;
nodes = (
"577 714 LINE",
"515 422 LINE",
"239 422 LINE",
"301 714 LINE",
"185 714 LINE",
"34 0 LINE",
"150 0 LINE",
"218 322 LINE",
"494 322 LINE",
"426 0 LINE",
"542 0 LINE",
"693 714 LINE"
);
}
);
width = 689;
}
);
note = H;
unicode = 0048;
},
{
glyphname = I.alt;
lastChange = "2018-06-23 23:43:57 +0000";
layers = (
{
anchors = (
{
name = bottom;
position = "{118, 0}";
},
{
name = ogonek;
position = "{257, 5}";
},
{
name = top;
position = "{270, 714}";
},
{
name = topleft;
position = "{104, 714}";
}
);
layerId = "5202FA21-D17A-4E33-A53E-97CF8C508FBD";
paths = (
{
closed = 1;
nodes = (
"192 94 LINE",
"304 619 LINE",
"393 648 LINE",
"406 714 LINE",
"127 714 LINE",
"113 648 LINE",
"188 619 LINE",
"77 94 LINE",
"-11 65 LINE",
"-24 0 LINE",
"255 0 LINE",
"269 65 LINE"
);
}
);
width = 350;
}
);
note = I.alt;
},
{
glyphname = J;
lastChange = "2018-06-23 23:43:57 +0000";
layers = (
{
anchors = (
{
name = bottom;
position = "{92, 0}";
},
{
name = top;
position = "{244, 714}";
}
);
guideLines = (
{
angle = 258.0043;
position = "{305, 551}";
}
);
layerId = "5202FA21-D17A-4E33-A53E-97CF8C508FBD";
paths = (
{
closed = 1;
nodes = (
"54 -199 OFFCURVE",
"127 -133 OFFCURVE",
"157 8 CURVE SMOOTH",
"306 714 LINE",
"190 714 LINE",
"44 23 LINE SMOOTH",
"27 -59 OFFCURVE",
"-15 -99 OFFCURVE",
"-80 -99 CURVE SMOOTH",
"-103 -99 OFFCURVE",
"-127 -96 OFFCURVE",
"-155 -89 CURVE",
"-157 -187 LINE",
"-136 -195 OFFCURVE",
"-108 -199 OFFCURVE",
"-74 -199 CURVE SMOOTH"
);
}
);
width = 299;
}
);
note = J;
unicode = 004A;
},
{
glyphname = K;
lastChange = "2018-06-23 23:43:57 +0000";
layers = (
{
anchors = (
{
name = bottom;
position = "{235, 0}";
},
{
name = top;
position = "{387, 714}";
}
);
layerId = "5202FA21-D17A-4E33-A53E-97CF8C508FBD";
paths = (
{
closed = 1;
nodes = (
"675 714 LINE",
"536 714 LINE",
"296 450 LINE",
"227 369 LINE",
"301 714 LINE",
"185 714 LINE",
"34 0 LINE",
"150 0 LINE",
"207 271 LINE",
"280 320 LINE",
"403 0 LINE",
"531 0 LINE",
"374 387 LINE"
);
}
);
width = 585;
}
);
note = K;
unicode = 004B;
},
{
glyphname = L;
lastChange = "2018-06-23 23:43:57 +0000";
layers = (
{
anchors = (
{
name = bottom;
position = "{190, 0}";
},
{
name = center;
position = "{267, 357}";
},
{
name = top;
position = "{342, 714}";
},
{
name = topright;
position = "{581, 714}";
}
);
layerId = "5202FA21-D17A-4E33-A53E-97CF8C508FBD";
paths = (
{
closed = 1;
nodes = (
"434 100 LINE",
"171 100 LINE",
"301 714 LINE",
"185 714 LINE",
"34 0 LINE",
"413 0 LINE"
);
}
);
width = 496;
}
);
note = L;
unicode = 004C;
},
{
glyphname = M;
lastChange = "2018-06-23 23:43:57 +0000";
layers = (
{
anchors = (
{
name = bottom;
position = "{372, 0}";
},
{
name = top;
position = "{523, 714}";
}
);
layerId = "5202FA21-D17A-4E33-A53E-97CF8C508FBD";
paths = (
{
closed = 1;
nodes = (
"730 593 LINE",
"733 593 LINE",
"718 542 OFFCURVE",
"704 486 OFFCURVE",
"691 426 CURVE SMOOTH",
"602 0 LINE",
"713 0 LINE",
"862 714 LINE",
"694 714 LINE",
"398 153 LINE",
"395 153 LINE",
"342 714 LINE",
"184 714 LINE",
"33 0 LINE",
"140 0 LINE",
"230 427 LINE SMOOTH",
"245 499 OFFCURVE",
"254 554 OFFCURVE",
"257 593 CURVE",
"260 593 LINE",
"316 0 LINE",
"416 0 LINE"
);
}
);
width = 858;
}
);
note = M;
unicode = 004D;
},
{
glyphname = N;
lastChange = "2018-06-23 23:43:57 +0000";
layers = (
{
anchors = (
{
name = bottom;
position = "{307, 0}";
},
{
name = top;
position = "{458, 714}";
}
);
layerId = "5202FA21-D17A-4E33-A53E-97CF8C508FBD";
paths = (
{
closed = 1;
nodes = (
"626 714 LINE",
"548 346 LINE SMOOTH",
"538 304 OFFCURVE",
"517 188 OFFCURVE",
"513 153 CURVE",
"510 153 LINE",
"315 714 LINE",
"184 714 LINE",
"33 0 LINE",
"140 0 LINE",
"196 266 OFFCURVE",
"226 410 OFFCURVE",
"230 431 CURVE SMOOTH",
"233 451 OFFCURVE",
"239 486 OFFCURVE",
"247 534 CURVE SMOOTH",
"252 568 LINE",
"255 568 LINE",
"455 0 LINE",
"582 0 LINE",
"733 714 LINE"
);
}
);
width = 728;
}
);
note = N;
unicode = 004E;
},
{
glyphname = O;
lastChange = "2018-06-23 23:43:57 +0000";
layers = (
{
anchors = (
{
name = bottom;
position = "{305, 0}";
},
{
name = center;
position = "{381, 357}";
},
{
name = ogonek;
position = "{595, 5}";
},
{
name = top;
position = "{457, 714}";
},
{
name = topleft;
position = "{104, 714}";
},
{
name = topright;
position = "{810, 714}";
}
);
layerId = "5202FA21-D17A-4E33-A53E-97CF8C508FBD";
paths = (
{
closed = 1;
nodes = (
"694 623 OFFCURVE",
"599 725 OFFCURVE",
"435 725 CURVE SMOOTH",
"364 725 OFFCURVE",
"301 706 OFFCURVE",
"246 668 CURVE SMOOTH",
"134 592 OFFCURVE",
"66 439 OFFCURVE",
"66 265 CURVE SMOOTH",
"66 93 OFFCURVE",
"163 -10 OFFCURVE",
"331 -10 CURVE SMOOTH",
"403 -10 OFFCURVE",
"466 9 OFFCURVE",
"520 46 CURVE SMOOTH",
"628 120 OFFCURVE",
"694 269 OFFCURVE",
"694 450 CURVE SMOOTH"
);
},
{
closed = 1;
nodes = (
"520 625 OFFCURVE",
"573 560 OFFCURVE",
"573 449 CURVE SMOOTH",
"573 382 OFFCURVE",
"563 321 OFFCURVE",
"543 266 CURVE SMOOTH",
"503 156 OFFCURVE",
"428 90 OFFCURVE",
"338 90 CURVE SMOOTH",
"243 90 OFFCURVE",
"187 153 OFFCURVE",
"187 266 CURVE SMOOTH",
"187 332 OFFCURVE",
"197 393 OFFCURVE",
"218 448 CURVE SMOOTH",
"259 559 OFFCURVE",
"336 625 OFFCURVE",
"426 625 CURVE SMOOTH"
);
}
);
width = 725;
}
);
note = O;
unicode = 004F;
},
{
glyphname = P;
lastChange = "2018-06-23 23:43:57 +0000";
layers = (
{
anchors = (
{
name = bottom;
position = "{229, 0}";
},
{
name = top;
position = "{381, 714}";
}
);
layerId = "5202FA21-D17A-4E33-A53E-97CF8C508FBD";
paths = (
{
closed = 1;
nodes = (
"339 616 LINE SMOOTH",
"417 616 OFFCURVE",
"455 585 OFFCURVE",
"455 514 CURVE SMOOTH",
"455 419 OFFCURVE",
"389 365 OFFCURVE",
"273 365 CURVE SMOOTH",
"227 365 LINE",
"281 616 LINE"
);
},
{
closed = 1;
nodes = (
"573 648 OFFCURVE",
"497 714 OFFCURVE",
"348 714 CURVE SMOOTH",
"185 714 LINE",
"34 0 LINE",
"150 0 LINE",
"206 267 LINE",
"260 267 LINE SMOOTH",
"457 267 OFFCURVE",
"573 356 OFFCURVE",
"573 518 CURVE SMOOTH"
);
}
);
width = 573;
}
);
note = P;
unicode = 0050;
},
{
glyphname = Q;
lastChange = "2018-06-23 23:43:57 +0000";
layers = (
{
anchors = (
{
name = bottom;
position = "{305, 0}";
},
{
name = top;
position = "{457, 714}";
}
);
layerId = "5202FA21-D17A-4E33-A53E-97CF8C508FBD";
paths = (
{
closed = 1;
nodes = (
"694 623 OFFCURVE",
"599 725 OFFCURVE",
"435 725 CURVE SMOOTH",
"364 725 OFFCURVE",
"301 706 OFFCURVE",
"246 668 CURVE SMOOTH",
"134 592 OFFCURVE",
"66 439 OFFCURVE",
"66 265 CURVE SMOOTH",
"66 93 OFFCURVE",
"163 -10 OFFCURVE",
"331 -10 CURVE SMOOTH",
"346 -10 LINE",
"445 -170 LINE",
"586 -170 LINE",
"457 13 LINE",
"604 72 OFFCURVE",
"694 241 OFFCURVE",
"694 450 CURVE SMOOTH"
);
},
{
closed = 1;
nodes = (
"520 625 OFFCURVE",
"573 560 OFFCURVE",
"573 449 CURVE SMOOTH",
"573 381 OFFCURVE",
"563 320 OFFCURVE",
"543 265 CURVE SMOOTH",
"503 154 OFFCURVE",
"428 90 OFFCURVE",
"338 90 CURVE SMOOTH",
"243 90 OFFCURVE",
"187 153 OFFCURVE",
"187 266 CURVE SMOOTH",
"187 332 OFFCURVE",
"197 393 OFFCURVE",
"218 448 CURVE SMOOTH",
"259 559 OFFCURVE",
"336 625 OFFCURVE",
"426 625 CURVE SMOOTH"
);
}
);
width = 725;
}
);
note = Q;
unicode = 0051;
},
{
glyphname = R;
lastChange = "2018-06-23 23:43:57 +0000";
layers = (
{
anchors = (
{
name = bottom;
position = "{237, 0}";
},
{
name = top;
position = "{389, 714}";
}
);
layerId = "5202FA21-D17A-4E33-A53E-97CF8C508FBD";
paths = (
{
closed = 1;
nodes = (
"402 0 LINE",
"529 0 LINE",
"407 309 LINE",
"519 343 OFFCURVE",
"575 418 OFFCURVE",
"575 526 CURVE SMOOTH",
"575 653 OFFCURVE",
"495 714 OFFCURVE",
"350 714 CURVE SMOOTH",
"185 714 LINE",
"34 0 LINE",
"150 0 LINE",
"210 285 LINE",
"301 285 LINE"
);
},
{
closed = 1;
nodes = (
"338 615 LINE SMOOTH",
"418 615 OFFCURVE",
"456 587 OFFCURVE",
"456 519 CURVE SMOOTH",
"456 434 OFFCURVE",
"402 382 OFFCURVE",
"291 382 CURVE SMOOTH",
"231 382 LINE",
"280 615 LINE"
);
}
);
width = 589;
}
);
note = R;
unicode = 0052;
},
{
glyphname = S;
lastChange = "2018-06-23 23:43:57 +0000";
layers = (
{
anchors = (
{
name = bottom;
position = "{201, 0}";
},
{
name = top;
position = "{353, 714}";
}
);
layerId = "5202FA21-D17A-4E33-A53E-97CF8C508FBD";
paths = (
{
closed = 1;
nodes = (
"454 285 OFFCURVE",
"422 339 OFFCURVE",
"321 402 CURVE SMOOTH",
"287 423 OFFCURVE",
"266 438 OFFCURVE",
"255 449 CURVE SMOOTH",
"235 468 OFFCURVE",
"225 490 OFFCURVE",
"225 521 CURVE SMOOTH",
"225 582 OFFCURVE",
"272 624 OFFCURVE",
"343 624 CURVE SMOOTH",
"386 624 OFFCURVE",
"435 611 OFFCURVE",
"487 586 CURVE",
"529 679 LINE",
"472 709 OFFCURVE",
"410 724 OFFCURVE",
"343 724 CURVE SMOOTH",
"297 724 OFFCURVE",
"256 715 OFFCURVE",
"219 698 CURVE SMOOTH",
"146 663 OFFCURVE",
"104 596 OFFCURVE",
"104 512 CURVE SMOOTH",
"104 486 OFFCURVE",
"108 463 OFFCURVE",
"117 442 CURVE SMOOTH",
"134 399 OFFCURVE",
"162 367 OFFCURVE",
"230 323 CURVE SMOOTH",
"315 269 OFFCURVE",
"334 242 OFFCURVE",
"334 197 CURVE SMOOTH",
"334 129 OFFCURVE",
"279 89 OFFCURVE",
"190 89 CURVE SMOOTH",
"132 89 OFFCURVE",
"75 104 OFFCURVE",
"19 136 CURVE",
"19 27 LINE",
"64 2 OFFCURVE",
"121 -10 OFFCURVE",
"189 -10 CURVE SMOOTH",
"354 -10 OFFCURVE",
"454 72 OFFCURVE",
"454 209 CURVE SMOOTH"
);
}
);
width = 516;
}
);
note = S;
unicode = 0053;
},
{
glyphname = T;
lastChange = "2018-06-23 23:43:57 +0000";
layers = (
{
anchors = (
{
name = bottom;
position = "{200, 0}";
},
{
name = center;
position = "{276, 357}";
},
{
name = top;
position = "{352, 714}";
}
);
layerId = "5202FA21-D17A-4E33-A53E-97CF8C508FBD";
paths = (
{
closed = 1;
nodes = (
"574 614 LINE",
"595 714 LINE",
"108 714 LINE",
"86 614 LINE",
"271 614 LINE",
"142 0 LINE",
"258 0 LINE",
"388 614 LINE"
);
}
);
width = 514;
}
);
note = T;
unicode = 0054;
},
{
glyphname = U;
lastChange = "2018-06-23 23:43:57 +0000";
layers = (
{
anchors = (
{
name = bottom;
position = "{284, 0}";
},
{
name = ogonek;
position = "{557, 5}";
},
{
name = top;
position = "{436, 714}";
},
{
name = topright;
position = "{768, 714}";
}
);
layerId = "5202FA21-D17A-4E33-A53E-97CF8C508FBD";
paths = (
{
closed = 1;
nodes = (
"480 257 LINE SMOOTH",
"455 139 OFFCURVE",
"401 90 OFFCURVE",
"307 90 CURVE SMOOTH",
"229 90 OFFCURVE",
"190 128 OFFCURVE",
"190 195 CURVE SMOOTH",
"190 218 OFFCURVE",
"193 243 OFFCURVE",
"200 272 CURVE SMOOTH",
"294 714 LINE",
"178 714 LINE",
"84 274 LINE SMOOTH",
"78 246 OFFCURVE",
"74 218 OFFCURVE",
"74 191 CURVE SMOOTH",
"74 62 OFFCURVE",
"155 -10 OFFCURVE",
"296 -10 CURVE SMOOTH",
"459 -10 OFFCURVE",
"558 73 OFFCURVE",
"594 247 CURVE SMOOTH",
"693 714 LINE",
"577 714 LINE"
);
}
);
width = 683;
}
);
note = U;
unicode = 0055;
},
{
glyphname = V;
lastChange = "2018-06-23 23:43:57 +0000";
layers = (
{
anchors = (
{
name = bottom;
position = "{227, 0}";
},
{
name = top;
position = "{379, 714}";
}
);
layerId = "5202FA21-D17A-4E33-A53E-97CF8C508FBD";
paths = (
{
closed = 1;
nodes = (
"246 158 LINE",
"245 201 OFFCURVE",
"243 238 OFFCURVE",
"240 272 CURVE SMOOTH",
"204 714 LINE",
"91 714 LINE",
"161 0 LINE",
"287 0 LINE",
"660 714 LINE",
"536 714 LINE",
"314 272 LINE SMOOTH",
"292 229 OFFCURVE",
"270 179 OFFCURVE",
"247 121 CURVE",
"245 121 LINE"
);
}
);
width = 569;
}
);
note = V;
unicode = 0056;
},
{
glyphname = W;
lastChange = "2018-06-23 23:43:57 +0000";
layers = (
{
anchors = (
{
name = bottom;
position = "{379, 0}";
},
{
name = top;
position = "{531, 714}";
}
);
layerId = "5202FA21-D17A-4E33-A53E-97CF8C508FBD";
paths = (
{
closed = 1;
nodes = (
"843 714 LINE",
"668 301 LINE SMOOTH",
"656 273 OFFCURVE",
"622 187 OFFCURVE",
"604 130 CURVE",
"600 130 LINE",
"602 222 LINE",
"600 304 LINE",
"585 714 LINE",
"475 714 LINE",
"286 303 LINE SMOOTH",
"267 260 OFFCURVE",
"244 202 OFFCURVE",
"217 130 CURVE",
"214 130 LINE",
"218 198 OFFCURVE",
"220 254 OFFCURVE",
"220 299 CURVE",
"211 714 LINE",
"99 714 LINE",
"125 0 LINE",
"250 0 LINE",
"438 411 LINE SMOOTH",
"461 459 OFFCURVE",
"480 506 OFFCURVE",
"495 553 CURVE",
"498 553 LINE",
"496 501 LINE",
"499 411 LINE",
"517 0 LINE",
"643 0 LINE",
"963 714 LINE"
);
}
);
width = 873;
}
);
note = W;
unicode = 0057;
},
{
glyphname = X;
lastChange = "2018-06-23 23:43:57 +0000";
layers = (
{
anchors = (
{
name = bottom;
position = "{224, 0}";
},
{
name = top;
position = "{375, 714}";
}
);
layerId = "5202FA21-D17A-4E33-A53E-97CF8C508FBD";
paths = (
{
closed = 1;
nodes = (
"643 714 LINE",
"513 714 LINE",
"317 450 LINE",
"230 714 LINE",
"110 714 LINE",
"232 376 LINE",
"-54 0 LINE",
"75 0 LINE",
"289 289 LINE",
"383 0 LINE",
"508 0 LINE",
"374 367 LINE"
);
}
);
width = 562;
}
);
note = X;
unicode = 0058;
},
{
glyphname = Y;
lastChange = "2018-06-23 23:43:57 +0000";
layers = (
{
anchors = (
{
name = bottom;
position = "{209, 0}";
},
{
name = top;
position = "{361, 714}";
},
{
name = topleft;
position = "{104, 714}";
}
);
layerId = "5202FA21-D17A-4E33-A53E-97CF8C508FBD";
paths = (
{
closed = 1;
nodes = (
"91 714 LINE",
"207 270 LINE",
"149 0 LINE",
"265 0 LINE",
"321 268 LINE",
"625 714 LINE",
"495 714 LINE",
"284 387 LINE",
"209 714 LINE"
);
}
);
width = 533;
}
);
note = Y;
unicode = 0059;
},
{
glyphname = Z;
lastChange = "2018-06-23 23:43:57 +0000";
layers = (
{
anchors = (
{
name = bottom;
position = "{209, 0}";
},
{
name = top;
position = "{361, 714}";
}
);
layerId = "5202FA21-D17A-4E33-A53E-97CF8C508FBD";
paths = (
{
closed = 1;
nodes = (
"146 100 LINE",
"562 630 LINE",
"579 714 LINE",
"141 714 LINE",
"120 613 LINE",
"412 613 LINE",
"-3 82 LINE",
"-19 0 LINE",
"440 0 LINE",
"461 100 LINE"
);
}
);
width = 533;
}
);
note = Z;
unicode = 005A;
},
{
glyphname = bracketleft;
lastChange = "2018-06-23 23:43:57 +0000";
layers = (
{
layerId = "5202FA21-D17A-4E33-A53E-97CF8C508FBD";
paths = (
{
closed = 1;
nodes = (
"108 -72 LINE",
"256 628 LINE",
"364 628 LINE",
"383 714 LINE",
"173 714 LINE",
"-13 -158 LINE",
"197 -158 LINE",
"216 -72 LINE"
);
}
);
width = 308;
}
);
note = bracketleft;
unicode = 005B;
},
{
glyphname = backslash;
lastChange = "2018-06-23 23:43:57 +0000";
layers = (
{
layerId = "5202FA21-D17A-4E33-A53E-97CF8C508FBD";
paths = (
{
closed = 1;
nodes = (
"214 0 LINE",
"316 0 LINE",
"209 714 LINE",
"108 714 LINE"
);
}
);
width = 385;
}
);
note = backslash;
unicode = 005C;
},
{
glyphname = bracketright;
lastChange = "2018-06-23 23:43:57 +0000";
layers = (
{
layerId = "5202FA21-D17A-4E33-A53E-97CF8C508FBD";
paths = (
{
closed = 1;
nodes = (
"139 -158 LINE",
"325 714 LINE",
"115 714 LINE",
"96 628 LINE",
"204 628 LINE",
"55 -72 LINE",
"-52 -72 LINE",
"-70 -158 LINE"
);
}
);
width = 308;
}
);
note = bracketright;
unicode = 005D;
},
{
glyphname = asciicircum;
lastChange = "2018-06-23 23:43:57 +0000";
layers = (
{
layerId = "5202FA21-D17A-4E33-A53E-97CF8C508FBD";
paths = (
{
closed = 1;
nodes = (
"328 599 LINE",
"420 262 LINE",
"510 262 LINE",
"377 718 LINE",
"315 718 LINE",
"18 262 LINE",
"116 262 LINE"
);
}
);
width = 522;
}
);
note = asciicircum;
unicode = 005E;
},
{
glyphname = underscore;
lastChange = "2018-06-23 23:43:57 +0000";
layers = (
{
layerId = "5202FA21-D17A-4E33-A53E-97CF8C508FBD";
paths = (
{
closed = 1;
nodes = (
"-77 -90 LINE",
"-92 -158 LINE",
"307 -158 LINE",
"322 -90 LINE"
);
}
);
width = 397;
}
);
note = underscore;
unicode = 005F;
},
{
glyphname = grave;
lastChange = "2018-06-23 23:43:57 +0000";
layers = (
{
layerId = "5202FA21-D17A-4E33-A53E-97CF8C508FBD";
paths = (
{
closed = 1;
nodes = (
"420 667 OFFCURVE",
"399 716 OFFCURVE",
"384 766 CURVE",
"264 766 LINE",
"264 756 LINE",
"286 712 OFFCURVE",
"335 647 OFFCURVE",
"378 606 CURVE",
"448 606 LINE",
"448 618 LINE"
);
}
);
width = 554;
}
);
note = grave;
unicode = 0060;
},
{
glyphname = a;
lastChange = "2018-06-23 23:43:57 +0000";
layers = (
{
anchors = (
{
name = bottom;
position = "{232, 0}";
},
{
name = ogonek;
position = "{463, 5}";
},
{
name = top;
position = "{347, 540}";
}
);
layerId = "5202FA21-D17A-4E33-A53E-97CF8C508FBD";
paths = (
{
closed = 1;
nodes = (
"257 -10 OFFCURVE",
"314 22 OFFCURVE",
"365 86 CURVE",
"368 86 LINE",
"358 0 LINE",
"447 0 LINE",
"562 540 LINE",
"474 540 LINE",
"444 463 LINE",
"439 463 LINE",
"414 520 OFFCURVE",
"367 550 OFFCURVE",
"304 550 CURVE SMOOTH",
"257 550 OFFCURVE",
"213 533 OFFCURVE",
"173 500 CURVE SMOOTH",
"94 433 OFFCURVE",
"46 311 OFFCURVE",
"46 179 CURVE SMOOTH",
"46 60 OFFCURVE",
"103 -10 OFFCURVE",
"195 -10 CURVE SMOOTH"
);
},
{
closed = 1;
nodes = (
"190 83 OFFCURVE",
"162 116 OFFCURVE",
"162 182 CURVE SMOOTH",
"162 229 OFFCURVE",
"169 273 OFFCURVE",
"184 316 CURVE SMOOTH",
"213 402 OFFCURVE",
"266 456 OFFCURVE",
"321 456 CURVE SMOOTH",
"370 456 OFFCURVE",
"404 418 OFFCURVE",
"404 361 CURVE SMOOTH",
"404 311 OFFCURVE",
"396 265 OFFCURVE",
"379 222 CURVE SMOOTH",
"346 138 OFFCURVE",
"290 83 OFFCURVE",
"237 83 CURVE SMOOTH"
);
}
);
width = 579;
}
);
note = a;
unicode = 0061;
},
{
glyphname = b;
lastChange = "2018-06-23 23:43:57 +0000";
layers = (
{
anchors = (
{
name = bottom;
position = "{235, 0}";
},
{
name = top;
position = "{351, 540}";
}
);
layerId = "5202FA21-D17A-4E33-A53E-97CF8C508FBD";
paths = (
{
closed = 1;
nodes = (
"330 -10 OFFCURVE",
"373 6 OFFCURVE",
"412 39 CURVE SMOOTH",
"491 104 OFFCURVE",
"539 229 OFFCURVE",
"539 360 CURVE SMOOTH",
"539 479 OFFCURVE",
"483 550 OFFCURVE",
"389 550 CURVE SMOOTH",
"333 550 OFFCURVE",
"289 526 OFFCURVE",
"230 452 CURVE",
"226 452 LINE",
"236 483 OFFCURVE",
"256 556 OFFCURVE",
"264 597 CURVE SMOOTH",
"299 760 LINE",
"184 760 LINE",
"23 0 LINE",
"110 0 LINE",
"141 76 LINE",
"146 76 LINE",
"172 20 OFFCURVE",
"218 -10 OFFCURVE",
"282 -10 CURVE SMOOTH"
);
},
{
closed = 1;
nodes = (
"397 456 OFFCURVE",
"423 423 OFFCURVE",
"423 358 CURVE SMOOTH",
"423 312 OFFCURVE",
"416 267 OFFCURVE",
"402 224 CURVE SMOOTH",
"374 138 OFFCURVE",
"322 83 OFFCURVE",
"267 83 CURVE SMOOTH",
"212 83 OFFCURVE",
"180 120 OFFCURVE",
"180 182 CURVE SMOOTH",
"180 228 OFFCURVE",
"188 272 OFFCURVE",
"205 314 CURVE SMOOTH",
"237 399 OFFCURVE",
"294 456 OFFCURVE",
"347 456 CURVE SMOOTH"
);
}
);
width = 586;
}
);
note = b;
unicode = 0062;
},
{
glyphname = c;
lastChange = "2018-06-23 23:43:57 +0000";
layers = (
{
anchors = (
{
name = bottom;
position = "{175, 0}";
},
{
name = top;
position = "{291, 540}";
}
);
guideLines = (
{
angle = 78;
position = "{649, 998}";
}
);
layerId = "5202FA21-D17A-4E33-A53E-97CF8C508FBD";
paths = (
{
closed = 1;
nodes = (
"301 -10 OFFCURVE",
"351 2 OFFCURVE",
"396 25 CURVE",
"396 120 LINE",
"354 99 OFFCURVE",
"313 83 OFFCURVE",
"265 83 CURVE SMOOTH",
"201 83 OFFCURVE",
"162 124 OFFCURVE",
"162 196 CURVE SMOOTH",
"162 343 OFFCURVE",
"235 456 OFFCURVE",
"333 456 CURVE SMOOTH",
"365 456 OFFCURVE",
"401 447 OFFCURVE",
"441 430 CURVE",
"475 520 LINE",
"432 540 OFFCURVE",
"383 550 OFFCURVE",
"330 550 CURVE SMOOTH",
"275 550 OFFCURVE",
"226 534 OFFCURVE",
"183 503 CURVE SMOOTH",
"96 441 OFFCURVE",
"46 325 OFFCURVE",
"46 190 CURVE SMOOTH",
"46 62 OFFCURVE",
"120 -10 OFFCURVE",
"247 -10 CURVE SMOOTH"
);
}
);
width = 466;
}
);
note = c;
unicode = 0063;
},
{
glyphname = d;
lastChange = "2018-06-23 23:43:57 +0000";
layers = (
{
anchors = (
{
name = bottom;
position = "{235, 0}";
},
{
name = center;
position = "{292, 270}";
},
{
name = top;
position = "{350, 540}";
},
{
name = topright;
position = "{633, 540}";
}
);
layerId = "5202FA21-D17A-4E33-A53E-97CF8C508FBD";
paths = (
{
closed = 1;
nodes = (
"257 550 OFFCURVE",
"213 534 OFFCURVE",
"174 502 CURVE SMOOTH",
"96 438 OFFCURVE",
"46 313 OFFCURVE",
"46 180 CURVE SMOOTH",
"46 59 OFFCURVE",
"102 -10 OFFCURVE",
"195 -10 CURVE SMOOTH",
"255 -10 OFFCURVE",
"306 17 OFFCURVE",
"363 86 CURVE",
"366 86 LINE",
"357 0 LINE",
"447 0 LINE",
"608 760 LINE",
"494 760 LINE",
"457 585 LINE SMOOTH",
"449 551 OFFCURVE",
"443 510 OFFCURVE",
"439 463 CURVE",
"435 463 LINE",
"406 521 OFFCURVE",
"362 550 OFFCURVE",
"304 550 CURVE SMOOTH"
);
},
{
closed = 1;
nodes = (
"188 83 OFFCURVE",
"162 116 OFFCURVE",
"162 182 CURVE SMOOTH",
"162 228 OFFCURVE",
"169 272 OFFCURVE",
"184 315 CURVE SMOOTH",
"212 403 OFFCURVE",
"264 456 OFFCURVE",
"319 456 CURVE SMOOTH",
"377 456 OFFCURVE",
"405 417 OFFCURVE",
"405 358 CURVE SMOOTH",
"405 314 OFFCURVE",
"397 271 OFFCURVE",
"381 228 CURVE SMOOTH",
"350 142 OFFCURVE",
"292 83 OFFCURVE",
"239 83 CURVE SMOOTH"
);
}
);
width = 585;
}
);
note = d;
unicode = 0064;
},
{
glyphname = e;
lastChange = "2018-06-23 23:43:57 +0000";
layers = (
{
anchors = (
{
name = bottom;
position = "{205, 0}";
},
{
name = ogonek;
position = "{415, 5}";
},
{
name = top;
position = "{320, 540}";
}
);
layerId = "5202FA21-D17A-4E33-A53E-97CF8C508FBD";
paths = (
{
closed = 1;
nodes = (
"365 462 OFFCURVE",
"386 442 OFFCURVE",
"386 409 CURVE SMOOTH",
"386 345 OFFCURVE",
"313 309 OFFCURVE",
"191 309 CURVE SMOOTH",
"177 309 LINE",
"201 401 OFFCURVE",
"262 462 OFFCURVE",
"324 462 CURVE SMOOTH"
);
},
{
closed = 1;
nodes = (
"314 -10 OFFCURVE",
"361 1 OFFCURVE",
"424 30 CURVE",
"424 121 LINE",
"361 91 OFFCURVE",
"319 80 OFFCURVE",
"272 80 CURVE SMOOTH",
"199 80 OFFCURVE",
"162 124 OFFCURVE",
"162 196 CURVE SMOOTH",
"162 210 LINE",
"163 225 LINE",
"184 225 LINE SMOOTH",
"385 225 OFFCURVE",
"497 295 OFFCURVE",
"497 414 CURVE SMOOTH",
"497 500 OFFCURVE",
"436 550 OFFCURVE",
"331 550 CURVE SMOOTH",
"278 550 OFFCURVE",
"229 535 OFFCURVE",
"187 504 CURVE SMOOTH",
"100 444 OFFCURVE",
"46 325 OFFCURVE",
"46 196 CURVE SMOOTH",
"46 66 OFFCURVE",
"122 -10 OFFCURVE",
"250 -10 CURVE SMOOTH"
);
}
);
width = 525;
}
);
note = e;
unicode = 0065;
},
{
glyphname = f;
lastChange = "2018-06-23 23:43:57 +0000";
layers = (
{
anchors = (
{
name = bottom;
position = "{114, 0}";
},
{
name = top;
position = "{229, 540}";
}
);
guideLines = (
{
angle = 258.2574;
position = "{431, 1004}";
}
);
layerId = "5202FA21-D17A-4E33-A53E-97CF8C508FBD";
paths = (
{
closed = 1;
nodes = (
"59 -240 OFFCURVE",
"117 -184 OFFCURVE",
"143 -61 CURVE SMOOTH",
"252 453 LINE",
"364 453 LINE",
"382 540 LINE",
"270 540 LINE",
"279 582 LINE SMOOTH",
"293 646 OFFCURVE",
"319 672 OFFCURVE",
"364 672 CURVE SMOOTH",
"384 672 OFFCURVE",
"406 667 OFFCURVE",
"430 658 CURVE",
"460 744 LINE",
"429 758 OFFCURVE",
"395 765 OFFCURVE",
"357 765 CURVE SMOOTH",
"249 765 OFFCURVE",
"195 716 OFFCURVE",
"166 587 CURVE SMOOTH",
"156 542 LINE",
"61 505 LINE",
"51 453 LINE",
"138 453 LINE",
"32 -46 LINE SMOOTH",
"18 -113 OFFCURVE",
"-11 -146 OFFCURVE",
"-54 -146 CURVE SMOOTH",
"-70 -146 OFFCURVE",
"-89 -143 OFFCURVE",
"-110 -136 CURVE",
"-110 -229 LINE",
"-91 -236 OFFCURVE",
"-66 -240 OFFCURVE",
"-37 -240 CURVE SMOOTH"
);
}
);
width = 343;
}
);
note = f;
unicode = 0066;
},
{
glyphname = g;
lastChange = "2018-06-23 23:43:57 +0000";
layers = (
{
anchors = (
{
name = bottom;
position = "{203, 0}";
},
{
name = top;
position = "{318, 540}";
}
);
guideLines = (
{
angle = 258.0043;
position = "{642, 553}";
}
);
layerId = "5202FA21-D17A-4E33-A53E-97CF8C508FBD";
paths = (
{
closed = 1;
nodes = (
"345 546 OFFCURVE",
"319 550 OFFCURVE",
"293 550 CURVE SMOOTH",
"162 550 OFFCURVE",
"75 464 OFFCURVE",
"75 337 CURVE SMOOTH",
"75 281 OFFCURVE",
"97 240 OFFCURVE",
"141 214 CURVE",
"76 183 OFFCURVE",
"47 153 OFFCURVE",
"47 108 CURVE SMOOTH",
"47 81 OFFCURVE",
"59 61 OFFCURVE",
"84 46 CURVE",
"-16 12 OFFCURVE",
"-59 -36 OFFCURVE",
"-59 -103 CURVE SMOOTH",
"-59 -188 OFFCURVE",
"17 -240 OFFCURVE",
"149 -240 CURVE SMOOTH",
"330 -240 OFFCURVE",
"432 -167 OFFCURVE",
"432 -40 CURVE SMOOTH",
"432 40 OFFCURVE",
"387 80 OFFCURVE",
"272 94 CURVE SMOOTH",
"210 102 LINE SMOOTH",
"171 107 OFFCURVE",
"150 113 OFFCURVE",
"150 138 CURVE SMOOTH",
"150 159 OFFCURVE",
"168 176 OFFCURVE",
"204 189 CURVE",
"217 187 OFFCURVE",
"232 185 OFFCURVE",
"249 185 CURVE SMOOTH",
"379 185 OFFCURVE",
"463 265 OFFCURVE",
"463 390 CURVE SMOOTH",
"463 416 OFFCURVE",
"458 438 OFFCURVE",
"449 457 CURVE",
"543 473 LINE",
"558 540 LINE",
"371 540 LINE"
);
},
{
closed = 1;
nodes = (
"262 -2 OFFCURVE",
"288 -9 OFFCURVE",
"302 -18 CURVE SMOOTH",
"317 -27 OFFCURVE",
"324 -41 OFFCURVE",
"324 -57 CURVE SMOOTH",
"324 -123 OFFCURVE",
"261 -159 OFFCURVE",
"155 -159 CURVE SMOOTH",
"81 -159 OFFCURVE",
"45 -132 OFFCURVE",
"45 -90 CURVE SMOOTH",
"45 -39 OFFCURVE",
"85 -3 OFFCURVE",
"158 9 CURVE",
"225 2 LINE SMOOTH"
);
},
{
closed = 1;
nodes = (
"333 473 OFFCURVE",
"355 450 OFFCURVE",
"355 404 CURVE SMOOTH",
"355 377 OFFCURVE",
"351 353 OFFCURVE",
"342 331 CURVE SMOOTH",
"325 287 OFFCURVE",
"293 260 OFFCURVE",
"251 260 CURVE SMOOTH",
"208 260 OFFCURVE",
"184 286 OFFCURVE",
"184 332 CURVE SMOOTH",
"184 358 OFFCURVE",
"188 381 OFFCURVE",
"197 403 CURVE SMOOTH",
"215 446 OFFCURVE",
"248 473 OFFCURVE",
"290 473 CURVE SMOOTH"
);
}
);
width = 521;
}
);
note = g;
unicode = 0067;
},
{
glyphname = h;
lastChange = "2018-06-23 23:43:57 +0000";
layers = (
{
anchors = (
{
name = bottom;
position = "{237, 0}";
},
{
name = center;
position = "{295, 270}";
},
{
name = top;
position = "{353, 540}";
}
);
layerId = "5202FA21-D17A-4E33-A53E-97CF8C508FBD";
paths = (
{
closed = 1;
nodes = (
"525 319 LINE SMOOTH",
"532 351 OFFCURVE",
"536 379 OFFCURVE",
"536 404 CURVE SMOOTH",
"536 498 OFFCURVE",
"487 550 OFFCURVE",
"399 550 CURVE SMOOTH",
"338 550 OFFCURVE",
"285 521 OFFCURVE",
"230 452 CURVE",
"226 452 LINE",
"235 489 LINE SMOOTH",
"250 543 OFFCURVE",
"262 591 OFFCURVE",
"271 632 CURVE SMOOTH",
"299 760 LINE",
"184 760 LINE",
"23 0 LINE",
"138 0 LINE",
"186 228 LINE SMOOTH",
"215 369 OFFCURVE",
"285 456 OFFCURVE",
"358 456 CURVE SMOOTH",
"400 456 OFFCURVE",
"421 434 OFFCURVE",
"421 390 CURVE SMOOTH",
"421 378 OFFCURVE",
"418 357 OFFCURVE",
"412 328 CURVE SMOOTH",
"343 0 LINE",
"457 0 LINE"
);
}
);
width = 590;
}
);
note = h;
unicode = 0068;
},
{
glyphname = i;
lastChange = "2018-06-23 23:43:57 +0000";
layers = (
{
anchors = (
{
name = bottom;
position = "{80, 0}";
}
);
guideLines = (
{
angle = 258.0043;
position = "{281, 553}";
}
);
layerId = "5202FA21-D17A-4E33-A53E-97CF8C508FBD";
paths = (
{
closed = 1;
nodes = (
"161 636 OFFCURVE",
"187 620 OFFCURVE",
"221 620 CURVE SMOOTH",
"264 620 OFFCURVE",
"292 648 OFFCURVE",
"292 695 CURVE SMOOTH",
"292 730 OFFCURVE",
"269 747 OFFCURVE",
"234 747 CURVE SMOOTH",
"188 747 OFFCURVE",
"161 717 OFFCURVE",
"161 673 CURVE SMOOTH"
);
},
{
closed = 1;
nodes = (
"138 540 LINE",
"23 0 LINE",
"138 0 LINE",
"253 540 LINE"
);
}
);
width = 275;
}
);
note = i;
unicode = 0069;
},
{
glyphname = j;
lastChange = "2018-06-23 23:43:57 +0000";
layers = (
{
layerId = "5202FA21-D17A-4E33-A53E-97CF8C508FBD";
paths = (
{
closed = 1;
nodes = (
"41 -240 OFFCURVE",
"98 -187 OFFCURVE",
"123 -69 CURVE SMOOTH",
"253 540 LINE",
"139 540 LINE",
"12 -55 LINE SMOOTH",
"0 -116 OFFCURVE",
"-28 -146 OFFCURVE",
"-71 -146 CURVE SMOOTH",
"-88 -146 OFFCURVE",
"-107 -143 OFFCURVE",
"-128 -136 CURVE",
"-128 -229 LINE",
"-109 -236 OFFCURVE",
"-84 -240 OFFCURVE",
"-55 -240 CURVE SMOOTH"
);
},
{
closed = 1;
nodes = (
"162 636 OFFCURVE",
"187 620 OFFCURVE",
"221 620 CURVE SMOOTH",
"264 620 OFFCURVE",
"292 648 OFFCURVE",
"292 695 CURVE SMOOTH",
"292 730 OFFCURVE",
"269 747 OFFCURVE",
"234 747 CURVE SMOOTH",
"188 747 OFFCURVE",
"162 717 OFFCURVE",
"162 673 CURVE SMOOTH"
);
}
);
width = 275;
}
);
note = j;
unicode = 006A;
},
{
glyphname = k;
lastChange = "2018-06-23 23:43:57 +0000";
layers = (
{
anchors = (
{
name = bottom;
position = "{207, 0}";
},
{
name = top;
position = "{387, 540}";
}
);
layerId = "5202FA21-D17A-4E33-A53E-97CF8C508FBD";
paths = (
{
closed = 1;
nodes = (
"192 293 LINE",
"203 333 OFFCURVE",
"213 370 OFFCURVE",
"221 404 CURVE SMOOTH",
"229 437 OFFCURVE",
"255 556 OFFCURVE",
"299 760 CURVE",
"184 760 LINE",
"23 0 LINE",
"138 0 LINE",
"176 183 LINE",
"242 230 LINE",
"344 0 LINE",
"472 0 LINE",
"330 303 LINE",
"566 540 LINE",
"433 540 LINE",
"194 293 LINE"
);
}
);
width = 528;
}
);
note = k;
unicode = 006B;
},
{
glyphname = l;
lastChange = "2018-06-23 23:43:57 +0000";
layers = (
{
anchors = (
{
name = bottom;
position = "{80, 0}";
},
{
name = center;
position = "{138, 270}";
},
{
name = top;
position = "{390, 540}";
},
{
name = topright;
position = "{323, 540}";
}
);
guideLines = (
{
angle = 77.9908;
position = "{331, 780}";
}
);
layerId = "5202FA21-D17A-4E33-A53E-97CF8C508FBD";
paths = (
{
closed = 1;
nodes = (
"184 760 LINE",
"23 0 LINE",
"137 0 LINE",
"299 760 LINE"
);
}
);
width = 275;
}
);
note = l;
unicode = 006C;
},
{
glyphname = m;
lastChange = "2018-06-23 23:43:57 +0000";
layers = (
{
anchors = (
{
name = bottom;
position = "{387, 0}";
},
{
name = top;
position = "{502, 540}";
}
);
layerId = "5202FA21-D17A-4E33-A53E-97CF8C508FBD";
paths = (
{
closed = 1;
nodes = (
"328 550 OFFCURVE",
"271 513 OFFCURVE",
"222 440 CURVE",
"218 440 LINE",
"228 540 LINE",
"138 540 LINE",
"23 0 LINE",
"138 0 LINE",
"186 229 LINE SMOOTH",
"215 366 OFFCURVE",
"281 456 OFFCURVE",
"353 456 CURVE SMOOTH",
"391 456 OFFCURVE",
"410 434 OFFCURVE",
"410 390 CURVE SMOOTH",
"410 375 OFFCURVE",
"407 355 OFFCURVE",
"402 328 CURVE SMOOTH",
"332 0 LINE",
"447 0 LINE",
"496 235 LINE SMOOTH",
"524 368 OFFCURVE",
"591 456 OFFCURVE",
"661 456 CURVE SMOOTH",
"701 456 OFFCURVE",
"720 435 OFFCURVE",
"720 393 CURVE SMOOTH",
"720 381 OFFCURVE",
"717 359 OFFCURVE",
"711 328 CURVE SMOOTH",
"641 0 LINE",
"756 0 LINE",
"824 319 LINE SMOOTH",
"832 357 OFFCURVE",
"835 386 OFFCURVE",
"835 407 CURVE SMOOTH",
"835 498 OFFCURVE",
"789 550 OFFCURVE",
"702 550 CURVE SMOOTH",
"635 550 OFFCURVE",
"571 511 OFFCURVE",
"522 435 CURVE",
"518 435 LINE",
"507 512 OFFCURVE",
"466 550 OFFCURVE",
"394 550 CURVE SMOOTH"
);
}
);
width = 888;
}
);
note = m;
unicode = 006D;
},
{
glyphname = n;
lastChange = "2018-06-23 23:43:57 +0000";
layers = (
{
anchors = (
{
name = bottom;
position = "{237, 0}";
},
{
name = top;
position = "{353, 540}";
}
);
layerId = "5202FA21-D17A-4E33-A53E-97CF8C508FBD";
paths = (
{
closed = 1;
nodes = (
"525 319 LINE SMOOTH",
"532 355 OFFCURVE",
"536 385 OFFCURVE",
"536 407 CURVE SMOOTH",
"536 499 OFFCURVE",
"486 550 OFFCURVE",
"399 550 CURVE SMOOTH",
"332 550 OFFCURVE",
"276 517 OFFCURVE",
"222 440 CURVE",
"218 440 LINE",
"228 540 LINE",
"138 540 LINE",
"23 0 LINE",
"138 0 LINE",
"186 229 LINE SMOOTH",
"195 273 OFFCURVE",
"209 313 OFFCURVE",
"227 348 CURVE SMOOTH",
"264 418 OFFCURVE",
"311 456 OFFCURVE",
"358 456 CURVE SMOOTH",
"400 456 OFFCURVE",
"421 435 OFFCURVE",
"421 392 CURVE SMOOTH",
"421 379 OFFCURVE",
"418 357 OFFCURVE",
"412 328 CURVE SMOOTH",
"343 0 LINE",
"458 0 LINE"
);
}
);
width = 590;
}
);
note = n;
unicode = 006E;
},
{
glyphname = o;
lastChange = "2018-06-23 23:43:57 +0000";
layers = (
{
anchors = (
{
name = bottom;
position = "{229, 0}";
},
{
name = center;
position = "{287, 270}";
},
{
name = ogonek;
position = "{458, 5}";
},
{
name = top;
position = "{344, 540}";
},
{
name = topright;
position = "{621, 540}";
}
);
layerId = "5202FA21-D17A-4E33-A53E-97CF8C508FBD";
paths = (
{
closed = 1;
nodes = (
"411 295 OFFCURVE",
"405 251 OFFCURVE",
"392 211 CURVE SMOOTH",
"366 131 OFFCURVE",
"316 85 OFFCURVE",
"258 85 CURVE SMOOTH",
"195 85 OFFCURVE",
"162 125 OFFCURVE",
"162 197 CURVE SMOOTH",
"162 242 OFFCURVE",
"169 285 OFFCURVE",
"182 325 CURVE SMOOTH",
"208 404 OFFCURVE",
"258 454 OFFCURVE",
"319 454 CURVE SMOOTH",
"378 454 OFFCURVE",
"411 413 OFFCURVE",
"411 343 CURVE SMOOTH"
);
},
{
closed = 1;
nodes = (
"527 468 OFFCURVE",
"451 549 OFFCURVE",
"324 549 CURVE SMOOTH",
"269 549 OFFCURVE",
"221 534 OFFCURVE",
"179 504 CURVE SMOOTH",
"95 443 OFFCURVE",
"46 329 OFFCURVE",
"46 199 CURVE SMOOTH",
"46 71 OFFCURVE",
"125 -9 OFFCURVE",
"250 -9 CURVE SMOOTH",
"304 -9 OFFCURVE",
"352 6 OFFCURVE",
"394 35 CURVE SMOOTH",
"477 92 OFFCURVE",
"527 207 OFFCURVE",
"527 338 CURVE SMOOTH"
);
}
);
width = 573;
}
);
note = o;
unicode = 006F;
},
{
glyphname = p;
lastChange = "2018-06-23 23:43:57 +0000";
layers = (
{
anchors = (
{
name = bottom;
position = "{235, 0}";
},
{
name = top;
position = "{351, 540}";
}
);
layerId = "5202FA21-D17A-4E33-A53E-97CF8C508FBD";
paths = (
{
closed = 1;
nodes = (
"330 -10 OFFCURVE",
"373 6 OFFCURVE",
"412 39 CURVE SMOOTH",
"490 103 OFFCURVE",
"539 227 OFFCURVE",
"539 360 CURVE SMOOTH",
"539 479 OFFCURVE",
"483 550 OFFCURVE",
"390 550 CURVE SMOOTH",
"329 550 OFFCURVE",
"273 516 OFFCURVE",
"222 448 CURVE",
"218 448 LINE",
"228 540 LINE",
"138 540 LINE",
"-27 -240 LINE",
"87 -240 LINE",
"134 -14 LINE SMOOTH",
"140 15 OFFCURVE",
"144 44 OFFCURVE",
"146 76 CURVE",
"151 76 LINE",
"180 19 OFFCURVE",
"223 -10 OFFCURVE",
"282 -10 CURVE SMOOTH"
);
},
{
closed = 1;
nodes = (
"397 456 OFFCURVE",
"423 423 OFFCURVE",
"423 358 CURVE SMOOTH",
"423 312 OFFCURVE",
"416 267 OFFCURVE",
"402 224 CURVE SMOOTH",
"374 138 OFFCURVE",
"322 83 OFFCURVE",
"267 83 CURVE SMOOTH",
"212 83 OFFCURVE",
"180 120 OFFCURVE",
"180 182 CURVE SMOOTH",
"180 228 OFFCURVE",
"188 272 OFFCURVE",
"205 314 CURVE SMOOTH",
"238 400 OFFCURVE",
"294 456 OFFCURVE",
"347 456 CURVE SMOOTH"
);
}
);
width = 586;
}
);
note = p;
unicode = 0070;
},
{
glyphname = q;
lastChange = "2018-06-23 23:43:57 +0000";
layers = (
{
anchors = (
{
name = bottom;
position = "{235, 0}";
},
{
name = top;
position = "{350, 540}";
}
);
layerId = "5202FA21-D17A-4E33-A53E-97CF8C508FBD";
paths = (
{
closed = 1;
nodes = (
"258 550 OFFCURVE",
"214 534 OFFCURVE",
"176 503 CURVE SMOOTH",
"98 440 OFFCURVE",
"46 314 OFFCURVE",
"46 179 CURVE SMOOTH",
"46 61 OFFCURVE",
"102 -10 OFFCURVE",
"192 -10 CURVE SMOOTH",
"250 -10 OFFCURVE",
"300 17 OFFCURVE",
"355 87 CURVE",
"359 87 LINE",
"354 76 OFFCURVE",
"327 -33 OFFCURVE",
"319 -70 CURVE SMOOTH",
"282 -240 LINE",
"396 -240 LINE",
"562 540 LINE",
"475 540 LINE",
"444 463 LINE",
"439 463 LINE",
"409 521 OFFCURVE",
"365 550 OFFCURVE",
"305 550 CURVE SMOOTH"
);
},
{
closed = 1;
nodes = (
"188 83 OFFCURVE",
"162 116 OFFCURVE",
"162 182 CURVE SMOOTH",
"162 229 OFFCURVE",
"169 273 OFFCURVE",
"184 316 CURVE SMOOTH",
"213 402 OFFCURVE",
"264 456 OFFCURVE",
"320 456 CURVE SMOOTH",
"373 456 OFFCURVE",
"404 419 OFFCURVE",
"404 358 CURVE SMOOTH",
"404 313 OFFCURVE",
"396 270 OFFCURVE",
"380 227 CURVE SMOOTH",
"349 141 OFFCURVE",
"292 83 OFFCURVE",
"240 83 CURVE SMOOTH"
);
}
);
width = 585;
}
);
note = q;
unicode = 0071;
},
{
glyphname = r;
lastChange = "2018-06-23 23:43:57 +0000";
layers = (
{
anchors = (
{
name = bottom;
position = "{146, 0}";
},
{
name = top;
position = "{262, 540}";
}
);
layerId = "5202FA21-D17A-4E33-A53E-97CF8C508FBD";
paths = (
{
closed = 1;
nodes = (
"329 550 OFFCURVE",
"276 518 OFFCURVE",
"222 440 CURVE",
"218 440 LINE",
"228 540 LINE",
"138 540 LINE",
"23 0 LINE",
"138 0 LINE",
"190 244 LINE SMOOTH",
"215 363 OFFCURVE",
"285 444 OFFCURVE",
"367 444 CURVE SMOOTH",
"383 444 OFFCURVE",
"399 441 OFFCURVE",
"417 437 CURVE",
"442 544 LINE",
"427 548 OFFCURVE",
"409 550 OFFCURVE",
"389 550 CURVE SMOOTH"
);
}
);
width = 408;
}
);
note = r;
unicode = 0072;
},
{
glyphname = s;
lastChange = "2018-06-23 23:43:57 +0000";
layers = (
{
anchors = (
{
name = bottom;
position = "{167, 0}";
},
{
name = top;
position = "{283, 540}";
}
);
layerId = "5202FA21-D17A-4E33-A53E-97CF8C508FBD";
paths = (
{
closed = 1;
nodes = (
"382 187 OFFCURVE",
"378 206 OFFCURVE",
"371 222 CURVE SMOOTH",
"355 254 OFFCURVE",
"333 277 OFFCURVE",
"265 316 CURVE SMOOTH",
"232 334 OFFCURVE",
"210 349 OFFCURVE",
"199 360 CURVE SMOOTH",
"188 371 OFFCURVE",
"183 384 OFFCURVE",
"183 399 CURVE SMOOTH",
"183 438 OFFCURVE",
"216 460 OFFCURVE",
"263 460 CURVE SMOOTH",
"304 460 OFFCURVE",
"348 448 OFFCURVE",
"393 423 CURVE",
"430 509 LINE",
"381 536 OFFCURVE",
"325 550 OFFCURVE",
"261 550 CURVE SMOOTH",
"143 550 OFFCURVE",
"68 489 OFFCURVE",
"68 388 CURVE SMOOTH",
"68 326 OFFCURVE",
"98 285 OFFCURVE",
"179 241 CURVE SMOOTH",
"214 221 OFFCURVE",
"237 206 OFFCURVE",
"249 194 CURVE SMOOTH",
"260 182 OFFCURVE",
"265 167 OFFCURVE",
"265 151 CURVE SMOOTH",
"265 106 OFFCURVE",
"222 78 OFFCURVE",
"159 78 CURVE SMOOTH",
"107 78 OFFCURVE",
"57 93 OFFCURVE",
"7 122 CURVE",
"7 23 LINE",
"50 1 OFFCURVE",
"102 -10 OFFCURVE",
"164 -10 CURVE SMOOTH",
"301 -10 OFFCURVE",
"382 53 OFFCURVE",
"382 166 CURVE SMOOTH"
);
}
);
width = 450;
}
);
note = s;
unicode = 0073;
},
{
glyphname = t;
lastChange = "2018-06-23 23:43:57 +0000";
layers = (
{
anchors = (
{
name = bottom;
position = "{126, 0}";
},
{
name = center;
position = "{184, 270}";
},
{
name = top;
position = "{381, 540}";
},
{
name = topright;
position = "{415, 540}";
}
);
layerId = "5202FA21-D17A-4E33-A53E-97CF8C508FBD";
paths = (
{
closed = 1;
nodes = (
"189 83 OFFCURVE",
"173 101 OFFCURVE",
"173 129 CURVE SMOOTH",
"173 141 OFFCURVE",
"175 156 OFFCURVE",
"179 174 CURVE SMOOTH",
"239 453 LINE",
"374 453 LINE",
"393 540 LINE",
"257 540 LINE",
"282 660 LINE",
"211 660 LINE",
"148 547 LINE",
"55 507 LINE",
"45 453 LINE",
"124 453 LINE",
"65 175 LINE SMOOTH",
"60 151 OFFCURVE",
"57 129 OFFCURVE",
"57 111 CURVE SMOOTH",
"57 30 OFFCURVE",
"102 -10 OFFCURVE",
"191 -10 CURVE SMOOTH",
"230 -10 OFFCURVE",
"273 0 OFFCURVE",
"296 11 CURVE",
"296 98 LINE",
"269 88 OFFCURVE",
"244 83 OFFCURVE",
"222 83 CURVE SMOOTH"
);
}
);
width = 367;
}
);
note = t;
unicode = 0074;
},
{
glyphname = u;
lastChange = "2018-06-23 23:43:57 +0000";
layers = (
{
anchors = (
{
name = bottom;
position = "{237, 0}";
},
{
name = ogonek;
position = "{473, 5}";
},
{
name = top;
position = "{353, 540}";
},
{
name = topright;
position = "{638, 540}";
}
);
layerId = "5202FA21-D17A-4E33-A53E-97CF8C508FBD";
paths = (
{
closed = 1;
nodes = (
"72 255 LINE SMOOTH",
"68 235 OFFCURVE",
"64 215 OFFCURVE",
"60 195 CURVE SMOOTH",
"56 175 OFFCURVE",
"54 154 OFFCURVE",
"54 134 CURVE SMOOTH",
"54 42 OFFCURVE",
"104 -10 OFFCURVE",
"191 -10 CURVE SMOOTH",
"258 -10 OFFCURVE",
"315 24 OFFCURVE",
"368 100 CURVE",
"372 100 LINE",
"362 0 LINE",
"452 0 LINE",
"566 540 LINE",
"452 540 LINE",
"404 311 LINE SMOOTH",
"394 265 OFFCURVE",
"380 225 OFFCURVE",
"362 190 CURVE SMOOTH",
"327 122 OFFCURVE",
"278 83 OFFCURVE",
"231 83 CURVE SMOOTH",
"189 83 OFFCURVE",
"169 104 OFFCURVE",
"169 148 CURVE SMOOTH",
"169 165 OFFCURVE",
"174 196 OFFCURVE",
"184 242 CURVE SMOOTH",
"247 540 LINE",
"132 540 LINE"
);
}
);
width = 590;
}
);
note = u;
unicode = 0075;
},
{
glyphname = v;
lastChange = "2018-06-23 23:43:57 +0000";
layers = (
{
anchors = (
{
name = bottom;
position = "{186, 0}";
},
{
name = top;
position = "{301, 540}";
}
);
layerId = "5202FA21-D17A-4E33-A53E-97CF8C508FBD";
paths = (
{
closed = 1;
nodes = (
"539 540 LINE",
"417 540 LINE",
"265 248 LINE SMOOTH",
"250 221 OFFCURVE",
"217 151 OFFCURVE",
"199 103 CURVE",
"196 103 LINE",
"196 148 OFFCURVE",
"193 196 OFFCURVE",
"189 248 CURVE SMOOTH",
"162 540 LINE",
"49 540 LINE",
"113 0 LINE",
"247 0 LINE"
);
}
);
width = 487;
}
);
note = v;
unicode = 0076;
},
{
glyphname = w;
lastChange = "2018-06-23 23:43:57 +0000";
layers = (
{
anchors = (
{
name = bottom;
position = "{318, 0}";
},
{
name = top;
position = "{434, 540}";
}
);
layerId = "5202FA21-D17A-4E33-A53E-97CF8C508FBD";
paths = (
{
closed = 1;
nodes = (
"796 540 LINE",
"677 540 LINE",
"603 373 OFFCURVE",
"562 280 OFFCURVE",
"554 262 CURVE SMOOTH",
"539 227 OFFCURVE",
"506 138 OFFCURVE",
"495 105 CURVE",
"492 105 LINE",
"494 219 LINE",
"493 245 LINE",
"484 540 LINE",
"360 540 LINE",
"224 238 LINE SMOOTH",
"210 207 OFFCURVE",
"192 162 OFFCURVE",
"171 105 CURVE",
"168 105 LINE",
"171 156 OFFCURVE",
"173 196 OFFCURVE",
"173 225 CURVE",
"167 540 LINE",
"59 540 LINE",
"82 0 LINE",
"210 0 LINE",
"314 231 OFFCURVE",
"370 356 OFFCURVE",
"379 377 CURVE SMOOTH",
"387 397 OFFCURVE",
"396 418 OFFCURVE",
"404 438 CURVE",
"402 340 LINE",
"403 306 LINE",
"412 0 LINE",
"543 0 LINE"
);
}
);
width = 752;
}
);
note = w;
unicode = 0077;
},
{
glyphname = x;
lastChange = "2018-06-23 23:43:57 +0000";
layers = (
{
anchors = (
{
name = bottom;
position = "{194, 0}";
},
{
name = top;
position = "{310, 540}";
}
);
layerId = "5202FA21-D17A-4E33-A53E-97CF8C508FBD";
paths = (
{
closed = 1;
nodes = (
"437 0 LINE",
"316 272 LINE",
"541 540 LINE",
"407 540 LINE",
"267 358 LINE",
"197 540 LINE",
"77 540 LINE",
"190 278 LINE",
"-42 0 LINE",
"90 0 LINE",
"239 189 LINE",
"317 0 LINE"
);
}
);
width = 504;
}
);
note = x;
unicode = 0078;
},
{
glyphname = y;
lastChange = "2018-06-23 23:43:57 +0000";
layers = (
{
anchors = (
{
name = bottom;
position = "{188, 0}";
},
{
name = top;
position = "{303, 540}";
}
);
layerId = "5202FA21-D17A-4E33-A53E-97CF8C508FBD";
paths = (
{
closed = 1;
nodes = (
"104 -50 LINE SMOOTH",
"63 -123 OFFCURVE",
"26 -147 OFFCURVE",
"-22 -147 CURVE SMOOTH",
"-38 -147 OFFCURVE",
"-59 -145 OFFCURVE",
"-83 -139 CURVE",
"-83 -231 LINE",
"-61 -237 OFFCURVE",
"-38 -240 OFFCURVE",
"-13 -240 CURVE SMOOTH",
"80 -240 OFFCURVE",
"146 -192 OFFCURVE",
"204 -85 CURVE SMOOTH",
"540 540 LINE",
"416 540 LINE",
"273 260 LINE SMOOTH",
"257 228 OFFCURVE",
"235 177 OFFCURVE",
"207 107 CURVE",
"204 107 LINE",
"204 152 OFFCURVE",
"199 240 OFFCURVE",
"193 281 CURVE SMOOTH",
"162 540 LINE",
"49 540 LINE",
"129 -5 LINE"
);
}
);
width = 490;
}
);
note = y;
unicode = 0079;
},
{
glyphname = z;
lastChange = "2018-06-23 23:43:57 +0000";
layers = (
{
anchors = (
{
name = bottom;
position = "{167, 0}";
},
{
name = top;
position = "{282, 540}";
}
);
layerId = "5202FA21-D17A-4E33-A53E-97CF8C508FBD";
paths = (
{
closed = 1;
nodes = (
"132 87 LINE",
"436 457 LINE",
"454 540 LINE",
"110 540 LINE",
"91 453 LINE",
"305 453 LINE",
"-5 72 LINE",
"-19 0 LINE",
"351 0 LINE",
"369 87 LINE"
);
}
);
width = 449;
}
);
note = z;
unicode = 007A;
},
{
glyphname = braceleft;
lastChange = "2018-06-23 23:43:57 +0000";
layers = (
{
layerId = "5202FA21-D17A-4E33-A53E-97CF8C508FBD";
paths = (
{
closed = 1;
nodes = (
"242 -68 LINE",
"192 -68 OFFCURVE",
"173 -53 OFFCURVE",
"173 -20 CURVE SMOOTH",
"173 -12 OFFCURVE",
"175 0 OFFCURVE",
"178 16 CURVE SMOOTH",
"199 111 LINE SMOOTH",
"205 138 OFFCURVE",
"207 158 OFFCURVE",
"207 170 CURVE SMOOTH",
"207 225 OFFCURVE",
"181 260 OFFCURVE",
"129 275 CURVE",
"129 278 LINE",
"205 289 OFFCURVE",
"243 330 OFFCURVE",
"259 400 CURVE SMOOTH",
"293 551 LINE SMOOTH",
"305 604 OFFCURVE",
"329 624 OFFCURVE",
"391 624 CURVE",
"411 714 LINE",
"382 714 LINE SMOOTH",
"342 714 OFFCURVE",
"310 709 OFFCURVE",
"285 699 CURVE SMOOTH",
"236 680 OFFCURVE",
"209 641 OFFCURVE",
"191 553 CURVE SMOOTH",
"162 419 LINE SMOOTH",
"148 353 OFFCURVE",
"101 328 OFFCURVE",
"23 328 CURVE",
"4 237 LINE",
"72 237 OFFCURVE",
"106 214 OFFCURVE",
"106 168 CURVE SMOOTH",
"106 157 OFFCURVE",
"104 141 OFFCURVE",
"99 120 CURVE SMOOTH",
"77 22 LINE SMOOTH",
"72 -1 OFFCURVE",
"69 -23 OFFCURVE",
"69 -43 CURVE SMOOTH",
"69 -120 OFFCURVE",
"120 -158 OFFCURVE",
"223 -158 CURVE SMOOTH",
"242 -158 LINE"
);
}
);
width = 352;
}
);
note = braceleft;
unicode = 007B;
},
{
glyphname = bar;
lastChange = "2018-06-23 23:43:57 +0000";
layers = (
{
layerId = "5202FA21-D17A-4E33-A53E-97CF8C508FBD";
paths = (
{
closed = 1;
nodes = (
"330 -235 LINE",
"330 758 LINE",
"243 758 LINE",
"243 -235 LINE"
);
}
);
width = 551;
}
);
note = bar;
unicode = 007C;
},
{
glyphname = braceright;
lastChange = "2018-06-23 23:43:57 +0000";
layers = (
{
layerId = "5202FA21-D17A-4E33-A53E-97CF8C508FBD";
paths = (
{
closed = 1;
nodes = (
"104 624 LINE",
"155 624 OFFCURVE",
"184 614 OFFCURVE",
"184 576 CURVE SMOOTH",
"184 566 OFFCURVE",
"183 554 OFFCURVE",
"179 540 CURVE SMOOTH",
"158 444 LINE SMOOTH",
"153 422 OFFCURVE",
"150 403 OFFCURVE",
"150 385 CURVE SMOOTH",
"150 331 OFFCURVE",
"176 295 OFFCURVE",
"227 280 CURVE",
"227 277 LINE",
"151 266 OFFCURVE",
"113 227 OFFCURVE",
"97 156 CURVE SMOOTH",
"63 5 LINE SMOOTH",
"51 -47 OFFCURVE",
"26 -67 OFFCURVE",
"-43 -69 CURVE",
"-43 -158 LINE",
"-29 -158 LINE SMOOTH",
"88 -158 OFFCURVE",
"141 -120 OFFCURVE",
"163 -12 CURVE SMOOTH",
"194 137 LINE SMOOTH",
"208 202 OFFCURVE",
"254 227 OFFCURVE",
"333 227 CURVE",
"352 318 LINE",
"284 318 OFFCURVE",
"250 341 OFFCURVE",
"250 387 CURVE SMOOTH",
"250 398 OFFCURVE",
"252 414 OFFCURVE",
"257 435 CURVE SMOOTH",
"279 534 LINE SMOOTH",
"284 558 OFFCURVE",
"287 579 OFFCURVE",
"287 599 CURVE SMOOTH",
"287 676 OFFCURVE",
"235 714 OFFCURVE",
"132 714 CURVE SMOOTH",
"121 714 LINE"
);
}
);
width = 352;
}
);
note = braceright;
unicode = 007D;
},
{
glyphname = asciitilde;
lastChange = "2018-06-23 23:43:57 +0000";
layers = (
{
layerId = "5202FA21-D17A-4E33-A53E-97CF8C508FBD";
paths = (
{
closed = 1;
nodes = (
"199 338 OFFCURVE",
"222 332 OFFCURVE",
"271 311 CURVE SMOOTH",
"321 290 OFFCURVE",
"358 279 OFFCURVE",
"399 279 CURVE SMOOTH",
"447 279 OFFCURVE",
"487 297 OFFCURVE",
"521 333 CURVE",
"521 426 LINE",
"483 388 OFFCURVE",
"440 367 OFFCURVE",
"407 367 CURVE SMOOTH",
"375 367 OFFCURVE",
"351 375 OFFCURVE",
"305 394 CURVE SMOOTH",
"245 419 OFFCURVE",
"217 425 OFFCURVE",
"176 425 CURVE SMOOTH",
"127 425 OFFCURVE",
"87 407 OFFCURVE",
"54 372 CURVE",
"54 279 LINE",
"93 317 OFFCURVE",
"135 338 OFFCURVE",
"168 338 CURVE SMOOTH"
);
}
);
width = 551;
}
);
note = asciitilde;
unicode = 007E;
},
{
glyphname = exclamdown;
lastChange = "2018-06-23 23:43:57 +0000";
layers = (
{
layerId = "5202FA21-D17A-4E33-A53E-97CF8C508FBD";
paths = (
{
closed = 1;
nodes = (
"112 -182 LINE",
"193 315 LINE",
"108 315 LINE",
"-22 -182 LINE"
);
},
{
closed = 1;
nodes = (
"255 520 OFFCURVE",
"236 546 OFFCURVE",
"194 546 CURVE SMOOTH",
"143 546 OFFCURVE",
"108 510 OFFCURVE",
"108 457 CURVE SMOOTH",
"108 418 OFFCURVE",
"131 397 OFFCURVE",
"170 397 CURVE SMOOTH",
"222 397 OFFCURVE",
"255 433 OFFCURVE",
"255 485 CURVE SMOOTH"
);
}
);
width = 272;
}
);
note = exclamdown;
unicode = 00A1;
},
{
glyphname = cent;
lastChange = "2018-06-23 23:43:57 +0000";
layers = (
{
layerId = "5202FA21-D17A-4E33-A53E-97CF8C508FBD";
paths = (
{
closed = 1;
nodes = (
"354 86 OFFCURVE",
"401 99 OFFCURVE",
"445 121 CURVE",
"445 216 LINE",
"402 195 OFFCURVE",
"362 179 OFFCURVE",
"314 179 CURVE SMOOTH",
"250 179 OFFCURVE",
"211 220 OFFCURVE",
"211 292 CURVE SMOOTH",
"211 338 OFFCURVE",
"218 382 OFFCURVE",
"233 422 CURVE SMOOTH",
"262 502 OFFCURVE",
"317 552 OFFCURVE",
"382 552 CURVE SMOOTH",
"414 552 OFFCURVE",
"450 543 OFFCURVE",
"490 526 CURVE",
"524 616 LINE",
"492 631 OFFCURVE",
"457 640 OFFCURVE",
"416 644 CURVE",
"434 724 LINE",
"358 724 LINE",
"341 644 LINE",
"293 637 OFFCURVE",
"250 617 OFFCURVE",
"213 585 CURVE SMOOTH",
"139 520 OFFCURVE",
"95 410 OFFCURVE",
"95 286 CURVE SMOOTH",
"95 183 OFFCURVE",
"142 116 OFFCURVE",
"228 94 CURVE",
"206 -10 LINE",
"282 -10 LINE",
"302 85 LINE"
);
}
);
width = 551;
}
);
note = cent;
unicode = 00A2;
},
{
glyphname = sterling;
lastChange = "2018-06-23 23:43:57 +0000";
layers = (
{
layerId = "5202FA21-D17A-4E33-A53E-97CF8C508FBD";
paths = (
{
closed = 1;
nodes = (
"297 724 OFFCURVE",
"222 660 OFFCURVE",
"197 539 CURVE SMOOTH",
"167 393 LINE",
"71 393 LINE",
"53 309 LINE",
"149 309 LINE",
"132 229 LINE SMOOTH",
"116 154 OFFCURVE",
"75 109 OFFCURVE",
"10 94 CURVE",
"-9 0 LINE",
"466 0 LINE",
"488 101 LINE",
"151 101 LINE",
"205 128 OFFCURVE",
"234 171 OFFCURVE",
"248 235 CURVE SMOOTH",
"264 309 LINE",
"428 309 LINE",
"445 393 LINE",
"282 393 LINE",
"310 529 LINE SMOOTH",
"324 596 OFFCURVE",
"361 629 OFFCURVE",
"421 629 CURVE SMOOTH",
"458 629 OFFCURVE",
"500 617 OFFCURVE",
"547 593 CURVE",
"590 682 LINE",
"537 710 OFFCURVE",
"479 724 OFFCURVE",
"418 724 CURVE SMOOTH"
);
}
);
width = 551;
}
);
note = sterling;
unicode = 00A3;
},
{
glyphname = currency;
lastChange = "2018-06-23 23:43:57 +0000";
layers = (
{
layerId = "5202FA21-D17A-4E33-A53E-97CF8C508FBD";
paths = (
{
closed = 1;
nodes = (
"102 316 OFFCURVE",
"112 283 OFFCURVE",
"132 252 CURVE",
"70 191 LINE",
"127 133 LINE",
"189 194 LINE",
"217 175 OFFCURVE",
"251 165 OFFCURVE",
"290 165 CURVE SMOOTH",
"327 165 OFFCURVE",
"360 175 OFFCURVE",
"391 194 CURVE",
"453 132 LINE",
"511 190 LINE",
"449 251 LINE",
"469 282 OFFCURVE",
"479 316 OFFCURVE",
"479 353 CURVE SMOOTH",
"479 388 OFFCURVE",
"469 422 OFFCURVE",
"449 454 CURVE",
"512 517 LINE",
"453 574 LINE",
"391 511 LINE",
"359 532 OFFCURVE",
"325 542 OFFCURVE",
"290 542 CURVE SMOOTH",
"256 542 OFFCURVE",
"222 532 OFFCURVE",
"189 512 CURVE",
"127 574 LINE",
"69 516 LINE",
"132 453 LINE",
"112 422 OFFCURVE",
"102 389 OFFCURVE",
"102 353 CURVE SMOOTH"
);
},
{
closed = 1;
nodes = (
"184 412 OFFCURVE",
"230 460 OFFCURVE",
"290 460 CURVE SMOOTH",
"349 460 OFFCURVE",
"398 414 OFFCURVE",
"398 353 CURVE SMOOTH",
"398 292 OFFCURVE",
"349 247 OFFCURVE",
"290 247 CURVE SMOOTH",
"230 247 OFFCURVE",
"184 294 OFFCURVE",
"184 353 CURVE SMOOTH"
);
}
);
width = 551;
}
);
note = currency;
unicode = 00A4;
},
{
glyphname = yen;
lastChange = "2018-06-23 23:43:57 +0000";
layers = (
{
layerId = "5202FA21-D17A-4E33-A53E-97CF8C508FBD";
paths = (
{
closed = 1;
nodes = (
"106 714 LINE",
"203 343 LINE",
"100 343 LINE",
"83 267 LINE",
"216 267 LINE",
"201 195 LINE",
"68 195 LINE",
"52 119 LINE",
"185 119 LINE",
"160 0 LINE",
"268 0 LINE",
"294 119 LINE",
"427 119 LINE",
"443 195 LINE",
"309 195 LINE",
"324 267 LINE",
"458 267 LINE",
"475 343 LINE",
"369 343 LINE",
"622 714 LINE",
"501 714 LINE",
"290 387 LINE",
"219 714 LINE"
);
}
);
width = 551;
}
);
note = yen;
unicode = 00A5;
},
{
glyphname = brokenbar;
lastChange = "2018-06-23 23:43:57 +0000";
layers = (
{
layerId = "5202FA21-D17A-4E33-A53E-97CF8C508FBD";
paths = (
{
closed = 1;
nodes = (
"330 370 LINE",
"330 758 LINE",
"243 758 LINE",
"243 370 LINE"
);
},
{
closed = 1;
nodes = (
"330 -235 LINE",
"330 154 LINE",
"243 154 LINE",
"243 -235 LINE"
);
}
);
width = 551;
}
);
note = brokenbar;
unicode = 00A6;
},
{
glyphname = section;
lastChange = "2018-06-23 23:43:57 +0000";
layers = (
{
layerId = "5202FA21-D17A-4E33-A53E-97CF8C508FBD";
paths = (
{
closed = 1;
nodes = (
"79 309 OFFCURVE",
"116 265 OFFCURVE",
"200 226 CURVE SMOOTH",
"233 210 OFFCURVE",
"256 197 OFFCURVE",
"269 185 CURVE SMOOTH",
"282 173 OFFCURVE",
"288 160 OFFCURVE",
"288 146 CURVE SMOOTH",
"288 100 OFFCURVE",
"250 72 OFFCURVE",
"175 72 CURVE SMOOTH",
"121 72 OFFCURVE",
"68 87 OFFCURVE",
"19 117 CURVE",
"19 26 LINE",
"61 4 OFFCURVE",
"112 -7 OFFCURVE",
"173 -7 CURVE SMOOTH",
"308 -7 OFFCURVE",
"394 54 OFFCURVE",
"394 156 CURVE SMOOTH",
"394 194 OFFCURVE",
"377 225 OFFCURVE",
"344 250 CURVE",
"415 290 OFFCURVE",
"448 342 OFFCURVE",
"448 402 CURVE SMOOTH",
"448 464 OFFCURVE",
"411 509 OFFCURVE",
"328 546 CURVE SMOOTH",
"292 562 OFFCURVE",
"268 576 OFFCURVE",
"256 587 CURVE",
"244 598 OFFCURVE",
"238 610 OFFCURVE",
"238 624 CURVE SMOOTH",
"238 663 OFFCURVE",
"271 687 OFFCURVE",
"327 687 CURVE SMOOTH",
"377 687 OFFCURVE",
"420 671 OFFCURVE",
"461 652 CURVE",
"494 729 LINE",
"444 754 OFFCURVE",
"390 767 OFFCURVE",
"332 767 CURVE SMOOTH",
"211 767 OFFCURVE",
"133 709 OFFCURVE",
"133 619 CURVE SMOOTH",
"133 577 OFFCURVE",
"155 544 OFFCURVE",
"186 523 CURVE",
"115 484 OFFCURVE",
"79 434 OFFCURVE",
"79 373 CURVE SMOOTH"
);
},
{
closed = 1;
nodes = (
"318 453 OFFCURVE",
"349 426 OFFCURVE",
"349 387 CURVE SMOOTH",
"349 348 OFFCURVE",
"323 311 OFFCURVE",
"282 287 CURVE",
"241 306 OFFCURVE",
"213 322 OFFCURVE",
"198 336 CURVE SMOOTH",
"183 351 OFFCURVE",
"175 367 OFFCURVE",
"175 387 CURVE SMOOTH",
"175 428 OFFCURVE",
"204 465 OFFCURVE",
"249 482 CURVE"
);
}
);
width = 486;
}
);
note = section;
unicode = 00A7;
},
{
glyphname = dieresis;
lastChange = "2018-06-23 23:43:57 +0000";
layers = (
{
layerId = "5202FA21-D17A-4E33-A53E-97CF8C508FBD";
paths = (
{
closed = 1;
nodes = (
"208 641 OFFCURVE",
"230 626 OFFCURVE",
"261 626 CURVE SMOOTH",
"299 626 OFFCURVE",
"324 651 OFFCURVE",
"324 694 CURVE SMOOTH",
"324 725 OFFCURVE",
"304 740 OFFCURVE",
"273 740 CURVE SMOOTH",
"232 740 OFFCURVE",
"208 713 OFFCURVE",
"208 674 CURVE SMOOTH"
);
},
{
closed = 1;
nodes = (
"395 641 OFFCURVE",
"417 626 OFFCURVE",
"448 626 CURVE SMOOTH",
"486 626 OFFCURVE",
"511 651 OFFCURVE",
"511 694 CURVE SMOOTH",
"511 725 OFFCURVE",
"491 740 OFFCURVE",
"460 740 CURVE SMOOTH",
"419 740 OFFCURVE",
"395 713 OFFCURVE",
"395 674 CURVE SMOOTH"
);
}
);
width = 554;
}
);
note = dieresis;
unicode = 00A8;
},
{
glyphname = copyright;
lastChange = "2018-06-23 23:43:57 +0000";
layers = (
{
layerId = "5202FA21-D17A-4E33-A53E-97CF8C508FBD";
paths = (
{
closed = 1;
nodes = (
"483 505 OFFCURVE",
"515 496 OFFCURVE",
"550 478 CURVE",
"583 550 LINE",
"542 571 OFFCURVE",
"498 582 OFFCURVE",
"453 582 CURVE SMOOTH",
"324 582 OFFCURVE",
"245 496 OFFCURVE",
"245 355 CURVE SMOOTH",
"245 217 OFFCURVE",
"316 131 OFFCURVE",
"445 131 CURVE SMOOTH",
"485 131 OFFCURVE",
"524 139 OFFCURVE",
"562 156 CURVE",
"562 233 LINE",
"533 221 OFFCURVE",
"485 208 OFFCURVE",
"454 208 CURVE SMOOTH",
"376 208 OFFCURVE",
"338 257 OFFCURVE",
"338 355 CURVE SMOOTH",
"338 456 OFFCURVE",
"380 505 OFFCURVE",
"454 505 CURVE SMOOTH"
);
},
{
closed = 1;
nodes = (
"64 292 OFFCURVE",
"80 232 OFFCURVE",
"112 176 CURVE SMOOTH",
"175 63 OFFCURVE",
"296 -10 OFFCURVE",
"431 -10 CURVE SMOOTH",
"498 -10 OFFCURVE",
"560 7 OFFCURVE",
"617 40 CURVE SMOOTH",
"730 106 OFFCURVE",
"798 228 OFFCURVE",
"798 357 CURVE SMOOTH",
"798 422 OFFCURVE",
"781 484 OFFCURVE",
"749 542 CURVE SMOOTH",
"682 656 OFFCURVE",
"561 724 OFFCURVE",
"431 724 CURVE SMOOTH",
"365 724 OFFCURVE",
"304 708 OFFCURVE",
"247 675 CURVE SMOOTH",
"133 609 OFFCURVE",
"64 487 OFFCURVE",
"64 357 CURVE SMOOTH"
);
},
{
closed = 1;
nodes = (
"124 411 OFFCURVE",
"138 462 OFFCURVE",
"165 510 CURVE SMOOTH",
"220 605 OFFCURVE",
"322 664 OFFCURVE",
"431 664 CURVE SMOOTH",
"487 664 OFFCURVE",
"540 650 OFFCURVE",
"587 622 CURVE SMOOTH",
"682 565 OFFCURVE",
"738 464 OFFCURVE",
"738 357 CURVE SMOOTH",
"738 303 OFFCURVE",
"725 252 OFFCURVE",
"698 206 CURVE SMOOTH",
"646 111 OFFCURVE",
"544 50 OFFCURVE",
"431 50 CURVE SMOOTH",
"375 50 OFFCURVE",
"324 64 OFFCURVE",
"276 92 CURVE SMOOTH",
"181 148 OFFCURVE",
"124 248 OFFCURVE",
"124 357 CURVE SMOOTH"
);
}
);
width = 832;
}
);
note = copyright;
unicode = 00A9;
},
{
glyphname = ordfeminine;
lastChange = "2018-06-23 23:43:57 +0000";
layers = (
{
layerId = "5202FA21-D17A-4E33-A53E-97CF8C508FBD";
paths = (
{
closed = 1;
nodes = (
"213 722 OFFCURVE",
"186 713 OFFCURVE",
"161 694 CURVE SMOOTH",
"112 657 OFFCURVE",
"78 580 OFFCURVE",
"78 496 CURVE SMOOTH",
"78 422 OFFCURVE",
"115 376 OFFCURVE",
"174 376 CURVE SMOOTH",
"213 376 OFFCURVE",
"242 393 OFFCURVE",
"275 433 CURVE",
"277 433 LINE",
"272 382 LINE",
"332 382 LINE",
"404 716 LINE",
"346 716 LINE",
"327 672 LINE",
"324 672 LINE",
"307 706 OFFCURVE",
"280 722 OFFCURVE",
"243 722 CURVE SMOOTH"
);
},
{
closed = 1;
nodes = (
"171 438 OFFCURVE",
"156 458 OFFCURVE",
"156 499 CURVE SMOOTH",
"156 585 OFFCURVE",
"198 659 OFFCURVE",
"251 659 CURVE SMOOTH",
"284 659 OFFCURVE",
"301 640 OFFCURVE",
"301 601 CURVE SMOOTH",
"301 575 OFFCURVE",
"296 550 OFFCURVE",
"287 524 CURVE SMOOTH",
"267 472 OFFCURVE",
"234 438 OFFCURVE",
"201 438 CURVE SMOOTH"
);
}
);
width = 356;
}
);
note = ordfeminine;
unicode = 00AA;
},
{
glyphname = guillemotleft;
lastChange = "2018-06-23 23:43:57 +0000";
layers = (
{
layerId = "5202FA21-D17A-4E33-A53E-97CF8C508FBD";
paths = (
{
closed = 1;
nodes = (
"145 49 LINE",
"232 86 LINE",
"157 266 LINE",
"298 428 LINE",
"232 486 LINE",
"39 281 LINE",
"39 270 LINE"
);
},
{
closed = 1;
nodes = (
"356 49 LINE",
"444 86 LINE",
"372 257 LINE",
"509 428 LINE",
"442 483 LINE",
"254 271 LINE",
"254 259 LINE"
);
}
);
width = 515;
}
);
note = guillemotleft;
unicode = 00AB;
},
{
glyphname = logicalnot;
lastChange = "2018-06-23 23:43:57 +0000";
layers = (
{
layerId = "5202FA21-D17A-4E33-A53E-97CF8C508FBD";
paths = (
{
closed = 1;
nodes = (
"57 308 LINE",
"427 308 LINE",
"427 125 LINE",
"514 125 LINE",
"514 396 LINE",
"57 396 LINE"
);
}
);
width = 551;
}
);
note = logicalnot;
unicode = 00AC;
},
{
glyphname = registered;
lastChange = "2018-06-23 23:43:57 +0000";
layers = (
{
layerId = "5202FA21-D17A-4E33-A53E-97CF8C508FBD";
paths = (
{
closed = 1;
nodes = (
"64 292 OFFCURVE",
"80 232 OFFCURVE",
"112 176 CURVE SMOOTH",
"175 63 OFFCURVE",
"296 -10 OFFCURVE",
"431 -10 CURVE SMOOTH",
"498 -10 OFFCURVE",
"560 7 OFFCURVE",
"617 40 CURVE SMOOTH",
"730 106 OFFCURVE",
"798 228 OFFCURVE",
"798 357 CURVE SMOOTH",
"798 422 OFFCURVE",
"781 484 OFFCURVE",
"749 542 CURVE SMOOTH",
"682 656 OFFCURVE",
"561 724 OFFCURVE",
"431 724 CURVE SMOOTH",
"365 724 OFFCURVE",
"304 708 OFFCURVE",
"247 675 CURVE SMOOTH",
"133 609 OFFCURVE",
"64 487 OFFCURVE",
"64 357 CURVE SMOOTH"
);
},
{
closed = 1;
nodes = (
"124 411 OFFCURVE",
"138 462 OFFCURVE",
"165 510 CURVE SMOOTH",
"220 605 OFFCURVE",
"322 664 OFFCURVE",
"431 664 CURVE SMOOTH",
"487 664 OFFCURVE",
"540 650 OFFCURVE",
"587 622 CURVE SMOOTH",
"682 565 OFFCURVE",
"738 464 OFFCURVE",
"738 357 CURVE SMOOTH",
"738 303 OFFCURVE",
"725 252 OFFCURVE",
"698 206 CURVE SMOOTH",
"646 111 OFFCURVE",
"544 50 OFFCURVE",
"431 50 CURVE SMOOTH",
"375 50 OFFCURVE",
"324 64 OFFCURVE",
"276 92 CURVE SMOOTH",
"181 148 OFFCURVE",
"124 248 OFFCURVE",
"124 357 CURVE SMOOTH"
);
},
{
closed = 1;
nodes = (
"593 528 OFFCURVE",
"538 571 OFFCURVE",
"428 571 CURVE SMOOTH",
"297 571 LINE",
"297 142 LINE",
"384 142 LINE",
"384 301 LINE",
"428 301 LINE",
"512 142 LINE",
"610 142 LINE",
"507 324 LINE",
"562 348 OFFCURVE",
"593 389 OFFCURVE",
"593 443 CURVE SMOOTH"
);
},
{
closed = 1;
nodes = (
"419 500 LINE SMOOTH",
"473 500 OFFCURVE",
"504 484 OFFCURVE",
"504 437 CURVE SMOOTH",
"504 396 OFFCURVE",
"474 371 OFFCURVE",
"419 371 CURVE SMOOTH",
"384 371 LINE",
"384 500 LINE"
);
}
);
width = 832;
}
);
note = registered;
unicode = 00AE;
},
{
glyphname = overscore;
lastChange = "2018-06-23 23:43:57 +0000";
layers = (
{
layerId = "5202FA21-D17A-4E33-A53E-97CF8C508FBD";
paths = (
{
closed = 1;
nodes = (
"73 841 LINE",
"54 760 LINE",
"498 760 LINE",
"518 841 LINE"
);
}
);
width = 441;
}
);
note = overscore;
unicode = 00AF;
},
{
glyphname = degree;
lastChange = "2018-06-23 23:43:57 +0000";
layers = (
{
layerId = "5202FA21-D17A-4E33-A53E-97CF8C508FBD";
paths = (
{
closed = 1;
nodes = (
"92 534 OFFCURVE",
"99 508 OFFCURVE",
"113 483 CURVE SMOOTH",
"142 435 OFFCURVE",
"196 404 OFFCURVE",
"253 404 CURVE SMOOTH",
"341 404 OFFCURVE",
"413 474 OFFCURVE",
"413 563 CURVE SMOOTH",
"413 651 OFFCURVE",
"341 724 OFFCURVE",
"253 724 CURVE SMOOTH",
"165 724 OFFCURVE",
"92 651 OFFCURVE",
"92 563 CURVE SMOOTH"
);
},
{
closed = 1;
nodes = (
"166 612 OFFCURVE",
"205 650 OFFCURVE",
"253 650 CURVE SMOOTH",
"300 650 OFFCURVE",
"339 611 OFFCURVE",
"339 563 CURVE SMOOTH",
"339 518 OFFCURVE",
"300 478 OFFCURVE",
"253 478 CURVE SMOOTH",
"205 478 OFFCURVE",
"166 518 OFFCURVE",
"166 563 CURVE SMOOTH"
);
}
);
width = 428;
}
);
note = degree;
unicode = 00B0;
},
{
glyphname = plusminus;
lastChange = "2018-06-23 23:43:57 +0000";
layers = (
{
layerId = "5202FA21-D17A-4E33-A53E-97CF8C508FBD";
paths = (
{
closed = 1;
nodes = (
"330 138 LINE",
"330 321 LINE",
"514 321 LINE",
"514 409 LINE",
"330 409 LINE",
"330 595 LINE",
"242 595 LINE",
"242 409 LINE",
"57 409 LINE",
"57 321 LINE",
"242 321 LINE",
"242 138 LINE"
);
},
{
closed = 1;
nodes = (
"514 88 LINE",
"57 88 LINE",
"57 0 LINE",
"514 0 LINE"
);
}
);
width = 551;
}
);
note = plusminus;
unicode = 00B1;
},
{
glyphname = twosuperior;
lastChange = "2018-06-23 23:43:57 +0000";
layers = (
{
layerId = "5202FA21-D17A-4E33-A53E-97CF8C508FBD";
paths = (
{
closed = 1;
nodes = (
"168 363 LINE",
"253 432 LINE SMOOTH",
"292 462 OFFCURVE",
"319 485 OFFCURVE",
"335 503 CURVE SMOOTH",
"368 539 OFFCURVE",
"383 573 OFFCURVE",
"383 618 CURVE SMOOTH",
"383 680 OFFCURVE",
"334 723 OFFCURVE",
"260 723 CURVE SMOOTH",
"199 723 OFFCURVE",
"152 705 OFFCURVE",
"108 670 CURVE",
"147 610 LINE",
"180 636 OFFCURVE",
"210 649 OFFCURVE",
"240 649 CURVE SMOOTH",
"271 649 OFFCURVE",
"291 631 OFFCURVE",
"291 601 CURVE SMOOTH",
"291 576 OFFCURVE",
"280 554 OFFCURVE",
"256 527 CURVE SMOOTH",
"244 514 OFFCURVE",
"219 492 OFFCURVE",
"183 461 CURVE SMOOTH",
"52 352 LINE",
"38 286 LINE",
"333 286 LINE",
"349 363 LINE"
);
}
);
width = 364;
}
);
note = twosuperior;
unicode = 00B2;
},
{
glyphname = threesuperior;
lastChange = "2018-06-23 23:43:57 +0000";
layers = (
{
layerId = "5202FA21-D17A-4E33-A53E-97CF8C508FBD";
paths = (
{
closed = 1;
nodes = (
"383 685 OFFCURVE",
"335 723 OFFCURVE",
"255 723 CURVE SMOOTH",
"201 723 OFFCURVE",
"154 708 OFFCURVE",
"113 679 CURVE",
"146 620 LINE",
"177 641 OFFCURVE",
"208 652 OFFCURVE",
"238 652 CURVE SMOOTH",
"276 652 OFFCURVE",
"295 636 OFFCURVE",
"295 603 CURVE SMOOTH",
"295 561 OFFCURVE",
"257 538 OFFCURVE",
"199 538 CURVE SMOOTH",
"154 538 LINE",
"140 473 LINE",
"193 473 LINE SMOOTH",
"240 473 OFFCURVE",
"264 455 OFFCURVE",
"264 418 CURVE SMOOTH",
"264 373 OFFCURVE",
"230 348 OFFCURVE",
"172 348 CURVE SMOOTH",
"132 348 OFFCURVE",
"92 360 OFFCURVE",
"51 383 CURVE",
"51 305 LINE",
"87 287 OFFCURVE",
"128 278 OFFCURVE",
"173 278 CURVE SMOOTH",
"284 278 OFFCURVE",
"353 332 OFFCURVE",
"353 416 CURVE SMOOTH",
"353 459 OFFCURVE",
"330 493 OFFCURVE",
"279 505 CURVE",
"279 507 LINE",
"347 524 OFFCURVE",
"383 563 OFFCURVE",
"383 621 CURVE SMOOTH"
);
}
);
width = 364;
}
);
note = threesuperior;
unicode = 00B3;
},
{
glyphname = acute;
lastChange = "2018-06-23 23:43:57 +0000";
layers = (
{
layerId = "5202FA21-D17A-4E33-A53E-97CF8C508FBD";
paths = (
{
closed = 1;
nodes = (
"324 606 LINE",
"371 640 OFFCURVE",
"452 714 OFFCURVE",
"487 757 CURVE",
"487 766 LINE",
"358 766 LINE",
"316 703 OFFCURVE",
"280 653 OFFCURVE",
"248 618 CURVE",
"248 606 LINE"
);
}
);
width = 554;
}
);
note = acute;
unicode = 00B4;
},
{
glyphname = mu;
lastChange = "2018-06-23 23:43:57 +0000";
layers = (
{
layerId = "5202FA21-D17A-4E33-A53E-97CF8C508FBD";
paths = (
{
closed = 1;
nodes = (
"175 165 OFFCURVE",
"178 186 OFFCURVE",
"184 213 CURVE SMOOTH",
"253 540 LINE",
"138 540 LINE",
"-27 -240 LINE",
"87 -240 LINE",
"119 -85 LINE SMOOTH",
"129 -32 OFFCURVE",
"135 6 OFFCURVE",
"138 30 CURVE",
"142 30 LINE",
"157 3 OFFCURVE",
"183 -10 OFFCURVE",
"218 -10 CURVE SMOOTH",
"274 -10 OFFCURVE",
"324 21 OFFCURVE",
"373 93 CURVE",
"378 93 LINE",
"367 0 LINE",
"457 0 LINE",
"572 540 LINE",
"459 540 LINE",
"409 309 LINE SMOOTH",
"380 171 OFFCURVE",
"312 83 OFFCURVE",
"238 83 CURVE SMOOTH",
"197 83 OFFCURVE",
"175 107 OFFCURVE",
"175 150 CURVE SMOOTH"
);
}
);
width = 596;
}
);
note = mu;
unicode = 00B5;
},
{
glyphname = paragraph;
lastChange = "2018-06-23 23:43:57 +0000";
layers = (
{
layerId = "5202FA21-D17A-4E33-A53E-97CF8C508FBD";
paths = (
{
closed = 1;
nodes = (
"304 760 LINE SMOOTH",
"152 760 OFFCURVE",
"84 678 OFFCURVE",
"84 509 CURVE SMOOTH",
"84 345 OFFCURVE",
"148 264 OFFCURVE",
"289 264 CURVE SMOOTH",
"316 264 OFFCURVE",
"340 267 OFFCURVE",
"360 273 CURVE",
"360 -127 LINE",
"428 -127 LINE",
"428 673 LINE",
"520 673 LINE",
"520 -127 LINE",
"588 -127 LINE",
"588 760 LINE"
);
}
);
width = 655;
}
);
note = paragraph;
unicode = 00B6;
},
{
glyphname = cedilla;
lastChange = "2018-06-23 23:43:57 +0000";
layers = (
{
layerId = "5202FA21-D17A-4E33-A53E-97CF8C508FBD";
paths = (
{
closed = 1;
nodes = (
"115 -90 OFFCURVE",
"96 -63 OFFCURVE",
"49 -47 CURVE",
"73 0 LINE",
"2 0 LINE",
"-46 -82 LINE",
"-1 -88 OFFCURVE",
"22 -101 OFFCURVE",
"22 -127 CURVE SMOOTH",
"22 -158 OFFCURVE",
"0 -174 OFFCURVE",
"-45 -174 CURVE SMOOTH",
"-61 -174 OFFCURVE",
"-77 -171 OFFCURVE",
"-92 -167 CURVE",
"-92 -233 LINE",
"-74 -238 OFFCURVE",
"-55 -240 OFFCURVE",
"-34 -240 CURVE SMOOTH",
"58 -240 OFFCURVE",
"115 -198 OFFCURVE",
"115 -129 CURVE SMOOTH"
);
}
);
width = 205;
}
);
note = cedilla;
unicode = 00B8;
},
{
glyphname = onesuperior;
lastChange = "2018-06-23 23:43:57 +0000";
layers = (
{
layerId = "5202FA21-D17A-4E33-A53E-97CF8C508FBD";
paths = (
{
closed = 1;
nodes = (
"132 546 LINE",
"172 572 OFFCURVE",
"198 589 OFFCURVE",
"207 596 CURVE SMOOTH",
"216 604 OFFCURVE",
"224 611 OFFCURVE",
"231 617 CURVE",
"218 572 OFFCURVE",
"208 537 OFFCURVE",
"203 511 CURVE SMOOTH",
"155 286 LINE",
"248 286 LINE",
"339 714 LINE",
"260 714 LINE",
"94 609 LINE"
);
}
);
width = 364;
}
);
note = onesuperior;
unicode = 00B9;
},
{
glyphname = ordmasculine;
lastChange = "2018-06-23 23:43:57 +0000";
layers = (
{
layerId = "5202FA21-D17A-4E33-A53E-97CF8C508FBD";
paths = (
{
closed = 1;
nodes = (
"379 673 OFFCURVE",
"335 722 OFFCURVE",
"255 722 CURVE SMOOTH",
"220 722 OFFCURVE",
"189 713 OFFCURVE",
"163 695 CURVE SMOOTH",
"110 659 OFFCURVE",
"80 591 OFFCURVE",
"80 511 CURVE SMOOTH",
"80 426 OFFCURVE",
"127 376 OFFCURVE",
"207 376 CURVE SMOOTH",
"243 376 OFFCURVE",
"273 385 OFFCURVE",
"299 403 CURVE SMOOTH",
"351 440 OFFCURVE",
"379 507 OFFCURVE",
"379 589 CURVE SMOOTH"
);
},
{
closed = 1;
nodes = (
"284 657 OFFCURVE",
"301 635 OFFCURVE",
"301 590 CURVE SMOOTH",
"301 504 OFFCURVE",
"264 440 OFFCURVE",
"214 440 CURVE SMOOTH",
"177 440 OFFCURVE",
"159 463 OFFCURVE",
"159 509 CURVE SMOOTH",
"159 593 OFFCURVE",
"196 657 OFFCURVE",
"249 657 CURVE SMOOTH"
);
}
);
width = 352;
}
);
note = ordmasculine;
unicode = 00BA;
},
{
glyphname = guillemotright;
lastChange = "2018-06-23 23:43:57 +0000";
layers = (
{
layerId = "5202FA21-D17A-4E33-A53E-97CF8C508FBD";
paths = (
{
closed = 1;
nodes = (
"370 482 LINE",
"282 445 LINE",
"357 264 LINE",
"217 103 LINE",
"282 45 LINE",
"476 249 LINE",
"476 260 LINE"
);
},
{
closed = 1;
nodes = (
"158 482 LINE",
"71 445 LINE",
"142 273 LINE",
"5 103 LINE",
"73 48 LINE",
"261 259 LINE",
"261 271 LINE"
);
}
);
width = 515;
}
);
note = guillemotright;
unicode = 00BB;
},
{
glyphname = onequarter;
lastChange = "2018-06-23 23:43:57 +0000";
layers = (
{
layerId = "5202FA21-D17A-4E33-A53E-97CF8C508FBD";
paths = (
{
closed = 1;
nodes = (
"145 0 LINE",
"241 0 LINE",
"770 714 LINE",
"675 714 LINE"
);
},
{
closed = 1;
nodes = (
"166 546 LINE",
"206 572 OFFCURVE",
"231 589 OFFCURVE",
"241 596 CURVE SMOOTH",
"250 604 OFFCURVE",
"258 611 OFFCURVE",
"265 617 CURVE",
"251 572 OFFCURVE",
"242 537 OFFCURVE",
"237 511 CURVE SMOOTH",
"188 286 LINE",
"282 286 LINE",
"373 714 LINE",
"293 714 LINE",
"128 609 LINE"
);
},
{
closed = 1;
nodes = (
"714 156 LINE",
"773 431 LINE",
"677 431 LINE",
"444 153 LINE",
"432 86 LINE",
"611 86 LINE",
"592 0 LINE",
"682 0 LINE",
"701 86 LINE",
"760 86 LINE",
"774 156 LINE"
);
},
{
closed = 1;
nodes = (
"620 263 LINE SMOOTH",
"641 289 OFFCURVE",
"657 310 OFFCURVE",
"667 327 CURVE",
"651 264 LINE",
"625 156 LINE",
"528 156 LINE"
);
}
);
width = 855;
}
);
note = onequarter;
unicode = 00BC;
},
{
glyphname = onehalf;
lastChange = "2018-06-23 23:43:57 +0000";
layers = (
{
layerId = "5202FA21-D17A-4E33-A53E-97CF8C508FBD";
paths = (
{
closed = 1;
nodes = (
"110 0 LINE",
"207 0 LINE",
"735 714 LINE",
"640 714 LINE"
);
},
{
closed = 1;
nodes = (
"129 546 LINE",
"169 572 OFFCURVE",
"195 589 OFFCURVE",
"204 596 CURVE SMOOTH",
"213 604 OFFCURVE",
"221 611 OFFCURVE",
"228 617 CURVE",
"215 572 OFFCURVE",
"206 537 OFFCURVE",
"200 511 CURVE SMOOTH",
"152 286 LINE",
"245 286 LINE",
"336 714 LINE",
"257 714 LINE",
"91 609 LINE"
);
},
{
closed = 1;
nodes = (
"614 77 LINE",
"699 146 LINE SMOOTH",
"737 176 OFFCURVE",
"765 199 OFFCURVE",
"781 217 CURVE SMOOTH",
"814 253 OFFCURVE",
"829 287 OFFCURVE",
"829 332 CURVE SMOOTH",
"829 394 OFFCURVE",
"780 437 OFFCURVE",
"706 437 CURVE SMOOTH",
"645 437 OFFCURVE",
"598 419 OFFCURVE",
"554 384 CURVE",
"593 324 LINE",
"625 350 OFFCURVE",
"656 363 OFFCURVE",
"686 363 CURVE SMOOTH",
"717 363 OFFCURVE",
"737 345 OFFCURVE",
"737 315 CURVE SMOOTH",
"737 290 OFFCURVE",
"726 268 OFFCURVE",
"702 241 CURVE SMOOTH",
"689 228 OFFCURVE",
"665 206 OFFCURVE",
"629 175 CURVE SMOOTH",
"498 66 LINE",
"484 0 LINE",
"779 0 LINE",
"795 77 LINE"
);
}
);
width = 855;
}
);
note = onehalf;
unicode = 00BD;
},
{
glyphname = threequarters;
lastChange = "2018-06-23 23:43:57 +0000";
layers = (
{
layerId = "5202FA21-D17A-4E33-A53E-97CF8C508FBD";
paths = (
{
closed = 1;
nodes = (
"168 0 LINE",
"264 0 LINE",
"793 714 LINE",
"698 714 LINE"
);
},
{
closed = 1;
nodes = (
"738 156 LINE",
"797 431 LINE",
"701 431 LINE",
"468 153 LINE",
"455 86 LINE",
"635 86 LINE",
"616 0 LINE",
"705 0 LINE",
"724 86 LINE",
"784 86 LINE",
"798 156 LINE"
);
},
{
closed = 1;
nodes = (
"643 263 LINE SMOOTH",
"665 289 OFFCURVE",
"681 310 OFFCURVE",
"691 327 CURVE",
"674 264 LINE",
"649 156 LINE",
"552 156 LINE"
);
},
{
closed = 1;
nodes = (
"403 685 OFFCURVE",
"356 723 OFFCURVE",
"275 723 CURVE SMOOTH",
"222 723 OFFCURVE",
"174 708 OFFCURVE",
"133 679 CURVE",
"167 620 LINE",
"198 641 OFFCURVE",
"229 652 OFFCURVE",
"258 652 CURVE SMOOTH",
"296 652 OFFCURVE",
"315 636 OFFCURVE",
"315 603 CURVE SMOOTH",
"315 561 OFFCURVE",
"278 538 OFFCURVE",
"220 538 CURVE SMOOTH",
"174 538 LINE",
"161 473 LINE",
"213 473 LINE SMOOTH",
"261 473 OFFCURVE",
"285 455 OFFCURVE",
"285 418 CURVE SMOOTH",
"285 373 OFFCURVE",
"251 348 OFFCURVE",
"192 348 CURVE SMOOTH",
"153 348 OFFCURVE",
"112 360 OFFCURVE",
"71 383 CURVE",
"71 305 LINE",
"108 287 OFFCURVE",
"148 278 OFFCURVE",
"193 278 CURVE SMOOTH",
"304 278 OFFCURVE",
"374 332 OFFCURVE",
"374 416 CURVE SMOOTH",
"374 459 OFFCURVE",
"350 493 OFFCURVE",
"299 505 CURVE",
"299 507 LINE",
"367 524 OFFCURVE",
"403 563 OFFCURVE",
"403 621 CURVE SMOOTH"
);
}
);
width = 855;
}
);
note = threequarters;
unicode = 00BE;
},
{
glyphname = questiondown;
lastChange = "2018-06-23 23:43:57 +0000";
layers = (
{
layerId = "5202FA21-D17A-4E33-A53E-97CF8C508FBD";
paths = (
{
closed = 1;
nodes = (
"216 252 OFFCURVE",
"188 221 OFFCURVE",
"127 179 CURVE SMOOTH",
"18 103 OFFCURVE",
"-17 45 OFFCURVE",
"-17 -33 CURVE SMOOTH",
"-17 -135 OFFCURVE",
"48 -193 OFFCURVE",
"161 -193 CURVE SMOOTH",
"228 -193 OFFCURVE",
"294 -175 OFFCURVE",
"361 -138 CURVE",
"324 -52 LINE",
"273 -77 OFFCURVE",
"226 -97 OFFCURVE",
"177 -97 CURVE SMOOTH",
"124 -97 OFFCURVE",
"96 -66 OFFCURVE",
"96 -20 CURVE SMOOTH",
"96 11 OFFCURVE",
"108 36 OFFCURVE",
"133 62 CURVE SMOOTH",
"146 74 OFFCURVE",
"169 93 OFFCURVE",
"204 119 CURVE SMOOTH",
"280 173 OFFCURVE",
"310 219 OFFCURVE",
"326 314 CURVE",
"230 314 LINE"
);
},
{
closed = 1;
nodes = (
"374 520 OFFCURVE",
"354 544 OFFCURVE",
"311 544 CURVE SMOOTH",
"260 544 OFFCURVE",
"227 507 OFFCURVE",
"227 456 CURVE SMOOTH",
"227 417 OFFCURVE",
"250 395 OFFCURVE",
"287 395 CURVE SMOOTH",
"340 395 OFFCURVE",
"374 430 OFFCURVE",
"374 485 CURVE SMOOTH"
);
}
);
width = 443;
}
);
note = questiondown;
unicode = 00BF;
},
{
glyphname = AE;
lastChange = "2018-06-23 23:43:57 +0000";
layers = (
{
anchors = (
{
name = bottom;
position = "{371, 0}";
},
{
name = top;
position = "{522, 714}";
}
);
layerId = "5202FA21-D17A-4E33-A53E-97CF8C508FBD";
paths = (
{
closed = 1;
nodes = (
"500 99 LINE",
"548 323 LINE",
"793 323 LINE",
"814 421 LINE",
"568 421 LINE",
"609 614 LINE",
"872 614 LINE",
"893 714 LINE",
"395 714 LINE",
"-59 0 LINE",
"69 0 LINE",
"194 198 LINE",
"405 198 LINE",
"363 0 LINE",
"742 0 LINE",
"763 99 LINE"
);
},
{
closed = 1;
nodes = (
"453 614 LINE",
"493 614 LINE",
"426 300 LINE",
"258 300 LINE"
);
}
);
width = 856;
}
);
note = AE;
unicode = 00C6;
},
{
glyphname = Eth;
lastChange = "2018-06-23 23:43:57 +0000";
layers = (
{
layerId = "5202FA21-D17A-4E33-A53E-97CF8C508FBD";
paths = (
{
closed = 1;
nodes = (
"640 618 OFFCURVE",
"542 714 OFFCURVE",
"365 714 CURVE SMOOTH",
"185 714 LINE",
"118 402 LINE",
"48 402 LINE",
"26 304 LINE",
"97 304 LINE",
"34 0 LINE",
"230 0 LINE SMOOTH",
"314 0 OFFCURVE",
"387 18 OFFCURVE",
"449 53 CURVE SMOOTH",
"574 124 OFFCURVE",
"640 260 OFFCURVE",
"640 436 CURVE SMOOTH"
);
},
{
closed = 1;
nodes = (
"214 304 LINE",
"352 304 LINE",
"374 402 LINE",
"235 402 LINE",
"281 616 LINE",
"352 616 LINE SMOOTH",
"461 616 OFFCURVE",
"520 552 OFFCURVE",
"520 432 CURVE SMOOTH",
"520 367 OFFCURVE",
"509 309 OFFCURVE",
"486 258 CURVE SMOOTH",
"440 157 OFFCURVE",
"351 98 OFFCURVE",
"236 98 CURVE SMOOTH",
"170 98 LINE"
);
}
);
width = 671;
}
);
note = Eth;
unicode = 00D0;
},
{
glyphname = multiply;
lastChange = "2018-06-23 23:43:57 +0000";
layers = (
{
layerId = "5202FA21-D17A-4E33-A53E-97CF8C508FBD";
paths = (
{
closed = 1;
nodes = (
"133 141 LINE",
"285 291 LINE",
"438 140 LINE",
"498 200 LINE",
"346 353 LINE",
"500 506 LINE",
"438 566 LINE",
"285 415 LINE",
"133 566 LINE",
"72 505 LINE",
"223 353 LINE",
"73 201 LINE"
);
}
);
width = 551;
}
);
note = multiply;
unicode = 00D7;
},
{
glyphname = Oslash;
lastChange = "2018-06-23 23:43:57 +0000";
layers = (
{
anchors = (
{
name = bottom;
position = "{305, 0}";
},
{
name = top;
position = "{457, 714}";
}
);
layerId = "5202FA21-D17A-4E33-A53E-97CF8C508FBD";
paths = (
{
closed = 1;
nodes = (
"694 521 OFFCURVE",
"679 578 OFFCURVE",
"648 620 CURVE",
"713 701 LINE",
"648 752 LINE",
"590 679 LINE",
"548 710 OFFCURVE",
"497 725 OFFCURVE",
"435 725 CURVE SMOOTH",
"364 725 OFFCURVE",
"301 706 OFFCURVE",
"246 668 CURVE SMOOTH",
"134 592 OFFCURVE",
"66 439 OFFCURVE",
"66 265 CURVE SMOOTH",
"66 191 OFFCURVE",
"83 132 OFFCURVE",
"116 87 CURVE",
"53 9 LINE",
"118 -42 LINE",
"176 31 LINE",
"216 4 OFFCURVE",
"268 -10 OFFCURVE",
"331 -10 CURVE SMOOTH",
"403 -10 OFFCURVE",
"466 9 OFFCURVE",
"520 46 CURVE SMOOTH",
"628 120 OFFCURVE",
"694 269 OFFCURVE",
"694 450 CURVE SMOOTH"
);
},
{
closed = 1;
nodes = (
"464 626 OFFCURVE",
"496 615 OFFCURVE",
"522 594 CURVE",
"196 186 LINE",
"188 211 OFFCURVE",
"184 237 OFFCURVE",
"184 266 CURVE SMOOTH",
"184 333 OFFCURVE",
"195 395 OFFCURVE",
"216 451 CURVE SMOOTH",
"258 563 OFFCURVE",
"334 626 OFFCURVE",
"426 626 CURVE SMOOTH"
);
},
{
closed = 1;
nodes = (
"576 381 OFFCURVE",
"566 320 OFFCURVE",
"546 265 CURVE SMOOTH",
"505 155 OFFCURVE",
"429 89 OFFCURVE",
"339 89 CURVE SMOOTH",
"300 89 OFFCURVE",
"269 98 OFFCURVE",
"244 116 CURVE",
"567 519 LINE",
"573 501 OFFCURVE",
"576 478 OFFCURVE",
"576 449 CURVE SMOOTH"
);
}
);
width = 725;
}
);
note = Oslash;
unicode = 00D8;
},
{
glyphname = Thorn;
lastChange = "2018-06-23 23:43:57 +0000";
layers = (
{
anchors = (
{
name = bottom;
position = "{229, 0}";
},
{
name = top;
position = "{381, 714}";
}
);
layerId = "5202FA21-D17A-4E33-A53E-97CF8C508FBD";
paths = (
{
closed = 1;
nodes = (
"549 529 OFFCURVE",
"471 595 OFFCURVE",
"323 595 CURVE SMOOTH",
"276 595 LINE",
"301 714 LINE",
"185 714 LINE",
"34 0 LINE",
"150 0 LINE",
"182 149 LINE",
"235 149 LINE SMOOTH",
"437 149 OFFCURVE",
"549 241 OFFCURVE",
"549 399 CURVE SMOOTH"
);
},
{
closed = 1;
nodes = (
"314 497 LINE SMOOTH",
"393 497 OFFCURVE",
"431 467 OFFCURVE",
"431 396 CURVE SMOOTH",
"431 300 OFFCURVE",
"364 247 OFFCURVE",
"249 247 CURVE SMOOTH",
"202 247 LINE",
"255 497 LINE"
);
}
);
width = 573;
}
);
note = Thorn;
unicode = 00DE;
},
{
glyphname = germandbls;
lastChange = "2018-06-23 23:43:57 +0000";
layers = (
{
anchors = (
{
name = bottom;
position = "{251, 0}";
},
{
name = top;
position = "{367, 540}";
}
);
layerId = "5202FA21-D17A-4E33-A53E-97CF8C508FBD";
paths = (
{
closed = 1;
nodes = (
"41 -240 OFFCURVE",
"100 -188 OFFCURVE",
"127 -59 CURVE SMOOTH",
"256 556 LINE SMOOTH",
"273 634 OFFCURVE",
"315 673 OFFCURVE",
"384 673 CURVE SMOOTH",
"439 673 OFFCURVE",
"471 648 OFFCURVE",
"471 606 CURVE SMOOTH",
"471 572 OFFCURVE",
"448 546 OFFCURVE",
"384 503 CURVE SMOOTH",
"325 464 OFFCURVE",
"296 424 OFFCURVE",
"296 375 CURVE SMOOTH",
"296 330 OFFCURVE",
"321 295 OFFCURVE",
"374 254 CURVE SMOOTH",
"403 231 OFFCURVE",
"421 214 OFFCURVE",
"429 202 CURVE SMOOTH",
"436 189 OFFCURVE",
"440 176 OFFCURVE",
"440 160 CURVE SMOOTH",
"440 108 OFFCURVE",
"399 78 OFFCURVE",
"331 78 CURVE SMOOTH",
"290 78 OFFCURVE",
"249 92 OFFCURVE",
"208 120 CURVE",
"208 22 LINE",
"241 1 OFFCURVE",
"287 -10 OFFCURVE",
"346 -10 CURVE SMOOTH",
"475 -10 OFFCURVE",
"556 60 OFFCURVE",
"556 172 CURVE SMOOTH",
"556 211 OFFCURVE",
"543 243 OFFCURVE",
"520 271 CURVE SMOOTH",
"508 285 OFFCURVE",
"485 305 OFFCURVE",
"450 333 CURVE SMOOTH",
"426 351 OFFCURVE",
"414 368 OFFCURVE",
"414 382 CURVE SMOOTH",
"414 393 OFFCURVE",
"419 404 OFFCURVE",
"429 415 CURVE SMOOTH",
"439 425 OFFCURVE",
"463 445 OFFCURVE",
"501 473 CURVE SMOOTH",
"560 516 OFFCURVE",
"589 564 OFFCURVE",
"589 619 CURVE SMOOTH",
"589 707 OFFCURVE",
"518 763 OFFCURVE",
"395 763 CURVE SMOOTH",
"249 763 OFFCURVE",
"171 701 OFFCURVE",
"140 551 CURVE SMOOTH",
"12 -52 LINE SMOOTH",
"-2 -120 OFFCURVE",
"-28 -145 OFFCURVE",
"-71 -145 CURVE SMOOTH",
"-88 -145 OFFCURVE",
"-106 -142 OFFCURVE",
"-126 -135 CURVE",
"-126 -229 LINE",
"-103 -236 OFFCURVE",
"-80 -240 OFFCURVE",
"-57 -240 CURVE SMOOTH"
);
}
);
width = 618;
}
);
note = germandbls;
unicode = 00DF;
},
{
glyphname = ae;
lastChange = "2018-06-23 23:43:57 +0000";
layers = (
{
anchors = (
{
name = bottom;
position = "{364, 0}";
},
{
name = top;
position = "{479, 540}";
}
);
layerId = "5202FA21-D17A-4E33-A53E-97CF8C508FBD";
paths = (
{
closed = 1;
nodes = (
"634 -10 OFFCURVE",
"690 3 OFFCURVE",
"747 29 CURVE",
"747 121 LINE",
"688 94 OFFCURVE",
"639 80 OFFCURVE",
"598 80 CURVE SMOOTH",
"523 80 OFFCURVE",
"483 120 OFFCURVE",
"483 196 CURVE",
"485 225 LINE",
"507 225 LINE SMOOTH",
"708 225 OFFCURVE",
"820 295 OFFCURVE",
"820 414 CURVE SMOOTH",
"820 496 OFFCURVE",
"764 550 OFFCURVE",
"673 550 CURVE SMOOTH",
"608 550 OFFCURVE",
"554 524 OFFCURVE",
"521 483 CURVE",
"533 540 LINE",
"461 540 LINE",
"430 463 LINE",
"426 463 LINE",
"397 522 OFFCURVE",
"356 550 OFFCURVE",
"299 550 CURVE SMOOTH",
"253 550 OFFCURVE",
"210 533 OFFCURVE",
"172 500 CURVE SMOOTH",
"94 434 OFFCURVE",
"46 310 OFFCURVE",
"46 179 CURVE SMOOTH",
"46 62 OFFCURVE",
"98 -10 OFFCURVE",
"185 -10 CURVE SMOOTH",
"246 -10 OFFCURVE",
"296 17 OFFCURVE",
"351 86 CURVE",
"355 86 LINE",
"345 0 LINE",
"419 0 LINE",
"430 57 LINE",
"457 13 OFFCURVE",
"507 -10 OFFCURVE",
"579 -10 CURVE SMOOTH"
);
},
{
closed = 1;
nodes = (
"188 83 OFFCURVE",
"162 114 OFFCURVE",
"162 182 CURVE SMOOTH",
"162 228 OFFCURVE",
"169 271 OFFCURVE",
"183 314 CURVE SMOOTH",
"209 399 OFFCURVE",
"262 456 OFFCURVE",
"317 456 CURVE SMOOTH",
"366 456 OFFCURVE",
"391 417 OFFCURVE",
"391 358 CURVE SMOOTH",
"391 315 OFFCURVE",
"383 271 OFFCURVE",
"368 228 CURVE SMOOTH",
"336 140 OFFCURVE",
"282 83 OFFCURVE",
"227 83 CURVE SMOOTH"
);
},
{
closed = 1;
nodes = (
"684 462 OFFCURVE",
"709 446 OFFCURVE",
"709 408 CURVE SMOOTH",
"709 346 OFFCURVE",
"636 309 OFFCURVE",
"514 309 CURVE SMOOTH",
"499 309 LINE",
"523 401 OFFCURVE",
"584 462 OFFCURVE",
"651 462 CURVE SMOOTH"
);
}
);
width = 843;
}
);
note = ae;
unicode = 00E6;
},
{
glyphname = eth;
lastChange = "2018-06-23 23:43:57 +0000";
layers = (
{
layerId = "5202FA21-D17A-4E33-A53E-97CF8C508FBD";
paths = (
{
closed = 1;
nodes = (
"244 525 LINE",
"366 594 LINE",
"406 549 OFFCURVE",
"428 486 OFFCURVE",
"431 407 CURVE",
"428 407 LINE",
"401 453 OFFCURVE",
"354 479 OFFCURVE",
"291 479 CURVE SMOOTH",
"243 479 OFFCURVE",
"200 466 OFFCURVE",
"161 441 CURVE SMOOTH",
"83 390 OFFCURVE",
"39 295 OFFCURVE",
"39 190 CURVE SMOOTH",
"39 63 OFFCURVE",
"114 -10 OFFCURVE",
"242 -10 CURVE SMOOTH",
"301 -10 OFFCURVE",
"352 6 OFFCURVE",
"395 37 CURVE SMOOTH",
"480 99 OFFCURVE",
"530 227 OFFCURVE",
"530 393 CURVE SMOOTH",
"530 493 OFFCURVE",
"504 576 OFFCURVE",
"454 643 CURVE",
"560 702 LINE",
"526 764 LINE",
"404 697 LINE",
"378 721 OFFCURVE",
"344 745 OFFCURVE",
"302 768 CURVE",
"250 694 LINE",
"280 676 OFFCURVE",
"302 660 OFFCURVE",
"316 647 CURVE",
"209 588 LINE"
);
},
{
closed = 1;
nodes = (
"188 79 OFFCURVE",
"155 116 OFFCURVE",
"155 184 CURVE SMOOTH",
"155 222 OFFCURVE",
"161 256 OFFCURVE",
"173 288 CURVE SMOOTH",
"197 352 OFFCURVE",
"244 390 OFFCURVE",
"303 390 CURVE SMOOTH",
"363 390 OFFCURVE",
"399 349 OFFCURVE",
"399 286 CURVE SMOOTH",
"399 251 OFFCURVE",
"393 218 OFFCURVE",
"380 186 CURVE SMOOTH",
"354 121 OFFCURVE",
"308 79 OFFCURVE",
"248 79 CURVE SMOOTH"
);
}
);
width = 573;
}
);
note = eth;
unicode = 00F0;
},
{
glyphname = divide;
lastChange = "2018-06-23 23:43:57 +0000";
layers = (
{
layerId = "5202FA21-D17A-4E33-A53E-97CF8C508FBD";
paths = (
{
closed = 1;
nodes = (
"514 396 LINE",
"57 396 LINE",
"57 308 LINE",
"514 308 LINE"
);
},
{
closed = 1;
nodes = (
"224 139 OFFCURVE",
"248 115 OFFCURVE",
"285 115 CURVE SMOOTH",
"323 115 OFFCURVE",
"347 141 OFFCURVE",
"347 182 CURVE SMOOTH",
"347 223 OFFCURVE",
"326 248 OFFCURVE",
"285 248 CURVE SMOOTH",
"245 248 OFFCURVE",
"224 224 OFFCURVE",
"224 182 CURVE SMOOTH"
);
},
{
closed = 1;
nodes = (
"224 480 OFFCURVE",
"248 456 OFFCURVE",
"285 456 CURVE SMOOTH",
"323 456 OFFCURVE",
"347 481 OFFCURVE",
"347 523 CURVE SMOOTH",
"347 564 OFFCURVE",
"326 589 OFFCURVE",
"285 589 CURVE SMOOTH",
"245 589 OFFCURVE",
"224 564 OFFCURVE",
"224 523 CURVE SMOOTH"
);
}
);
width = 551;
}
);
note = divide;
unicode = 00F7;
},
{
glyphname = oslash;
lastChange = "2018-06-23 23:43:57 +0000";
layers = (
{
anchors = (
{
name = top;
position = "{344, 540}";
}
);
layerId = "5202FA21-D17A-4E33-A53E-97CF8C508FBD";
paths = (
{
closed = 1;
nodes = (
"526 393 OFFCURVE",
"516 435 OFFCURVE",
"495 468 CURVE",
"544 525 LINE",
"483 572 LINE",
"441 519 LINE",
"407 539 OFFCURVE",
"369 549 OFFCURVE",
"324 549 CURVE SMOOTH",
"269 549 OFFCURVE",
"221 534 OFFCURVE",
"179 503 CURVE SMOOTH",
"95 443 OFFCURVE",
"47 330 OFFCURVE",
"47 199 CURVE SMOOTH",
"47 148 OFFCURVE",
"58 105 OFFCURVE",
"81 72 CURVE",
"25 3 LINE",
"85 -44 LINE",
"136 20 LINE",
"168 1 OFFCURVE",
"207 -9 OFFCURVE",
"251 -9 CURVE SMOOTH",
"304 -9 OFFCURVE",
"351 5 OFFCURVE",
"392 34 CURVE SMOOTH",
"474 90 OFFCURVE",
"526 207 OFFCURVE",
"526 342 CURVE SMOOTH"
);
},
{
closed = 1;
nodes = (
"344 457 OFFCURVE",
"363 451 OFFCURVE",
"378 440 CURVE",
"162 172 LINE",
"160 183 OFFCURVE",
"158 195 OFFCURVE",
"158 208 CURVE SMOOTH",
"158 351 OFFCURVE",
"227 457 OFFCURVE",
"319 457 CURVE SMOOTH"
);
},
{
closed = 1;
nodes = (
"232 82 OFFCURVE",
"212 87 OFFCURVE",
"199 98 CURVE",
"412 363 LINE",
"414 355 OFFCURVE",
"415 345 OFFCURVE",
"415 330 CURVE SMOOTH",
"415 285 OFFCURVE",
"408 243 OFFCURVE",
"395 205 CURVE SMOOTH",
"367 128 OFFCURVE",
"316 82 OFFCURVE",
"258 82 CURVE SMOOTH"
);
}
);
width = 573;
}
);
note = oslash;
unicode = 00F8;
},
{
glyphname = thorn;
lastChange = "2018-06-23 23:43:57 +0000";
layers = (
{
anchors = (
{
name = bottom;
position = "{235, 0}";
},
{
name = top;
position = "{351, 540}";
}
);
layerId = "5202FA21-D17A-4E33-A53E-97CF8C508FBD";
paths = (
{
closed = 1;
nodes = (
"334 -10 OFFCURVE",
"378 6 OFFCURVE",
"416 39 CURVE SMOOTH",
"492 103 OFFCURVE",
"539 227 OFFCURVE",
"539 360 CURVE SMOOTH",
"539 480 OFFCURVE",
"484 550 OFFCURVE",
"390 550 CURVE SMOOTH",
"334 550 OFFCURVE",
"280 517 OFFCURVE",
"230 452 CURVE",
"226 452 LINE",
"259 566 OFFCURVE",
"268 615 OFFCURVE",
"299 760 CURVE",
"184 760 LINE",
"-27 -240 LINE",
"87 -240 LINE",
"134 -14 LINE SMOOTH",
"140 17 OFFCURVE",
"144 46 OFFCURVE",
"146 76 CURVE",
"150 76 LINE",
"178 21 OFFCURVE",
"225 -10 OFFCURVE",
"286 -10 CURVE SMOOTH"
);
},
{
closed = 1;
nodes = (
"396 456 OFFCURVE",
"423 423 OFFCURVE",
"423 358 CURVE SMOOTH",
"423 311 OFFCURVE",
"416 266 OFFCURVE",
"402 223 CURVE SMOOTH",
"374 137 OFFCURVE",
"323 83 OFFCURVE",
"267 83 CURVE SMOOTH",
"211 83 OFFCURVE",
"180 118 OFFCURVE",
"180 182 CURVE SMOOTH",
"180 226 OFFCURVE",
"188 269 OFFCURVE",
"204 313 CURVE SMOOTH",
"235 398 OFFCURVE",
"291 456 OFFCURVE",
"345 456 CURVE SMOOTH"
);
}
);
width = 586;
}
);
note = thorn;
unicode = 00FE;
},
{
glyphname = dcroat;
lastChange = "2018-06-23 23:43:57 +0000";
layers = (
{
layerId = "5202FA21-D17A-4E33-A53E-97CF8C508FBD";
paths = (
{
closed = 1;
nodes = (
"251 537 OFFCURVE",
"208 521 OFFCURVE",
"169 490 CURVE SMOOTH",
"92 426 OFFCURVE",
"46 305 OFFCURVE",
"46 180 CURVE SMOOTH",
"46 63 OFFCURVE",
"102 -10 OFFCURVE",
"197 -10 CURVE SMOOTH",
"257 -10 OFFCURVE",
"310 19 OFFCURVE",
"363 86 CURVE",
"366 86 LINE",
"357 0 LINE",
"447 0 LINE",
"573 595 LINE",
"647 595 LINE",
"664 675 LINE",
"590 675 LINE",
"608 760 LINE",
"494 760 LINE",
"476 675 LINE",
"312 675 LINE",
"296 595 LINE",
"459 595 LINE",
"448 542 LINE SMOOTH",
"442 508 OFFCURVE",
"438 479 OFFCURVE",
"437 454 CURVE",
"433 454 LINE",
"404 509 OFFCURVE",
"359 537 OFFCURVE",
"300 537 CURVE SMOOTH"
);
},
{
closed = 1;
nodes = (
"188 83 OFFCURVE",
"162 116 OFFCURVE",
"162 182 CURVE SMOOTH",
"162 227 OFFCURVE",
"169 270 OFFCURVE",
"183 310 CURVE SMOOTH",
"210 392 OFFCURVE",
"261 443 OFFCURVE",
"318 443 CURVE SMOOTH",
"378 443 OFFCURVE",
"404 405 OFFCURVE",
"404 348 CURVE SMOOTH",
"404 305 OFFCURVE",
"396 262 OFFCURVE",
"379 221 CURVE SMOOTH",
"347 137 OFFCURVE",
"292 83 OFFCURVE",
"240 83 CURVE SMOOTH"
);
}
);
width = 585;
}
);
note = dcroat;
unicode = 0111;
},
{
glyphname = Hbar;
lastChange = "2018-06-23 23:43:57 +0000";
layers = (
{
layerId = "5202FA21-D17A-4E33-A53E-97CF8C508FBD";
paths = (
{
closed = 1;
nodes = (
"577 714 LINE",
"554 605 LINE",
"278 605 LINE",
"301 714 LINE",
"185 714 LINE",
"162 605 LINE",
"73 605 LINE",
"55 522 LINE",
"144 522 LINE",
"34 0 LINE",
"150 0 LINE",
"218 322 LINE",
"494 322 LINE",
"426 0 LINE",
"543 0 LINE",
"653 522 LINE",
"743 522 LINE",
"760 605 LINE",
"671 605 LINE",
"694 714 LINE"
);
},
{
closed = 1;
nodes = (
"260 522 LINE",
"536 522 LINE",
"515 422 LINE",
"239 422 LINE"
);
}
);
width = 689;
}
);
note = Hbar;
unicode = 0126;
},
{
glyphname = hbar;
lastChange = "2018-06-23 23:43:57 +0000";
layers = (
{
layerId = "5202FA21-D17A-4E33-A53E-97CF8C508FBD";
paths = (
{
closed = 1;
nodes = (
"521 301 LINE SMOOTH",
"527 334 OFFCURVE",
"531 361 OFFCURVE",
"531 379 CURVE SMOOTH",
"531 481 OFFCURVE",
"485 532 OFFCURVE",
"395 532 CURVE SMOOTH",
"334 532 OFFCURVE",
"281 504 OFFCURVE",
"227 435 CURVE",
"223 435 LINE",
"264 595 LINE",
"422 595 LINE",
"439 675 LINE",
"281 675 LINE",
"299 760 LINE",
"184 760 LINE",
"166 675 LINE",
"91 675 LINE",
"73 595 LINE",
"150 595 LINE",
"23 0 LINE",
"138 0 LINE",
"182 211 LINE SMOOTH",
"191 255 OFFCURVE",
"205 295 OFFCURVE",
"223 329 CURVE SMOOTH",
"260 397 OFFCURVE",
"311 436 OFFCURVE",
"358 436 CURVE SMOOTH",
"397 436 OFFCURVE",
"417 415 OFFCURVE",
"417 372 CURVE SMOOTH",
"417 354 OFFCURVE",
"415 333 OFFCURVE",
"409 310 CURVE SMOOTH",
"343 0 LINE",
"457 0 LINE"
);
}
);
width = 590;
}
);
note = hbar;
unicode = 0127;
},
{
glyphname = dotlessi;
lastChange = "2018-06-23 23:43:57 +0000";
layers = (
{
anchors = (
{
name = bottom;
position = "{80, 0}";
},
{
name = ogonek;
position = "{190, 5}";
},
{
name = top;
position = "{195, 540}";
}
);
layerId = "5202FA21-D17A-4E33-A53E-97CF8C508FBD";
paths = (
{
closed = 1;
nodes = (
"138 540 LINE",
"23 0 LINE",
"138 0 LINE",
"253 540 LINE"
);
}
);
width = 275;
}
);
note = dotlessi;
unicode = 0131;
},
{
glyphname = kgreenlandic;
lastChange = "2018-06-23 23:43:57 +0000";
layers = (
{
anchors = (
{
name = bottom;
position = "{207, 0}";
},
{
name = top;
position = "{322, 540}";
}
);
layerId = "5202FA21-D17A-4E33-A53E-97CF8C508FBD";
paths = (
{
closed = 1;
nodes = (
"209 355 OFFCURVE",
"220 395 OFFCURVE",
"224 412 CURVE",
"252 540 LINE",
"137 540 LINE",
"23 0 LINE",
"138 0 LINE",
"176 183 LINE",
"242 230 LINE",
"344 0 LINE",
"472 0 LINE",
"330 303 LINE",
"566 540 LINE",
"433 540 LINE",
"193 292 LINE",
"191 292 LINE"
);
}
);
width = 528;
}
);
note = kgreenlandic;
unicode = 0138;
},
{
glyphname = Lslash;
lastChange = "2018-06-23 23:43:57 +0000";
layers = (
{
layerId = "5202FA21-D17A-4E33-A53E-97CF8C508FBD";
paths = (
{
closed = 1;
nodes = (
"434 100 LINE",
"171 100 LINE",
"216 313 LINE",
"373 400 LINE",
"332 476 LINE",
"240 424 LINE",
"301 714 LINE",
"185 714 LINE",
"109 351 LINE",
"5 294 LINE",
"45 218 LINE",
"86 241 LINE",
"34 0 LINE",
"413 0 LINE"
);
}
);
width = 496;
}
);
note = Lslash;
unicode = 0141;
},
{
glyphname = lslash;
lastChange = "2018-06-23 23:43:57 +0000";
layers = (
{
layerId = "5202FA21-D17A-4E33-A53E-97CF8C508FBD";
paths = (
{
closed = 1;
nodes = (
"190 760 LINE",
"106 369 LINE",
"1 309 LINE",
"40 234 LINE",
"83 259 LINE",
"28 0 LINE",
"142 0 LINE",
"212 331 LINE",
"321 393 LINE",
"282 468 LINE",
"236 441 LINE",
"303 760 LINE"
);
}
);
width = 288;
}
);
note = lslash;
unicode = 0142;
},
{
glyphname = Eng;
lastChange = "2018-06-23 23:43:57 +0000";
layers = (
{
layerId = "5202FA21-D17A-4E33-A53E-97CF8C508FBD";
paths = (
{
closed = 1;
nodes = (
"477 -198 OFFCURVE",
"554 -130 OFFCURVE",
"582 0 CURVE SMOOTH",
"733 714 LINE",
"626 714 LINE",
"553 369 LINE SMOOTH",
"537 296 OFFCURVE",
"524 232 OFFCURVE",
"516 177 CURVE",
"513 177 LINE",
"309 714 LINE",
"184 714 LINE",
"33 0 LINE",
"140 0 LINE",
"217 364 LINE SMOOTH",
"226 404 OFFCURVE",
"237 473 OFFCURVE",
"252 568 CURVE",
"255 568 LINE",
"472 0 LINE",
"455 -65 OFFCURVE",
"412 -98 OFFCURVE",
"345 -98 CURVE SMOOTH",
"323 -98 OFFCURVE",
"298 -94 OFFCURVE",
"270 -87 CURVE",
"268 -186 LINE",
"289 -194 OFFCURVE",
"317 -198 OFFCURVE",
"352 -198 CURVE SMOOTH"
);
}
);
width = 728;
}
);
note = Eng;
unicode = 014A;
},
{
glyphname = eng;
lastChange = "2018-06-23 23:43:57 +0000";
layers = (
{
layerId = "5202FA21-D17A-4E33-A53E-97CF8C508FBD";
paths = (
{
closed = 1;
nodes = (
"299 -240 OFFCURVE",
"328 -233 OFFCURVE",
"352 -220 CURVE SMOOTH",
"399 -193 OFFCURVE",
"427 -146 OFFCURVE",
"449 -43 CURVE SMOOTH",
"525 319 LINE SMOOTH",
"532 359 OFFCURVE",
"536 388 OFFCURVE",
"536 407 CURVE SMOOTH",
"536 499 OFFCURVE",
"486 550 OFFCURVE",
"399 550 CURVE SMOOTH",
"332 550 OFFCURVE",
"276 517 OFFCURVE",
"222 440 CURVE",
"218 440 LINE",
"228 540 LINE",
"138 540 LINE",
"23 0 LINE",
"138 0 LINE",
"186 229 LINE SMOOTH",
"195 273 OFFCURVE",
"209 313 OFFCURVE",
"227 348 CURVE SMOOTH",
"264 418 OFFCURVE",
"311 456 OFFCURVE",
"358 456 CURVE SMOOTH",
"400 456 OFFCURVE",
"421 435 OFFCURVE",
"421 392 CURVE SMOOTH",
"421 379 OFFCURVE",
"418 357 OFFCURVE",
"412 328 CURVE SMOOTH",
"331 -54 LINE SMOOTH",
"318 -115 OFFCURVE",
"291 -146 OFFCURVE",
"249 -146 CURVE SMOOTH",
"231 -146 OFFCURVE",
"212 -142 OFFCURVE",
"192 -135 CURVE",
"192 -229 LINE",
"215 -236 OFFCURVE",
"239 -240 OFFCURVE",
"264 -240 CURVE SMOOTH"
);
}
);
width = 590;
}
);
note = eng;
unicode = 014B;
},
{
glyphname = OE;
lastChange = "2018-06-23 23:43:57 +0000";
layers = (
{
anchors = (
{
name = bottom;
position = "{381, 0}";
},
{
name = top;
position = "{533, 714}";
}
);
layerId = "5202FA21-D17A-4E33-A53E-97CF8C508FBD";
paths = (
{
closed = 1;
nodes = (
"522 99 LINE",
"569 323 LINE",
"815 323 LINE",
"836 421 LINE",
"590 421 LINE",
"631 614 LINE",
"894 614 LINE",
"915 714 LINE",
"544 714 LINE",
"519 721 OFFCURVE",
"482 725 OFFCURVE",
"435 725 CURVE SMOOTH",
"364 725 OFFCURVE",
"301 706 OFFCURVE",
"246 668 CURVE SMOOTH",
"134 592 OFFCURVE",
"66 439 OFFCURVE",
"66 265 CURVE SMOOTH",
"66 93 OFFCURVE",
"163 -10 OFFCURVE",
"331 -10 CURVE SMOOTH",
"359 -10 OFFCURVE",
"387 -6 OFFCURVE",
"414 0 CURVE",
"764 0 LINE",
"785 99 LINE"
);
},
{
closed = 1;
nodes = (
"243 90 OFFCURVE",
"187 153 OFFCURVE",
"187 266 CURVE SMOOTH",
"187 332 OFFCURVE",
"197 393 OFFCURVE",
"218 448 CURVE SMOOTH",
"259 559 OFFCURVE",
"336 625 OFFCURVE",
"426 625 CURVE SMOOTH",
"462 625 OFFCURVE",
"492 620 OFFCURVE",
"514 610 CURVE",
"406 103 LINE",
"385 94 OFFCURVE",
"362 90 OFFCURVE",
"338 90 CURVE SMOOTH"
);
}
);
width = 878;
}
);
note = OE;
unicode = 0152;
},
{
glyphname = oe;
lastChange = "2018-06-23 23:43:57 +0000";
layers = (
{
anchors = (
{
name = bottom;
position = "{379, 0}";
},
{
name = top;
position = "{494, 540}";
}
);
layerId = "5202FA21-D17A-4E33-A53E-97CF8C508FBD";
paths = (
{
closed = 1;
nodes = (
"661 -10 OFFCURVE",
"713 1 OFFCURVE",
"772 29 CURVE",
"772 121 LINE",
"700 89 OFFCURVE",
"665 80 OFFCURVE",
"620 80 CURVE SMOOTH",
"546 80 OFFCURVE",
"510 124 OFFCURVE",
"510 196 CURVE",
"511 225 LINE",
"534 225 LINE SMOOTH",
"733 225 OFFCURVE",
"845 295 OFFCURVE",
"845 414 CURVE SMOOTH",
"845 498 OFFCURVE",
"786 550 OFFCURVE",
"682 550 CURVE SMOOTH",
"601 550 OFFCURVE",
"534 514 OFFCURVE",
"487 455 CURVE",
"455 518 OFFCURVE",
"400 549 OFFCURVE",
"323 549 CURVE SMOOTH",
"269 549 OFFCURVE",
"222 535 OFFCURVE",
"180 506 CURVE SMOOTH",
"97 449 OFFCURVE",
"46 334 OFFCURVE",
"46 200 CURVE SMOOTH",
"46 72 OFFCURVE",
"122 -9 OFFCURVE",
"243 -9 CURVE SMOOTH",
"320 -9 OFFCURVE",
"381 21 OFFCURVE",
"426 80 CURVE",
"457 20 OFFCURVE",
"520 -10 OFFCURVE",
"598 -10 CURVE SMOOTH"
);
},
{
closed = 1;
nodes = (
"375 454 OFFCURVE",
"408 415 OFFCURVE",
"408 343 CURVE SMOOTH",
"408 190 OFFCURVE",
"347 85 OFFCURVE",
"254 85 CURVE SMOOTH",
"195 85 OFFCURVE",
"162 125 OFFCURVE",
"162 201 CURVE SMOOTH",
"162 249 OFFCURVE",
"169 292 OFFCURVE",
"184 332 CURVE SMOOTH",
"212 412 OFFCURVE",
"259 454 OFFCURVE",
"316 454 CURVE SMOOTH"
);
},
{
closed = 1;
nodes = (
"714 462 OFFCURVE",
"734 442 OFFCURVE",
"734 411 CURVE SMOOTH",
"734 345 OFFCURVE",
"662 309 OFFCURVE",
"539 309 CURVE SMOOTH",
"524 309 LINE",
"546 401 OFFCURVE",
"608 462 OFFCURVE",
"677 462 CURVE SMOOTH"
);
}
);
width = 873;
}
);
note = oe;
unicode = 0153;
},
{
glyphname = Tbar;
lastChange = "2018-06-23 23:43:57 +0000";
layers = (
{
layerId = "5202FA21-D17A-4E33-A53E-97CF8C508FBD";
paths = (
{
closed = 1;
nodes = (
"574 614 LINE",
"595 714 LINE",
"108 714 LINE",
"86 614 LINE",
"271 614 LINE",
"227 406 LINE",
"103 406 LINE",
"82 311 LINE",
"207 311 LINE",
"142 0 LINE",
"258 0 LINE",
"324 311 LINE",
"453 311 LINE",
"473 406 LINE",
"344 406 LINE",
"388 614 LINE"
);
}
);
width = 514;
}
);
note = Tbar;
unicode = 0166;
},
{
glyphname = tbar;
lastChange = "2018-06-23 23:43:57 +0000";
layers = (
{
layerId = "5202FA21-D17A-4E33-A53E-97CF8C508FBD";
paths = (
{
closed = 1;
nodes = (
"189 83 OFFCURVE",
"173 101 OFFCURVE",
"173 129 CURVE SMOOTH",
"173 141 OFFCURVE",
"175 156 OFFCURVE",
"179 174 CURVE SMOOTH",
"198 264 LINE",
"315 264 LINE",
"332 344 LINE",
"215 344 LINE",
"239 453 LINE",
"374 453 LINE",
"393 540 LINE",
"257 540 LINE",
"282 660 LINE",
"211 660 LINE",
"148 547 LINE",
"55 507 LINE",
"45 453 LINE",
"124 453 LINE",
"100 344 LINE",
"34 344 LINE",
"18 264 LINE",
"84 264 LINE",
"69 192 OFFCURVE",
"61 151 OFFCURVE",
"59 141 CURVE SMOOTH",
"58 130 OFFCURVE",
"57 120 OFFCURVE",
"57 111 CURVE SMOOTH",
"57 30 OFFCURVE",
"102 -10 OFFCURVE",
"191 -10 CURVE SMOOTH",
"230 -10 OFFCURVE",
"273 0 OFFCURVE",
"296 11 CURVE",
"296 98 LINE",
"269 88 OFFCURVE",
"244 83 OFFCURVE",
"222 83 CURVE SMOOTH"
);
}
);
width = 367;
}
);
note = tbar;
unicode = 0167;
},
{
glyphname = longs;
lastChange = "2018-06-23 23:43:57 +0000";
layers = (
{
anchors = (
{
name = bottom;
position = "{101, 0}";
},
{
name = top;
position = "{216, 540}";
}
);
layerId = "5202FA21-D17A-4E33-A53E-97CF8C508FBD";
paths = (
{
closed = 1;
nodes = (
"45 -240 OFFCURVE",
"103 -186 OFFCURVE",
"129 -61 CURVE SMOOTH",
"265 582 LINE SMOOTH",
"279 646 OFFCURVE",
"305 672 OFFCURVE",
"350 672 CURVE SMOOTH",
"370 672 OFFCURVE",
"392 667 OFFCURVE",
"416 658 CURVE",
"446 744 LINE",
"415 758 OFFCURVE",
"380 765 OFFCURVE",
"342 765 CURVE SMOOTH",
"232 765 OFFCURVE",
"179 712 OFFCURVE",
"152 587 CURVE SMOOTH",
"18 -46 LINE SMOOTH",
"4 -114 OFFCURVE",
"-27 -146 OFFCURVE",
"-68 -146 CURVE SMOOTH",
"-84 -146 OFFCURVE",
"-103 -143 OFFCURVE",
"-124 -136 CURVE",
"-124 -229 LINE",
"-105 -236 OFFCURVE",
"-81 -240 OFFCURVE",
"-51 -240 CURVE SMOOTH"
);
}
);
width = 316;
}
);
note = longs;
unicode = 017F;
},
{
glyphname = florin;
lastChange = "2018-06-23 23:43:57 +0000";
layers = (
{
layerId = "5202FA21-D17A-4E33-A53E-97CF8C508FBD";
paths = (
{
closed = 1;
nodes = (
"160 -240 OFFCURVE",
"218 -186 OFFCURVE",
"246 -61 CURVE SMOOTH",
"344 401 LINE",
"455 401 LINE",
"473 488 LINE",
"362 488 LINE",
"373 541 LINE SMOOTH",
"386 605 OFFCURVE",
"412 631 OFFCURVE",
"458 631 CURVE SMOOTH",
"478 631 OFFCURVE",
"500 626 OFFCURVE",
"524 617 CURVE",
"554 703 LINE",
"522 717 OFFCURVE",
"488 724 OFFCURVE",
"450 724 CURVE SMOOTH",
"339 724 OFFCURVE",
"283 669 OFFCURVE",
"259 546 CURVE SMOOTH",
"248 489 LINE",
"152 454 LINE",
"142 401 LINE",
"229 401 LINE",
"135 -46 LINE SMOOTH",
"121 -114 OFFCURVE",
"89 -146 OFFCURVE",
"49 -146 CURVE SMOOTH",
"33 -146 OFFCURVE",
"14 -143 OFFCURVE",
"-7 -136 CURVE",
"-7 -229 LINE",
"12 -236 OFFCURVE",
"37 -240 OFFCURVE",
"66 -240 CURVE SMOOTH"
);
}
);
width = 551;
}
);
note = florin;
unicode = 0192;
},
{
glyphname = Aringacute;
lastChange = "2018-06-23 23:43:57 +0000";
layers = (
{
layerId = "5202FA21-D17A-4E33-A53E-97CF8C508FBD";
paths = (
{
closed = 1;
nodes = (
"503 772 OFFCURVE",
"455 815 OFFCURVE",
"387 815 CURVE SMOOTH",
"320 815 OFFCURVE",
"273 772 OFFCURVE",
"273 705 CURVE SMOOTH",
"273 679 OFFCURVE",
"279 658 OFFCURVE",
"290 642 CURVE",
"-58 0 LINE",
"65 0 LINE",
"167 194 LINE",
"403 194 LINE",
"424 0 LINE",
"538 0 LINE",
"462 618 LINE",
"489 640 OFFCURVE",
"503 669 OFFCURVE",
"503 706 CURVE SMOOTH"
);
},
{
closed = 1;
nodes = (
"435 841 LINE",
"491 872 OFFCURVE",
"562 919 OFFCURVE",
"596 951 CURVE",
"596 958 LINE",
"461 958 LINE",
"436 927 OFFCURVE",
"382 874 OFFCURVE",
"354 850 CURVE",
"354 841 LINE"
);
},
{
closed = 1;
nodes = (
"438 672 OFFCURVE",
"417 654 OFFCURVE",
"387 654 CURVE SMOOTH",
"353 654 OFFCURVE",
"335 672 OFFCURVE",
"335 705 CURVE SMOOTH",
"335 737 OFFCURVE",
"356 757 OFFCURVE",
"387 757 CURVE SMOOTH",
"417 757 OFFCURVE",
"438 737 OFFCURVE",
"438 705 CURVE SMOOTH"
);
},
{
closed = 1;
nodes = (
"372 552 OFFCURVE",
"373 529 OFFCURVE",
"375 506 CURVE SMOOTH",
"376 483 OFFCURVE",
"383 413 OFFCURVE",
"395 295 CURVE",
"220 295 LINE",
"290 431 OFFCURVE",
"329 508 OFFCURVE",
"337 525 CURVE SMOOTH",
"345 542 OFFCURVE",
"353 559 OFFCURVE",
"360 575 CURVE",
"370 575 LINE"
);
}
);
width = 591;
}
);
note = Aringacute;
unicode = 01FA;
},
{
glyphname = aringacute;
lastChange = "2018-06-23 23:43:57 +0000";
layers = (
{
layerId = "5202FA21-D17A-4E33-A53E-97CF8C508FBD";
paths = (
{
closed = 1;
nodes = (
"408 841 LINE",
"470 875 OFFCURVE",
"542 924 OFFCURVE",
"569 951 CURVE",
"569 958 LINE",
"434 958 LINE",
"410 929 OFFCURVE",
"358 877 OFFCURVE",
"327 850 CURVE",
"327 841 LINE"
);
},
{
closed = 1;
nodes = (
"473 762 OFFCURVE",
"425 804 OFFCURVE",
"357 804 CURVE SMOOTH",
"290 804 OFFCURVE",
"243 761 OFFCURVE",
"243 694 CURVE SMOOTH",
"243 627 OFFCURVE",
"288 585 OFFCURVE",
"357 585 CURVE SMOOTH",
"427 585 OFFCURVE",
"473 628 OFFCURVE",
"473 695 CURVE SMOOTH"
);
},
{
closed = 1;
nodes = (
"409 663 OFFCURVE",
"388 643 OFFCURVE",
"357 643 CURVE SMOOTH",
"323 643 OFFCURVE",
"306 663 OFFCURVE",
"306 694 CURVE SMOOTH",
"306 727 OFFCURVE",
"327 746 OFFCURVE",
"357 746 CURVE SMOOTH",
"388 746 OFFCURVE",
"409 727 OFFCURVE",
"409 694 CURVE SMOOTH"
);
},
{
closed = 1;
nodes = (
"257 -10 OFFCURVE",
"314 22 OFFCURVE",
"365 86 CURVE",
"368 86 LINE",
"358 0 LINE",
"447 0 LINE",
"562 540 LINE",
"474 540 LINE",
"444 463 LINE",
"439 463 LINE",
"414 520 OFFCURVE",
"367 550 OFFCURVE",
"304 550 CURVE SMOOTH",
"257 550 OFFCURVE",
"213 533 OFFCURVE",
"173 500 CURVE SMOOTH",
"94 433 OFFCURVE",
"46 311 OFFCURVE",
"46 179 CURVE SMOOTH",
"46 60 OFFCURVE",
"103 -10 OFFCURVE",
"195 -10 CURVE SMOOTH"
);
},
{
closed = 1;
nodes = (
"190 83 OFFCURVE",
"162 116 OFFCURVE",
"162 182 CURVE SMOOTH",
"162 229 OFFCURVE",
"169 273 OFFCURVE",
"184 316 CURVE SMOOTH",
"213 402 OFFCURVE",
"266 456 OFFCURVE",
"321 456 CURVE SMOOTH",
"370 456 OFFCURVE",
"404 418 OFFCURVE",
"404 361 CURVE SMOOTH",
"404 311 OFFCURVE",
"396 265 OFFCURVE",
"379 222 CURVE SMOOTH",
"346 138 OFFCURVE",
"290 83 OFFCURVE",
"237 83 CURVE SMOOTH"
);
}
);
width = 577;
}
);
note = aringacute;
unicode = 01FB;
},
{
glyphname = circumflex;
lastChange = "2018-06-23 23:43:57 +0000";
layers = (
{
layerId = "5202FA21-D17A-4E33-A53E-97CF8C508FBD";
paths = (
{
closed = 1;
nodes = (
"477 685 OFFCURVE",
"448 734 OFFCURVE",
"436 766 CURVE",
"315 766 LINE",
"306 753 OFFCURVE",
"292 736 OFFCURVE",
"271 714 CURVE SMOOTH",
"250 692 OFFCURVE",
"218 660 OFFCURVE",
"173 618 CURVE",
"173 606 LINE",
"253 606 LINE",
"287 628 OFFCURVE",
"326 657 OFFCURVE",
"368 693 CURVE",
"396 655 OFFCURVE",
"422 626 OFFCURVE",
"447 606 CURVE",
"521 606 LINE",
"521 618 LINE"
);
}
);
width = 554;
}
);
note = circumflex;
unicode = 02C6;
},
{
glyphname = caron;
lastChange = "2018-06-23 23:43:57 +0000";
layers = (
{
layerId = "5202FA21-D17A-4E33-A53E-97CF8C508FBD";
paths = (
{
closed = 1;
nodes = (
"248 691 OFFCURVE",
"276 642 OFFCURVE",
"290 606 CURVE",
"411 606 LINE",
"433 637 OFFCURVE",
"501 707 OFFCURVE",
"553 753 CURVE",
"553 766 LINE",
"474 766 LINE",
"438 742 OFFCURVE",
"398 713 OFFCURVE",
"358 679 CURVE",
"328 718 OFFCURVE",
"301 747 OFFCURVE",
"279 766 CURVE",
"206 766 LINE",
"206 753 LINE"
);
}
);
width = 554;
}
);
note = caron;
unicode = 02C7;
},
{
glyphname = macron;
lastChange = "2018-06-23 23:43:57 +0000";
layers = (
{
layerId = "5202FA21-D17A-4E33-A53E-97CF8C508FBD";
paths = (
{
closed = 1;
nodes = (
"477 606 LINE",
"495 692 LINE",
"211 692 LINE",
"193 606 LINE"
);
}
);
width = 535;
}
);
note = macron;
unicode = 02C9;
},
{
glyphname = breve;
lastChange = "2018-06-23 23:43:57 +0000";
layers = (
{
layerId = "5202FA21-D17A-4E33-A53E-97CF8C508FBD";
paths = (
{
closed = 1;
nodes = (
"454 713 OFFCURVE",
"424 693 OFFCURVE",
"367 693 CURVE SMOOTH",
"311 693 OFFCURVE",
"289 713 OFFCURVE",
"289 754 CURVE",
"223 754 LINE",
"222 748 OFFCURVE",
"221 739 OFFCURVE",
"221 727 CURVE SMOOTH",
"221 651 OFFCURVE",
"273 606 OFFCURVE",
"360 606 CURVE SMOOTH",
"459 606 OFFCURVE",
"516 653 OFFCURVE",
"536 754 CURVE",
"464 754 LINE"
);
}
);
width = 554;
}
);
note = breve;
unicode = 02D8;
},
{
glyphname = dotaccent;
lastChange = "2018-06-23 23:43:57 +0000";
layers = (
{
layerId = "5202FA21-D17A-4E33-A53E-97CF8C508FBD";
paths = (
{
closed = 1;
nodes = (
"157 636 OFFCURVE",
"183 620 OFFCURVE",
"217 620 CURVE SMOOTH",
"259 620 OFFCURVE",
"288 648 OFFCURVE",
"288 695 CURVE SMOOTH",
"288 730 OFFCURVE",
"265 747 OFFCURVE",
"230 747 CURVE SMOOTH",
"184 747 OFFCURVE",
"157 717 OFFCURVE",
"157 673 CURVE SMOOTH"
);
}
);
width = 270;
}
);
note = dotaccent;
unicode = 02D9;
},
{
glyphname = ring;
lastChange = "2018-06-23 23:43:57 +0000";
layers = (
{
layerId = "5202FA21-D17A-4E33-A53E-97CF8C508FBD";
paths = (
{
closed = 1;
nodes = (
"494 783 OFFCURVE",
"446 825 OFFCURVE",
"378 825 CURVE SMOOTH",
"311 825 OFFCURVE",
"264 782 OFFCURVE",
"264 715 CURVE SMOOTH",
"264 648 OFFCURVE",
"309 605 OFFCURVE",
"378 605 CURVE SMOOTH",
"447 605 OFFCURVE",
"494 648 OFFCURVE",
"494 716 CURVE SMOOTH"
);
},
{
closed = 1;
nodes = (
"430 683 OFFCURVE",
"409 664 OFFCURVE",
"378 664 CURVE SMOOTH",
"345 664 OFFCURVE",
"327 683 OFFCURVE",
"327 715 CURVE SMOOTH",
"327 748 OFFCURVE",
"349 767 OFFCURVE",
"378 767 CURVE SMOOTH",
"409 767 OFFCURVE",
"430 748 OFFCURVE",
"430 715 CURVE SMOOTH"
);
}
);
width = 577;
}
);
note = ring;
unicode = 02DA;
},
{
glyphname = ogonek;
lastChange = "2018-06-23 23:43:57 +0000";
layers = (
{
layerId = "5202FA21-D17A-4E33-A53E-97CF8C508FBD";
paths = (
{
closed = 1;
nodes = (
"-51 -48 OFFCURVE",
"-78 -88 OFFCURVE",
"-78 -141 CURVE SMOOTH",
"-78 -196 OFFCURVE",
"-39 -228 OFFCURVE",
"20 -228 CURVE SMOOTH",
"43 -228 OFFCURVE",
"66 -225 OFFCURVE",
"87 -218 CURVE",
"87 -149 LINE",
"69 -153 OFFCURVE",
"54 -156 OFFCURVE",
"42 -156 CURVE SMOOTH",
"23 -156 OFFCURVE",
"11 -145 OFFCURVE",
"11 -124 CURVE SMOOTH",
"11 -107 OFFCURVE",
"18 -90 OFFCURVE",
"31 -71 CURVE SMOOTH",
"43 -52 OFFCURVE",
"68 -29 OFFCURVE",
"104 0 CURVE",
"27 0 LINE"
);
}
);
width = 194;
}
);
note = ogonek;
unicode = 02DB;
},
{
glyphname = tilde;
lastChange = "2018-06-23 23:43:57 +0000";
layers = (
{
layerId = "5202FA21-D17A-4E33-A53E-97CF8C508FBD";
paths = (
{
closed = 1;
nodes = (
"479 606 OFFCURVE",
"521 652 OFFCURVE",
"543 745 CURVE",
"476 745 LINE",
"461 706 OFFCURVE",
"447 690 OFFCURVE",
"421 690 CURVE SMOOTH",
"402 690 OFFCURVE",
"383 704 OFFCURVE",
"361 717 CURVE SMOOTH",
"339 730 OFFCURVE",
"314 744 OFFCURVE",
"284 744 CURVE SMOOTH",
"219 744 OFFCURVE",
"178 698 OFFCURVE",
"159 605 CURVE",
"226 605 LINE",
"238 642 OFFCURVE",
"253 659 OFFCURVE",
"278 659 CURVE SMOOTH",
"299 659 OFFCURVE",
"319 646 OFFCURVE",
"341 633 CURVE SMOOTH",
"363 619 OFFCURVE",
"387 606 OFFCURVE",
"416 606 CURVE SMOOTH"
);
}
);
width = 554;
}
);
note = tilde;
unicode = 02DC;
},
{
glyphname = hungarumlaut;
lastChange = "2018-06-23 23:43:57 +0000";
layers = (
{
layerId = "5202FA21-D17A-4E33-A53E-97CF8C508FBD";
paths = (
{
closed = 1;
nodes = (
"229 606 LINE",
"276 638 OFFCURVE",
"369 724 OFFCURVE",
"394 757 CURVE",
"394 766 LINE",
"277 766 LINE",
"257 734 OFFCURVE",
"208 667 OFFCURVE",
"165 618 CURVE",
"165 606 LINE"
);
},
{
closed = 1;
nodes = (
"410 606 LINE",
"457 639 OFFCURVE",
"541 715 OFFCURVE",
"574 757 CURVE",
"574 766 LINE",
"458 766 LINE",
"421 711 OFFCURVE",
"384 662 OFFCURVE",
"345 618 CURVE",
"345 606 LINE"
);
}
);
width = 554;
}
);
note = hungarumlaut;
unicode = 02DD;
},
{
glyphname = tonos;
lastChange = "2018-06-23 23:43:57 +0000";
layers = (
{
anchors = (
{
name = _top;
position = "{352, 540}";
}
);
layerId = "5202FA21-D17A-4E33-A53E-97CF8C508FBD";
paths = (
{
closed = 1;
nodes = (
"359 606 LINE",
"406 662 OFFCURVE",
"461 743 OFFCURVE",
"484 788 CURVE",
"484 801 LINE",
"370 801 LINE",
"347 740 OFFCURVE",
"321 679 OFFCURVE",
"290 620 CURVE",
"290 606 LINE"
);
}
);
width = 558;
}
);
note = tonos;
unicode = 0384;
},
{
glyphname = dieresistonos;
lastChange = "2018-06-23 23:43:57 +0000";
layers = (
{
anchors = (
{
name = _top;
position = "{323, 540}";
}
);
layerId = "5202FA21-D17A-4E33-A53E-97CF8C508FBD";
paths = (
{
closed = 1;
nodes = (
"193 641 OFFCURVE",
"214 626 OFFCURVE",
"243 626 CURVE SMOOTH",
"278 626 OFFCURVE",
"302 651 OFFCURVE",
"302 694 CURVE SMOOTH",
"302 725 OFFCURVE",
"283 740 OFFCURVE",
"254 740 CURVE SMOOTH",
"215 740 OFFCURVE",
"193 713 OFFCURVE",
"193 674 CURVE SMOOTH"
);
},
{
closed = 1;
nodes = (
"426 641 OFFCURVE",
"448 626 OFFCURVE",
"476 626 CURVE SMOOTH",
"511 626 OFFCURVE",
"535 651 OFFCURVE",
"535 694 CURVE SMOOTH",
"535 725 OFFCURVE",
"516 740 OFFCURVE",
"487 740 CURVE SMOOTH",
"449 740 OFFCURVE",
"426 713 OFFCURVE",
"426 674 CURVE SMOOTH"
);
},
{
closed = 1;
nodes = (
"374 678 LINE",
"409 717 LINE SMOOTH",
"453 767 OFFCURVE",
"483 804 OFFCURVE",
"498 828 CURVE",
"498 838 LINE",
"386 838 LINE",
"377 810 OFFCURVE",
"354 761 OFFCURVE",
"320 691 CURVE",
"320 678 LINE"
);
}
);
width = 558;
}
);
note = dieresistonos;
unicode = 0385;
},
{
glyphname = Gamma;
lastChange = "2018-06-23 23:43:57 +0000";
layers = (
{
layerId = "5202FA21-D17A-4E33-A53E-97CF8C508FBD";
paths = (
{
closed = 1;
nodes = (
"542 614 LINE",
"563 714 LINE",
"185 714 LINE",
"34 0 LINE",
"149 0 LINE",
"279 614 LINE"
);
}
);
width = 489;
}
);
note = Gamma;
unicode = 0393;
},
{
glyphname = Theta;
lastChange = "2018-06-23 23:43:57 +0000";
layers = (
{
layerId = "5202FA21-D17A-4E33-A53E-97CF8C508FBD";
paths = (
{
closed = 1;
nodes = (
"253 314 LINE",
"491 314 LINE",
"512 412 LINE",
"273 412 LINE"
);
},
{
closed = 1;
nodes = (
"700 620 OFFCURVE",
"603 725 OFFCURVE",
"437 725 CURVE SMOOTH",
"365 725 OFFCURVE",
"301 706 OFFCURVE",
"245 668 CURVE SMOOTH",
"133 592 OFFCURVE",
"66 441 OFFCURVE",
"66 269 CURVE SMOOTH",
"66 95 OFFCURVE",
"166 -10 OFFCURVE",
"338 -10 CURVE SMOOTH",
"413 -10 OFFCURVE",
"477 9 OFFCURVE",
"532 48 CURVE SMOOTH",
"642 125 OFFCURVE",
"700 270 OFFCURVE",
"700 442 CURVE SMOOTH"
);
},
{
closed = 1;
nodes = (
"522 625 OFFCURVE",
"579 559 OFFCURVE",
"579 446 CURVE SMOOTH",
"579 378 OFFCURVE",
"569 316 OFFCURVE",
"549 261 CURVE SMOOTH",
"508 150 OFFCURVE",
"433 90 OFFCURVE",
"342 90 CURVE SMOOTH",
"245 90 OFFCURVE",
"187 158 OFFCURVE",
"187 268 CURVE SMOOTH",
"187 335 OFFCURVE",
"197 396 OFFCURVE",
"217 451 CURVE SMOOTH",
"258 560 OFFCURVE",
"334 625 OFFCURVE",
"429 625 CURVE SMOOTH"
);
}
);
width = 731;
}
);
note = Theta;
unicode = 0398;
},
{
glyphname = Lambda;
lastChange = "2018-06-23 23:43:57 +0000";
layers = (
{
layerId = "5202FA21-D17A-4E33-A53E-97CF8C508FBD";
paths = (
{
closed = 1;
nodes = (
"208 278 OFFCURVE",
"284 427 OFFCURVE",
"294 446 CURVE SMOOTH",
"313 485 OFFCURVE",
"347 560 OFFCURVE",
"362 598 CURVE",
"363 532 OFFCURVE",
"366 477 OFFCURVE",
"371 432 CURVE SMOOTH",
"413 0 LINE",
"526 0 LINE",
"446 715 LINE",
"319 715 LINE",
"-59 0 LINE",
"65 0 LINE"
);
}
);
width = 579;
}
);
note = Lambda;
unicode = 039B;
},
{
glyphname = Xi;
lastChange = "2018-06-23 23:43:57 +0000";
layers = (
{
layerId = "5202FA21-D17A-4E33-A53E-97CF8C508FBD";
paths = (
{
closed = 1;
nodes = (
"430 323 LINE",
"450 421 LINE",
"131 421 LINE",
"110 323 LINE"
);
},
{
closed = 1;
nodes = (
"531 614 LINE",
"552 714 LINE",
"153 714 LINE",
"132 614 LINE"
);
},
{
closed = 1;
nodes = (
"-17 0 LINE",
"420 0 LINE",
"441 99 LINE",
"3 99 LINE"
);
}
);
width = 519;
}
);
note = Xi;
unicode = 039E;
},
{
glyphname = Pi;
lastChange = "2018-06-23 23:43:57 +0000";
layers = (
{
layerId = "5202FA21-D17A-4E33-A53E-97CF8C508FBD";
paths = (
{
closed = 1;
nodes = (
"185 714 LINE",
"34 0 LINE",
"150 0 LINE",
"280 614 LINE",
"554 614 LINE",
"424 0 LINE",
"541 0 LINE",
"692 714 LINE"
);
}
);
width = 687;
}
);
note = Pi;
unicode = 03A0;
},
{
glyphname = Sigma;
lastChange = "2018-06-23 23:43:57 +0000";
layers = (
{
layerId = "5202FA21-D17A-4E33-A53E-97CF8C508FBD";
paths = (
{
closed = 1;
nodes = (
"467 99 LINE",
"143 99 LINE",
"389 359 LINE",
"247 614 LINE",
"548 614 LINE",
"569 714 LINE",
"138 714 LINE",
"119 623 LINE",
"263 367 LINE",
"1 93 LINE",
"-18 0 LINE",
"446 0 LINE"
);
}
);
width = 532;
}
);
note = Sigma;
unicode = 03A3;
},
{
glyphname = Phi;
lastChange = "2018-06-23 23:43:57 +0000";
layers = (
{
layerId = "5202FA21-D17A-4E33-A53E-97CF8C508FBD";
paths = (
{
closed = 1;
nodes = (
"407 100 LINE",
"479 102 OFFCURVE",
"541 116 OFFCURVE",
"592 142 CURVE SMOOTH",
"695 194 OFFCURVE",
"749 288 OFFCURVE",
"749 409 CURVE SMOOTH",
"749 542 OFFCURVE",
"668 625 OFFCURVE",
"521 636 CURVE",
"539 724 LINE",
"427 724 LINE",
"409 636 LINE",
"192 628 OFFCURVE",
"66 517 OFFCURVE",
"66 330 CURVE SMOOTH",
"66 193 OFFCURVE",
"148 110 OFFCURVE",
"295 99 CURVE",
"271 -10 LINE",
"383 -10 LINE"
);
},
{
closed = 1;
nodes = (
"583 538 OFFCURVE",
"632 488 OFFCURVE",
"632 406 CURVE SMOOTH",
"632 279 OFFCURVE",
"556 201 OFFCURVE",
"427 194 CURVE",
"501 540 LINE"
);
},
{
closed = 1;
nodes = (
"228 197 OFFCURVE",
"183 250 OFFCURVE",
"183 332 CURVE SMOOTH",
"183 458 OFFCURVE",
"261 538 OFFCURVE",
"388 540 CURVE",
"314 194 LINE"
);
}
);
width = 780;
}
);
note = Phi;
unicode = 03A6;
},
{
glyphname = Psi;
lastChange = "2018-06-23 23:43:57 +0000";
layers = (
{
layerId = "5202FA21-D17A-4E33-A53E-97CF8C508FBD";
paths = (
{
closed = 1;
nodes = (
"624 215 OFFCURVE",
"729 294 OFFCURVE",
"765 466 CURVE SMOOTH",
"818 714 LINE",
"701 714 LINE",
"651 478 LINE SMOOTH",
"628 366 OFFCURVE",
"572 312 OFFCURVE",
"461 312 CURVE SMOOTH",
"453 312 LINE",
"538 714 LINE",
"426 714 LINE",
"341 312 LINE",
"333 312 LINE SMOOTH",
"248 312 OFFCURVE",
"207 345 OFFCURVE",
"207 421 CURVE SMOOTH",
"207 438 OFFCURVE",
"210 463 OFFCURVE",
"216 494 CURVE SMOOTH",
"262 714 LINE",
"147 714 LINE",
"103 508 LINE SMOOTH",
"96 469 OFFCURVE",
"92 436 OFFCURVE",
"92 409 CURVE SMOOTH",
"92 288 OFFCURVE",
"173 215 OFFCURVE",
"314 215 CURVE SMOOTH",
"321 215 LINE",
"275 0 LINE",
"387 0 LINE",
"433 215 LINE",
"447 215 LINE SMOOTH"
);
}
);
width = 775;
}
);
note = Psi;
unicode = 03A8;
},
{
glyphname = uni03A9;
lastChange = "2018-06-23 23:43:57 +0000";
layers = (
{
anchors = (
{
name = bottom;
position = "{307, 0}";
},
{
name = topleft;
position = "{104, 714}";
}
);
layerId = "5202FA21-D17A-4E33-A53E-97CF8C508FBD";
paths = (
{
closed = 1;
nodes = (
"519 625 OFFCURVE",
"574 563 OFFCURVE",
"574 452 CURVE SMOOTH",
"574 303 OFFCURVE",
"500 183 OFFCURVE",
"358 99 CURVE",
"337 0 LINE",
"643 0 LINE",
"664 100 LINE",
"486 100 LINE",
"625 182 OFFCURVE",
"694 307 OFFCURVE",
"694 459 CURVE SMOOTH",
"694 512 OFFCURVE",
"684 560 OFFCURVE",
"663 600 CURVE SMOOTH",
"621 681 OFFCURVE",
"539 725 OFFCURVE",
"428 725 CURVE SMOOTH",
"359 725 OFFCURVE",
"298 709 OFFCURVE",
"245 677 CURVE SMOOTH",
"139 613 OFFCURVE",
"75 489 OFFCURVE",
"75 343 CURVE SMOOTH",
"75 241 OFFCURVE",
"110 155 OFFCURVE",
"177 100 CURVE",
"1 100 LINE",
"-19 0 LINE",
"264 0 LINE",
"285 99 LINE",
"221 163 OFFCURVE",
"195 234 OFFCURVE",
"195 338 CURVE SMOOTH",
"195 392 OFFCURVE",
"205 442 OFFCURVE",
"225 487 CURVE SMOOTH",
"264 577 OFFCURVE",
"334 625 OFFCURVE",
"420 625 CURVE SMOOTH"
);
}
);
width = 728;
}
);
note = uni03A9;
unicode = 03A9;
},
{
glyphname = alpha;
lastChange = "2018-06-23 23:43:57 +0000";
layers = (
{
anchors = (
{
name = top;
position = "{351, 540}";
}
);
layerId = "5202FA21-D17A-4E33-A53E-97CF8C508FBD";
paths = (
{
closed = 1;
nodes = (
"255 550 OFFCURVE",
"211 534 OFFCURVE",
"171 502 CURVE SMOOTH",
"93 438 OFFCURVE",
"46 316 OFFCURVE",
"46 179 CURVE SMOOTH",
"46 61 OFFCURVE",
"101 -10 OFFCURVE",
"193 -10 CURVE SMOOTH",
"253 -10 OFFCURVE",
"301 15 OFFCURVE",
"356 81 CURVE",
"359 81 LINE",
"366 21 OFFCURVE",
"400 -10 OFFCURVE",
"463 -10 CURVE SMOOTH",
"490 -10 OFFCURVE",
"513 -5 OFFCURVE",
"533 4 CURVE",
"533 91 LINE",
"521 87 OFFCURVE",
"510 85 OFFCURVE",
"501 85 CURVE SMOOTH",
"482 85 OFFCURVE",
"470 97 OFFCURVE",
"470 119 CURVE SMOOTH",
"470 140 OFFCURVE",
"473 161 OFFCURVE",
"478 183 CURVE SMOOTH",
"517 351 LINE SMOOTH",
"533 416 OFFCURVE",
"556 479 OFFCURVE",
"586 540 CURVE",
"491 540 LINE",
"479 527 OFFCURVE",
"465 508 OFFCURVE",
"452 481 CURVE SMOOTH",
"442 462 LINE",
"438 462 LINE",
"410 521 OFFCURVE",
"366 550 OFFCURVE",
"304 550 CURVE SMOOTH"
);
},
{
closed = 1;
nodes = (
"188 83 OFFCURVE",
"162 117 OFFCURVE",
"162 185 CURVE SMOOTH",
"162 233 OFFCURVE",
"169 278 OFFCURVE",
"184 320 CURVE SMOOTH",
"212 404 OFFCURVE",
"263 456 OFFCURVE",
"319 456 CURVE SMOOTH",
"370 456 OFFCURVE",
"400 417 OFFCURVE",
"400 358 CURVE SMOOTH",
"400 316 OFFCURVE",
"392 273 OFFCURVE",
"377 230 CURVE SMOOTH",
"346 143 OFFCURVE",
"292 83 OFFCURVE",
"238 83 CURVE SMOOTH"
);
}
);
width = 587;
}
);
note = alpha;
unicode = 03B1;
},
{
glyphname = beta;
lastChange = "2018-06-23 23:43:57 +0000";
layers = (
{
layerId = "5202FA21-D17A-4E33-A53E-97CF8C508FBD";
paths = (
{
closed = 1;
nodes = (
"253 765 OFFCURVE",
"172 699 OFFCURVE",
"139 545 CURVE SMOOTH",
"-27 -240 LINE",
"88 -240 LINE",
"146 36 LINE",
"199 0 OFFCURVE",
"242 -10 OFFCURVE",
"295 -10 CURVE SMOOTH",
"345 -10 OFFCURVE",
"389 1 OFFCURVE",
"425 22 CURVE SMOOTH",
"497 64 OFFCURVE",
"537 141 OFFCURVE",
"537 234 CURVE SMOOTH",
"537 320 OFFCURVE",
"492 379 OFFCURVE",
"410 397 CURVE",
"524 420 OFFCURVE",
"581 486 OFFCURVE",
"581 595 CURVE SMOOTH",
"581 702 OFFCURVE",
"508 765 OFFCURVE",
"388 765 CURVE SMOOTH"
);
},
{
closed = 1;
nodes = (
"435 673 OFFCURVE",
"464 637 OFFCURVE",
"464 585 CURVE SMOOTH",
"464 493 OFFCURVE",
"413 442 OFFCURVE",
"321 442 CURVE SMOOTH",
"289 442 LINE",
"269 349 LINE",
"297 349 LINE SMOOTH",
"379 349 OFFCURVE",
"420 311 OFFCURVE",
"420 234 CURVE SMOOTH",
"420 144 OFFCURVE",
"364 83 OFFCURVE",
"278 83 CURVE SMOOTH",
"234 83 OFFCURVE",
"189 98 OFFCURVE",
"164 119 CURVE",
"253 531 LINE SMOOTH",
"276 633 OFFCURVE",
"314 673 OFFCURVE",
"379 673 CURVE SMOOTH"
);
}
);
width = 598;
}
);
note = beta;
unicode = 03B2;
},
{
glyphname = gamma;
lastChange = "2018-06-23 23:43:57 +0000";
layers = (
{
layerId = "5202FA21-D17A-4E33-A53E-97CF8C508FBD";
paths = (
{
closed = 1;
nodes = (
"175 -152 OFFCURVE",
"210 -62 OFFCURVE",
"261 31 CURVE SMOOTH",
"538 540 LINE",
"415 540 LINE",
"277 273 LINE SMOOTH",
"255 233 OFFCURVE",
"217 151 OFFCURVE",
"202 110 CURVE",
"200 110 LINE",
"200 166 OFFCURVE",
"197 220 OFFCURVE",
"191 274 CURVE SMOOTH",
"162 540 LINE",
"49 540 LINE",
"124 6 LINE",
"79 -82 OFFCURVE",
"49 -164 OFFCURVE",
"35 -240 CURVE",
"156 -240 LINE"
);
}
);
width = 485;
}
);
note = gamma;
unicode = 03B3;
},
{
glyphname = delta;
lastChange = "2018-06-23 23:43:57 +0000";
layers = (
{
layerId = "5202FA21-D17A-4E33-A53E-97CF8C508FBD";
paths = (
{
closed = 1;
nodes = (
"116 416 OFFCURVE",
"31 317 OFFCURVE",
"31 181 CURVE SMOOTH",
"31 144 OFFCURVE",
"39 111 OFFCURVE",
"56 82 CURVE SMOOTH",
"89 23 OFFCURVE",
"152 -10 OFFCURVE",
"237 -10 CURVE SMOOTH",
"292 -10 OFFCURVE",
"340 2 OFFCURVE",
"381 25 CURVE SMOOTH",
"464 72 OFFCURVE",
"510 160 OFFCURVE",
"510 271 CURVE SMOOTH",
"510 355 OFFCURVE",
"473 425 OFFCURVE",
"391 491 CURVE SMOOTH",
"354 521 OFFCURVE",
"331 543 OFFCURVE",
"321 557 CURVE SMOOTH",
"311 571 OFFCURVE",
"306 587 OFFCURVE",
"306 604 CURVE SMOOTH",
"306 649 OFFCURVE",
"336 676 OFFCURVE",
"391 676 CURVE SMOOTH",
"443 676 OFFCURVE",
"490 653 OFFCURVE",
"531 627 CURVE",
"576 709 LINE",
"512 750 OFFCURVE",
"454 765 OFFCURVE",
"391 765 CURVE SMOOTH",
"271 765 OFFCURVE",
"194 700 OFFCURVE",
"194 602 CURVE SMOOTH",
"194 549 OFFCURVE",
"221 500 OFFCURVE",
"275 457 CURVE"
);
},
{
closed = 1;
nodes = (
"184 84 OFFCURVE",
"150 125 OFFCURVE",
"150 195 CURVE SMOOTH",
"150 296 OFFCURVE",
"220 374 OFFCURVE",
"331 404 CURVE",
"371 372 OFFCURVE",
"391 327 OFFCURVE",
"391 269 CURVE SMOOTH",
"391 162 OFFCURVE",
"334 84 OFFCURVE",
"250 84 CURVE SMOOTH"
);
}
);
width = 570;
}
);
note = delta;
unicode = 03B4;
},
{
glyphname = epsilon;
lastChange = "2018-06-23 23:43:57 +0000";
layers = (
{
anchors = (
{
name = top;
position = "{297, 540}";
}
);
layerId = "5202FA21-D17A-4E33-A53E-97CF8C508FBD";
paths = (
{
closed = 1;
nodes = (
"301 324 LINE SMOOTH",
"237 324 OFFCURVE",
"205 344 OFFCURVE",
"205 385 CURVE SMOOTH",
"205 432 OFFCURVE",
"243 460 OFFCURVE",
"315 460 CURVE SMOOTH",
"359 460 OFFCURVE",
"404 448 OFFCURVE",
"449 425 CURVE",
"487 511 LINE",
"438 537 OFFCURVE",
"380 550 OFFCURVE",
"311 550 CURVE SMOOTH",
"182 550 OFFCURVE",
"100 491 OFFCURVE",
"100 393 CURVE SMOOTH",
"100 344 OFFCURVE",
"127 306 OFFCURVE",
"178 286 CURVE",
"178 283 LINE",
"76 265 OFFCURVE",
"25 214 OFFCURVE",
"25 130 CURVE SMOOTH",
"25 42 OFFCURVE",
"99 -10 OFFCURVE",
"220 -10 CURVE SMOOTH",
"292 -10 OFFCURVE",
"354 3 OFFCURVE",
"406 30 CURVE",
"406 125 LINE",
"349 96 OFFCURVE",
"293 81 OFFCURVE",
"239 81 CURVE SMOOTH",
"172 81 OFFCURVE",
"143 108 OFFCURVE",
"143 151 CURVE SMOOTH",
"143 208 OFFCURVE",
"194 237 OFFCURVE",
"282 237 CURVE SMOOTH",
"346 237 LINE",
"364 324 LINE"
);
}
);
width = 479;
}
);
note = epsilon;
unicode = 03B5;
},
{
glyphname = zeta;
lastChange = "2018-06-23 23:43:57 +0000";
layers = (
{
layerId = "5202FA21-D17A-4E33-A53E-97CF8C508FBD";
paths = (
{
closed = 1;
nodes = (
"46 104 OFFCURVE",
"87 48 OFFCURVE",
"186 6 CURVE SMOOTH",
"218 -8 OFFCURVE",
"239 -19 OFFCURVE",
"250 -28 CURVE SMOOTH",
"261 -38 OFFCURVE",
"266 -49 OFFCURVE",
"266 -62 CURVE SMOOTH",
"266 -79 OFFCURVE",
"259 -98 OFFCURVE",
"245 -118 CURVE SMOOTH",
"231 -138 OFFCURVE",
"207 -164 OFFCURVE",
"173 -195 CURVE",
"293 -195 LINE",
"359 -134 OFFCURVE",
"380 -91 OFFCURVE",
"380 -42 CURVE SMOOTH",
"380 -21 OFFCURVE",
"376 -2 OFFCURVE",
"368 13 CURVE SMOOTH",
"352 43 OFFCURVE",
"328 64 OFFCURVE",
"256 95 CURVE SMOOTH",
"188 125 OFFCURVE",
"162 157 OFFCURVE",
"162 217 CURVE SMOOTH",
"162 258 OFFCURVE",
"174 300 OFFCURVE",
"198 343 CURVE SMOOTH",
"245 430 OFFCURVE",
"327 519 OFFCURVE",
"526 683 CURVE",
"543 760 LINE",
"191 760 LINE",
"171 670 LINE",
"279 670 LINE SMOOTH",
"319 670 OFFCURVE",
"355 672 OFFCURVE",
"388 676 CURVE",
"297 603 OFFCURVE",
"229 542 OFFCURVE",
"183 492 CURVE SMOOTH",
"91 393 OFFCURVE",
"46 299 OFFCURVE",
"46 201 CURVE SMOOTH"
);
}
);
width = 458;
}
);
note = zeta;
unicode = 03B6;
},
{
glyphname = eta;
lastChange = "2018-06-23 23:43:57 +0000";
layers = (
{
anchors = (
{
name = top;
position = "{353, 540}";
}
);
layerId = "5202FA21-D17A-4E33-A53E-97CF8C508FBD";
paths = (
{
closed = 1;
nodes = (
"525 319 LINE SMOOTH",
"532 355 OFFCURVE",
"536 385 OFFCURVE",
"536 407 CURVE SMOOTH",
"536 499 OFFCURVE",
"486 550 OFFCURVE",
"399 550 CURVE SMOOTH",
"332 550 OFFCURVE",
"276 517 OFFCURVE",
"222 440 CURVE",
"218 440 LINE",
"228 540 LINE",
"138 540 LINE",
"23 0 LINE",
"138 0 LINE",
"186 229 LINE SMOOTH",
"195 273 OFFCURVE",
"209 313 OFFCURVE",
"227 348 CURVE SMOOTH",
"264 418 OFFCURVE",
"311 456 OFFCURVE",
"358 456 CURVE SMOOTH",
"400 456 OFFCURVE",
"421 435 OFFCURVE",
"421 392 CURVE SMOOTH",
"421 379 OFFCURVE",
"418 357 OFFCURVE",
"412 328 CURVE SMOOTH",
"291 -240 LINE",
"406 -240 LINE"
);
}
);
width = 590;
}
);
note = eta;
unicode = 03B7;
},
{
glyphname = theta;
lastChange = "2018-06-23 23:43:57 +0000";
layers = (
{
layerId = "5202FA21-D17A-4E33-A53E-97CF8C508FBD";
paths = (
{
closed = 1;
nodes = (
"322 -10 OFFCURVE",
"397 42 OFFCURVE",
"452 143 CURVE SMOOTH",
"506 245 OFFCURVE",
"546 427 OFFCURVE",
"546 551 CURVE SMOOTH",
"546 697 OFFCURVE",
"488 771 OFFCURVE",
"373 771 CURVE SMOOTH",
"224 771 OFFCURVE",
"132 666 OFFCURVE",
"72 406 CURVE SMOOTH",
"56 334 OFFCURVE",
"48 267 OFFCURVE",
"48 204 CURVE SMOOTH",
"48 64 OFFCURVE",
"108 -10 OFFCURVE",
"224 -10 CURVE SMOOTH"
);
},
{
closed = 1;
nodes = (
"184 79 OFFCURVE",
"161 118 OFFCURVE",
"161 197 CURVE SMOOTH",
"161 239 OFFCURVE",
"166 288 OFFCURVE",
"176 342 CURVE",
"401 342 LINE",
"380 254 OFFCURVE",
"357 188 OFFCURVE",
"331 145 CURVE SMOOTH",
"305 101 OFFCURVE",
"273 79 OFFCURVE",
"235 79 CURVE SMOOTH"
);
},
{
closed = 1;
nodes = (
"409 682 OFFCURVE",
"433 644 OFFCURVE",
"433 567 CURVE SMOOTH",
"433 527 OFFCURVE",
"428 483 OFFCURVE",
"419 433 CURVE",
"196 433 LINE",
"216 518 OFFCURVE",
"240 581 OFFCURVE",
"268 622 CURVE SMOOTH",
"295 662 OFFCURVE",
"326 682 OFFCURVE",
"362 682 CURVE SMOOTH"
);
}
);
width = 564;
}
);
note = theta;
unicode = 03B8;
},
{
glyphname = iota;
lastChange = "2018-06-23 23:43:57 +0000";
layers = (
{
anchors = (
{
name = top;
position = "{226, 540}";
}
);
layerId = "5202FA21-D17A-4E33-A53E-97CF8C508FBD";
paths = (
{
closed = 1;
nodes = (
"182 83 OFFCURVE",
"166 98 OFFCURVE",
"166 129 CURVE SMOOTH",
"166 141 OFFCURVE",
"168 158 OFFCURVE",
"173 180 CURVE SMOOTH",
"249 540 LINE",
"134 540 LINE",
"59 186 LINE SMOOTH",
"52 152 OFFCURVE",
"49 127 OFFCURVE",
"49 111 CURVE SMOOTH",
"49 30 OFFCURVE",
"93 -10 OFFCURVE",
"180 -10 CURVE SMOOTH",
"221 -10 OFFCURVE",
"263 0 OFFCURVE",
"286 11 CURVE",
"286 98 LINE",
"258 88 OFFCURVE",
"234 83 OFFCURVE",
"213 83 CURVE SMOOTH"
);
}
);
width = 336;
}
);
note = iota;
unicode = 03B9;
},
{
glyphname = lambda;
lastChange = "2018-06-23 23:43:57 +0000";
layers = (
{
layerId = "5202FA21-D17A-4E33-A53E-97CF8C508FBD";
paths = (
{
closed = 1;
nodes = (
"72 0 LINE",
"220 268 LINE SMOOTH",
"231 288 OFFCURVE",
"241 309 OFFCURVE",
"250 329 CURVE SMOOTH",
"258 350 OFFCURVE",
"267 370 OFFCURVE",
"275 389 CURVE",
"275 347 OFFCURVE",
"278 307 OFFCURVE",
"283 269 CURVE SMOOTH",
"287 230 OFFCURVE",
"293 176 OFFCURVE",
"301 106 CURVE SMOOTH",
"310 24 OFFCURVE",
"344 -10 OFFCURVE",
"409 -10 CURVE SMOOTH",
"438 -10 OFFCURVE",
"462 -5 OFFCURVE",
"482 3 CURVE",
"482 91 LINE",
"470 87 OFFCURVE",
"459 85 OFFCURVE",
"449 85 CURVE SMOOTH",
"437 85 OFFCURVE",
"427 91 OFFCURVE",
"420 102 CURVE SMOOTH",
"413 113 OFFCURVE",
"407 132 OFFCURVE",
"404 159 CURVE SMOOTH",
"350 602 LINE SMOOTH",
"336 718 OFFCURVE",
"290 766 OFFCURVE",
"190 766 CURVE SMOOTH",
"160 766 OFFCURVE",
"134 763 OFFCURVE",
"110 756 CURVE",
"124 664 LINE",
"138 667 OFFCURVE",
"155 669 OFFCURVE",
"174 669 CURVE SMOOTH",
"218 669 OFFCURVE",
"236 641 OFFCURVE",
"243 580 CURVE SMOOTH",
"250 522 LINE",
"-51 0 LINE"
);
}
);
width = 527;
}
);
note = lambda;
unicode = 03BB;
},
{
glyphname = nu;
lastChange = "2018-06-23 23:43:57 +0000";
layers = (
{
layerId = "5202FA21-D17A-4E33-A53E-97CF8C508FBD";
paths = (
{
closed = 1;
nodes = (
"231 0 LINE",
"391 141 OFFCURVE",
"482 302 OFFCURVE",
"529 540 CURVE",
"413 540 LINE",
"366 329 OFFCURVE",
"304 203 OFFCURVE",
"204 102 CURVE",
"201 163 OFFCURVE",
"198 208 OFFCURVE",
"195 237 CURVE SMOOTH",
"162 540 LINE",
"49 540 LINE",
"116 0 LINE"
);
}
);
width = 519;
}
);
note = nu;
unicode = 03BD;
},
{
glyphname = xi;
lastChange = "2018-06-23 23:43:57 +0000";
layers = (
{
layerId = "5202FA21-D17A-4E33-A53E-97CF8C508FBD";
paths = (
{
closed = 1;
nodes = (
"378 439 LINE SMOOTH",
"292 439 OFFCURVE",
"248 470 OFFCURVE",
"248 531 CURVE SMOOTH",
"248 561 OFFCURVE",
"258 586 OFFCURVE",
"279 608 CURVE SMOOTH",
"319 651 OFFCURVE",
"396 676 OFFCURVE",
"483 676 CURVE SMOOTH",
"490 676 LINE",
"508 760 LINE",
"176 760 LINE",
"157 670 LINE",
"184 670 LINE SMOOTH",
"211 670 OFFCURVE",
"248 672 OFFCURVE",
"293 676 CURVE",
"193 650 OFFCURVE",
"133 592 OFFCURVE",
"133 520 CURVE SMOOTH",
"133 461 OFFCURVE",
"171 420 OFFCURVE",
"236 403 CURVE",
"236 400 LINE",
"109 371 OFFCURVE",
"42 295 OFFCURVE",
"42 188 CURVE SMOOTH",
"42 100 OFFCURVE",
"86 46 OFFCURVE",
"180 7 CURVE SMOOTH",
"214 -7 OFFCURVE",
"236 -19 OFFCURVE",
"246 -28 CURVE SMOOTH",
"256 -37 OFFCURVE",
"261 -48 OFFCURVE",
"261 -62 CURVE SMOOTH",
"261 -78 OFFCURVE",
"255 -96 OFFCURVE",
"243 -114 CURVE SMOOTH",
"231 -132 OFFCURVE",
"207 -159 OFFCURVE",
"169 -194 CURVE",
"290 -194 LINE",
"351 -141 OFFCURVE",
"377 -93 OFFCURVE",
"377 -41 CURVE SMOOTH",
"377 15 OFFCURVE",
"349 53 OFFCURVE",
"256 94 CURVE SMOOTH",
"180 126 OFFCURVE",
"158 153 OFFCURVE",
"158 205 CURVE SMOOTH",
"158 298 OFFCURVE",
"242 355 OFFCURVE",
"371 355 CURVE SMOOTH",
"408 355 LINE",
"426 439 LINE"
);
}
);
width = 454;
}
);
note = xi;
unicode = 03BE;
},
{
glyphname = pi;
lastChange = "2018-06-23 23:43:57 +0000";
layers = (
{
layerId = "5202FA21-D17A-4E33-A53E-97CF8C508FBD";
paths = (
{
closed = 1;
nodes = (
"494 82 OFFCURVE",
"482 93 OFFCURVE",
"482 115 CURVE SMOOTH",
"482 126 OFFCURVE",
"483 139 OFFCURVE",
"487 153 CURVE",
"548 449 LINE",
"657 449 LINE",
"676 540 LINE",
"147 540 LINE",
"51 501 LINE",
"41 449 LINE",
"154 449 LINE",
"57 0 LINE",
"173 0 LINE",
"269 449 LINE",
"433 449 LINE",
"373 157 LINE SMOOTH",
"368 133 OFFCURVE",
"365 111 OFFCURVE",
"365 93 CURVE SMOOTH",
"365 28 OFFCURVE",
"403 -10 OFFCURVE",
"476 -10 CURVE SMOOTH",
"511 -10 OFFCURVE",
"542 -4 OFFCURVE",
"569 8 CURVE",
"569 94 LINE",
"552 86 OFFCURVE",
"535 82 OFFCURVE",
"517 82 CURVE SMOOTH"
);
}
);
width = 657;
}
);
note = pi;
unicode = 03C0;
},
{
glyphname = rho;
lastChange = "2018-06-23 23:43:57 +0000";
layers = (
{
layerId = "5202FA21-D17A-4E33-A53E-97CF8C508FBD";
paths = (
{
closed = 1;
nodes = (
"536 473 OFFCURVE",
"465 550 OFFCURVE",
"340 550 CURVE SMOOTH",
"203 550 OFFCURVE",
"125 478 OFFCURVE",
"88 303 CURVE SMOOTH",
"-27 -240 LINE",
"87 -240 LINE",
"114 -112 OFFCURVE",
"129 -38 OFFCURVE",
"133 -16 CURVE SMOOTH",
"136 5 OFFCURVE",
"140 28 OFFCURVE",
"143 51 CURVE",
"181 10 OFFCURVE",
"226 -10 OFFCURVE",
"280 -10 CURVE SMOOTH",
"329 -10 OFFCURVE",
"374 5 OFFCURVE",
"412 34 CURVE SMOOTH",
"489 93 OFFCURVE",
"536 208 OFFCURVE",
"536 338 CURVE SMOOTH"
);
},
{
closed = 1;
nodes = (
"393 456 OFFCURVE",
"420 412 OFFCURVE",
"420 340 CURVE SMOOTH",
"420 296 OFFCURVE",
"413 253 OFFCURVE",
"398 211 CURVE SMOOTH",
"369 127 OFFCURVE",
"322 83 OFFCURVE",
"266 83 CURVE SMOOTH",
"226 83 OFFCURVE",
"193 99 OFFCURVE",
"167 132 CURVE",
"201 289 LINE SMOOTH",
"226 408 OFFCURVE",
"265 456 OFFCURVE",
"333 456 CURVE SMOOTH"
);
}
);
width = 583;
}
);
note = rho;
unicode = 03C1;
},
{
glyphname = sigma1;
lastChange = "2018-06-23 23:43:57 +0000";
layers = (
{
layerId = "5202FA21-D17A-4E33-A53E-97CF8C508FBD";
paths = (
{
closed = 1;
nodes = (
"162 267 OFFCURVE",
"170 306 OFFCURVE",
"187 343 CURVE SMOOTH",
"219 417 OFFCURVE",
"271 456 OFFCURVE",
"332 456 CURVE SMOOTH",
"365 456 OFFCURVE",
"401 447 OFFCURVE",
"441 430 CURVE",
"475 520 LINE",
"431 540 OFFCURVE",
"383 550 OFFCURVE",
"332 550 CURVE SMOOTH",
"279 550 OFFCURVE",
"231 536 OFFCURVE",
"188 508 CURVE SMOOTH",
"102 453 OFFCURVE",
"46 336 OFFCURVE",
"46 212 CURVE SMOOTH",
"46 115 OFFCURVE",
"87 48 OFFCURVE",
"189 6 CURVE SMOOTH",
"219 -6 OFFCURVE",
"239 -17 OFFCURVE",
"250 -26 CURVE SMOOTH",
"260 -35 OFFCURVE",
"265 -47 OFFCURVE",
"265 -62 CURVE SMOOTH",
"265 -103 OFFCURVE",
"229 -145 OFFCURVE",
"173 -198 CURVE",
"294 -198 LINE",
"356 -141 OFFCURVE",
"381 -94 OFFCURVE",
"381 -43 CURVE SMOOTH",
"381 16 OFFCURVE",
"353 54 OFFCURVE",
"262 92 CURVE SMOOTH",
"186 125 OFFCURVE",
"162 160 OFFCURVE",
"162 226 CURVE SMOOTH"
);
}
);
width = 458;
}
);
note = sigma1;
unicode = 03C2;
},
{
glyphname = sigma;
lastChange = "2018-06-23 23:43:57 +0000";
layers = (
{
layerId = "5202FA21-D17A-4E33-A53E-97CF8C508FBD";
paths = (
{
closed = 1;
nodes = (
"517 353 OFFCURVE",
"502 406 OFFCURVE",
"471 450 CURVE",
"606 450 LINE",
"624 540 LINE",
"361 540 LINE SMOOTH",
"295 540 OFFCURVE",
"238 527 OFFCURVE",
"191 500 CURVE SMOOTH",
"96 447 OFFCURVE",
"46 345 OFFCURVE",
"46 210 CURVE SMOOTH",
"46 70 OFFCURVE",
"119 -9 OFFCURVE",
"250 -9 CURVE SMOOTH",
"329 -9 OFFCURVE",
"395 21 OFFCURVE",
"442 76 CURVE SMOOTH",
"489 130 OFFCURVE",
"517 214 OFFCURVE",
"517 290 CURVE SMOOTH"
);
},
{
closed = 1;
nodes = (
"396 415 OFFCURVE",
"405 373 OFFCURVE",
"405 323 CURVE SMOOTH",
"405 179 OFFCURVE",
"348 85 OFFCURVE",
"258 85 CURVE SMOOTH",
"194 85 OFFCURVE",
"162 127 OFFCURVE",
"162 212 CURVE SMOOTH",
"162 360 OFFCURVE",
"232 450 OFFCURVE",
"353 450 CURVE SMOOTH",
"377 450 LINE"
);
}
);
width = 599;
}
);
note = sigma;
unicode = 03C3;
},
{
glyphname = tau;
lastChange = "2018-06-23 23:43:57 +0000";
layers = (
{
layerId = "5202FA21-D17A-4E33-A53E-97CF8C508FBD";
paths = (
{
closed = 1;
nodes = (
"253 83 OFFCURVE",
"237 101 OFFCURVE",
"237 129 CURVE SMOOTH",
"237 144 OFFCURVE",
"240 162 OFFCURVE",
"245 184 CURVE SMOOTH",
"301 449 LINE",
"464 449 LINE",
"483 540 LINE",
"146 540 LINE",
"51 501 LINE",
"41 449 LINE",
"186 449 LINE",
"131 186 LINE SMOOTH",
"125 156 OFFCURVE",
"121 131 OFFCURVE",
"121 111 CURVE SMOOTH",
"121 30 OFFCURVE",
"166 -10 OFFCURVE",
"255 -10 CURVE SMOOTH",
"294 -10 OFFCURVE",
"337 0 OFFCURVE",
"360 11 CURVE",
"360 98 LINE",
"333 88 OFFCURVE",
"308 83 OFFCURVE",
"286 83 CURVE SMOOTH"
);
}
);
width = 458;
}
);
note = tau;
unicode = 03C4;
},
{
glyphname = upsilon;
lastChange = "2018-06-23 23:43:57 +0000";
layers = (
{
anchors = (
{
name = top;
position = "{356, 540}";
}
);
layerId = "5202FA21-D17A-4E33-A53E-97CF8C508FBD";
paths = (
{
closed = 1;
nodes = (
"454 -10 OFFCURVE",
"554 158 OFFCURVE",
"554 540 CURVE",
"439 540 LINE",
"439 390 OFFCURVE",
"424 276 OFFCURVE",
"395 199 CURVE SMOOTH",
"365 122 OFFCURVE",
"321 83 OFFCURVE",
"263 83 CURVE SMOOTH",
"205 83 OFFCURVE",
"176 114 OFFCURVE",
"176 177 CURVE SMOOTH",
"176 200 OFFCURVE",
"180 229 OFFCURVE",
"187 262 CURVE SMOOTH",
"246 540 LINE",
"132 540 LINE",
"73 262 LINE SMOOTH",
"65 224 OFFCURVE",
"61 193 OFFCURVE",
"61 170 CURVE SMOOTH",
"61 55 OFFCURVE",
"129 -10 OFFCURVE",
"254 -10 CURVE SMOOTH"
);
}
);
width = 596;
}
);
note = upsilon;
unicode = 03C5;
},
{
glyphname = phi;
lastChange = "2018-06-23 23:43:57 +0000";
layers = (
{
layerId = "5202FA21-D17A-4E33-A53E-97CF8C508FBD";
paths = (
{
closed = 1;
nodes = (
"298 -240 LINE",
"346 -10 LINE",
"413 -6 OFFCURVE",
"470 12 OFFCURVE",
"519 43 CURVE SMOOTH",
"617 105 OFFCURVE",
"671 219 OFFCURVE",
"671 356 CURVE SMOOTH",
"671 479 OFFCURVE",
"610 550 OFFCURVE",
"506 550 CURVE SMOOTH",
"469 550 OFFCURVE",
"438 542 OFFCURVE",
"413 527 CURVE SMOOTH",
"362 498 OFFCURVE",
"331 442 OFFCURVE",
"307 327 CURVE SMOOTH",
"256 84 LINE",
"193 95 OFFCURVE",
"161 140 OFFCURVE",
"161 220 CURVE SMOOTH",
"161 316 OFFCURVE",
"201 397 OFFCURVE",
"289 485 CURVE",
"216 552 LINE",
"95 444 OFFCURVE",
"46 344 OFFCURVE",
"46 213 CURVE SMOOTH",
"46 90 OFFCURVE",
"118 7 OFFCURVE",
"237 -7 CURVE",
"187 -240 LINE"
);
},
{
closed = 1;
nodes = (
"555 313 OFFCURVE",
"548 268 OFFCURVE",
"533 228 CURVE SMOOTH",
"502 146 OFFCURVE",
"445 94 OFFCURVE",
"366 84 CURVE",
"426 360 LINE SMOOTH",
"441 430 OFFCURVE",
"462 460 OFFCURVE",
"501 460 CURVE SMOOTH",
"537 460 OFFCURVE",
"555 427 OFFCURVE",
"555 361 CURVE SMOOTH"
);
}
);
width = 717;
}
);
note = phi;
unicode = 03C6;
},
{
glyphname = chi;
lastChange = "2018-06-23 23:43:57 +0000";
layers = (
{
layerId = "5202FA21-D17A-4E33-A53E-97CF8C508FBD";
paths = (
{
closed = 1;
nodes = (
"106 546 OFFCURVE",
"79 541 OFFCURVE",
"53 530 CURVE",
"73 442 LINE",
"88 447 OFFCURVE",
"99 449 OFFCURVE",
"107 449 CURVE SMOOTH",
"136 449 OFFCURVE",
"150 431 OFFCURVE",
"157 380 CURVE SMOOTH",
"185 181 LINE",
"-120 -240 LINE",
"7 -240 LINE",
"212 60 LINE",
"233 -99 LINE SMOOTH",
"246 -199 OFFCURVE",
"284 -240 OFFCURVE",
"359 -240 CURVE SMOOTH",
"387 -240 OFFCURVE",
"413 -236 OFFCURVE",
"438 -227 CURVE",
"438 -138 LINE",
"423 -143 OFFCURVE",
"409 -145 OFFCURVE",
"394 -145 CURVE SMOOTH",
"357 -145 OFFCURVE",
"343 -125 OFFCURVE",
"336 -76 CURVE SMOOTH",
"302 158 LINE",
"576 540 LINE",
"452 540 LINE",
"274 280 LINE",
"257 410 LINE SMOOTH",
"245 506 OFFCURVE",
"208 546 OFFCURVE",
"135 546 CURVE SMOOTH"
);
}
);
width = 527;
}
);
note = chi;
unicode = 03C7;
},
{
glyphname = psi;
lastChange = "2018-06-23 23:43:57 +0000";
layers = (
{
layerId = "5202FA21-D17A-4E33-A53E-97CF8C508FBD";
paths = (
{
closed = 1;
nodes = (
"425 759 LINE",
"282 81 LINE",
"216 85 OFFCURVE",
"179 123 OFFCURVE",
"179 189 CURVE SMOOTH",
"179 209 OFFCURVE",
"182 235 OFFCURVE",
"188 265 CURVE SMOOTH",
"246 540 LINE",
"132 540 LINE",
"69 240 LINE",
"65 219 OFFCURVE",
"64 199 OFFCURVE",
"64 179 CURVE SMOOTH",
"64 68 OFFCURVE",
"132 1 OFFCURVE",
"262 -10 CURVE",
"213 -240 LINE",
"324 -240 LINE",
"373 -10 LINE",
"453 -3 OFFCURVE",
"518 19 OFFCURVE",
"569 58 CURVE SMOOTH",
"671 135 OFFCURVE",
"719 280 OFFCURVE",
"719 540 CURVE",
"604 540 LINE",
"604 235 OFFCURVE",
"539 101 OFFCURVE",
"393 83 CURVE",
"536 759 LINE"
);
}
);
width = 761;
}
);
note = psi;
unicode = 03C8;
},
{
glyphname = omega;
lastChange = "2018-06-23 23:43:57 +0000";
layers = (
{
anchors = (
{
name = bottom;
position = "{330, 0}";
},
{
name = top;
position = "{445, 540}";
}
);
layerId = "5202FA21-D17A-4E33-A53E-97CF8C508FBD";
paths = (
{
closed = 1;
nodes = (
"265 -10 OFFCURVE",
"312 17 OFFCURVE",
"352 82 CURVE",
"370 21 OFFCURVE",
"411 -10 OFFCURVE",
"476 -10 CURVE SMOOTH",
"526 -10 OFFCURVE",
"570 6 OFFCURVE",
"607 39 CURVE SMOOTH",
"683 103 OFFCURVE",
"729 238 OFFCURVE",
"729 398 CURVE SMOOTH",
"729 446 OFFCURVE",
"724 494 OFFCURVE",
"714 540 CURVE",
"604 540 LINE",
"613 494 OFFCURVE",
"618 444 OFFCURVE",
"618 391 CURVE SMOOTH",
"618 335 OFFCURVE",
"612 283 OFFCURVE",
"600 234 CURVE SMOOTH",
"574 136 OFFCURVE",
"530 82 OFFCURVE",
"477 82 CURVE SMOOTH",
"439 82 OFFCURVE",
"421 105 OFFCURVE",
"421 151 CURVE",
"419 159 OFFCURVE",
"422 180 OFFCURVE",
"430 214 CURVE SMOOTH",
"437 248 OFFCURVE",
"447 295 OFFCURVE",
"460 356 CURVE",
"350 356 LINE",
"319 209 LINE SMOOTH",
"301 127 OFFCURVE",
"272 82 OFFCURVE",
"221 82 CURVE SMOOTH",
"179 82 OFFCURVE",
"158 115 OFFCURVE",
"158 180 CURVE SMOOTH",
"158 292 OFFCURVE",
"205 417 OFFCURVE",
"287 540 CURVE",
"170 540 LINE",
"90 420 OFFCURVE",
"46 292 OFFCURVE",
"46 177 CURVE SMOOTH",
"46 58 OFFCURVE",
"104 -10 OFFCURVE",
"199 -10 CURVE SMOOTH"
);
}
);
width = 775;
}
);
note = omega;
unicode = 03C9;
},
{
glyphname = afii10051;
lastChange = "2018-06-23 23:43:57 +0000";
layers = (
{
layerId = "5202FA21-D17A-4E33-A53E-97CF8C508FBD";
paths = (
{
closed = 1;
nodes = (
"480 -10 OFFCURVE",
"523 3 OFFCURVE",
"554 30 CURVE SMOOTH",
"614 83 OFFCURVE",
"636 228 OFFCURVE",
"636 290 CURVE SMOOTH",
"636 387 OFFCURVE",
"575 445 OFFCURVE",
"453 445 CURVE SMOOTH",
"331 445 LINE",
"367 614 LINE",
"551 614 LINE",
"572 714 LINE",
"108 714 LINE",
"86 614 LINE",
"251 614 LINE",
"120 0 LINE",
"237 0 LINE",
"310 345 LINE",
"435 345 LINE SMOOTH",
"496 345 OFFCURVE",
"519 321 OFFCURVE",
"519 275 CURVE SMOOTH",
"519 268 OFFCURVE",
"519 258 OFFCURVE",
"518 248 CURVE SMOOTH",
"517 237 OFFCURVE",
"513 216 OFFCURVE",
"506 183 CURVE SMOOTH",
"492 117 OFFCURVE",
"465 89 OFFCURVE",
"410 89 CURVE SMOOTH",
"386 89 OFFCURVE",
"363 94 OFFCURVE",
"343 103 CURVE",
"343 4 LINE",
"365 -5 OFFCURVE",
"392 -10 OFFCURVE",
"424 -10 CURVE SMOOTH"
);
}
);
width = 704;
}
);
note = afii10051;
unicode = 0402;
},
{
glyphname = afii10053;
lastChange = "2018-06-23 23:43:57 +0000";
layers = (
{
layerId = "5202FA21-D17A-4E33-A53E-97CF8C508FBD";
paths = (
{
closed = 1;
nodes = (
"498 624 OFFCURVE",
"546 611 OFFCURVE",
"595 584 CURVE",
"641 679 LINE",
"584 709 OFFCURVE",
"521 724 OFFCURVE",
"451 724 CURVE SMOOTH",
"377 724 OFFCURVE",
"312 705 OFFCURVE",
"255 667 CURVE SMOOTH",
"140 592 OFFCURVE",
"66 436 OFFCURVE",
"66 266 CURVE SMOOTH",
"66 92 OFFCURVE",
"159 -10 OFFCURVE",
"324 -10 CURVE SMOOTH",
"397 -10 OFFCURVE",
"450 1 OFFCURVE",
"507 23 CURVE",
"507 123 LINE",
"446 101 OFFCURVE",
"392 90 OFFCURVE",
"346 90 CURVE SMOOTH",
"241 90 OFFCURVE",
"187 152 OFFCURVE",
"187 266 CURVE SMOOTH",
"187 291 OFFCURVE",
"188 308 OFFCURVE",
"190 318 CURVE",
"471 318 LINE",
"491 417 LINE",
"209 417 LINE",
"250 548 OFFCURVE",
"338 624 OFFCURVE",
"451 624 CURVE SMOOTH"
);
}
);
width = 598;
}
);
note = afii10053;
unicode = 0404;
},
{
glyphname = afii10058;
lastChange = "2018-06-23 23:43:57 +0000";
layers = (
{
layerId = "5202FA21-D17A-4E33-A53E-97CF8C508FBD";
paths = (
{
closed = 1;
nodes = (
"392 0 LINE",
"578 0 LINE SMOOTH",
"764 0 OFFCURVE",
"868 86 OFFCURVE",
"868 240 CURVE SMOOTH",
"868 361 OFFCURVE",
"788 424 OFFCURVE",
"641 424 CURVE SMOOTH",
"598 424 LINE",
"659 714 LINE",
"290 714 LINE",
"267 626 OFFCURVE",
"244 542 OFFCURVE",
"221 461 CURVE SMOOTH",
"175 299 OFFCURVE",
"142 202 OFFCURVE",
"115 155 CURVE SMOOTH",
"87 108 OFFCURVE",
"63 89 OFFCURVE",
"18 89 CURVE SMOOTH",
"5 89 OFFCURVE",
"-11 92 OFFCURVE",
"-31 99 CURVE",
"-31 1 LINE",
"-12 -6 OFFCURVE",
"10 -10 OFFCURVE",
"34 -10 CURVE SMOOTH",
"132 -10 OFFCURVE",
"190 34 OFFCURVE",
"241 159 CURVE SMOOTH",
"267 221 OFFCURVE",
"302 336 OFFCURVE",
"348 503 CURVE SMOOTH",
"377 613 LINE",
"521 613 LINE"
);
},
{
closed = 1;
nodes = (
"577 326 LINE",
"638 326 LINE SMOOTH",
"712 326 OFFCURVE",
"749 295 OFFCURVE",
"749 233 CURVE SMOOTH",
"749 143 OFFCURVE",
"696 97 OFFCURVE",
"594 97 CURVE SMOOTH",
"528 97 LINE"
);
}
);
width = 923;
}
);
note = afii10058;
unicode = 0409;
},
{
glyphname = afii10059;
lastChange = "2018-06-23 23:43:57 +0000";
layers = (
{
layerId = "5202FA21-D17A-4E33-A53E-97CF8C508FBD";
paths = (
{
closed = 1;
nodes = (
"240 425 LINE",
"301 714 LINE",
"185 714 LINE",
"34 0 LINE",
"150 0 LINE",
"219 326 LINE",
"457 326 LINE",
"388 0 LINE",
"577 0 LINE SMOOTH",
"761 0 OFFCURVE",
"864 85 OFFCURVE",
"864 241 CURVE SMOOTH",
"864 362 OFFCURVE",
"788 425 OFFCURVE",
"642 425 CURVE SMOOTH",
"594 425 LINE",
"655 714 LINE",
"539 714 LINE",
"477 425 LINE"
);
},
{
closed = 1;
nodes = (
"574 326 LINE",
"635 326 LINE SMOOTH",
"709 326 OFFCURVE",
"746 295 OFFCURVE",
"746 232 CURVE SMOOTH",
"746 144 OFFCURVE",
"693 97 OFFCURVE",
"592 97 CURVE SMOOTH",
"525 97 LINE"
);
}
);
width = 920;
}
);
note = afii10059;
unicode = 040A;
},
{
glyphname = afii10060;
lastChange = "2018-06-23 23:43:57 +0000";
layers = (
{
layerId = "5202FA21-D17A-4E33-A53E-97CF8C508FBD";
paths = (
{
closed = 1;
nodes = (
"519 260 OFFCURVE",
"517 240 OFFCURVE",
"512 216 CURVE",
"465 0 LINE",
"583 0 LINE",
"624 202 LINE SMOOTH",
"631 236 OFFCURVE",
"635 264 OFFCURVE",
"635 286 CURVE SMOOTH",
"635 392 OFFCURVE",
"574 445 OFFCURVE",
"453 445 CURVE SMOOTH",
"331 445 LINE",
"367 614 LINE",
"551 614 LINE",
"572 714 LINE",
"108 714 LINE",
"86 614 LINE",
"251 614 LINE",
"120 0 LINE",
"237 0 LINE",
"310 345 LINE",
"431 345 LINE SMOOTH",
"492 345 OFFCURVE",
"519 323 OFFCURVE",
"519 274 CURVE SMOOTH"
);
}
);
width = 704;
}
);
note = afii10060;
unicode = 040B;
},
{
glyphname = afii10145;
lastChange = "2018-06-23 23:43:57 +0000";
layers = (
{
layerId = "5202FA21-D17A-4E33-A53E-97CF8C508FBD";
paths = (
{
closed = 1;
nodes = (
"231 0 LINE",
"189 -197 LINE",
"302 -197 LINE",
"344 0 LINE",
"541 0 LINE",
"692 714 LINE",
"576 714 LINE",
"446 100 LINE",
"172 100 LINE",
"302 714 LINE",
"185 714 LINE",
"34 0 LINE"
);
}
);
width = 687;
}
);
note = afii10145;
unicode = 040F;
},
{
glyphname = afii10018;
lastChange = "2018-06-23 23:43:57 +0000";
layers = (
{
layerId = "5202FA21-D17A-4E33-A53E-97CF8C508FBD";
paths = (
{
closed = 1;
nodes = (
"280 614 LINE",
"544 614 LINE",
"565 714 LINE",
"186 714 LINE",
"35 0 LINE",
"230 0 LINE SMOOTH",
"416 0 OFFCURVE",
"520 84 OFFCURVE",
"520 237 CURVE SMOOTH",
"520 360 OFFCURVE",
"443 424 OFFCURVE",
"293 424 CURVE SMOOTH",
"240 424 LINE"
);
},
{
closed = 1;
nodes = (
"219 326 LINE",
"291 326 LINE SMOOTH",
"365 326 OFFCURVE",
"402 294 OFFCURVE",
"402 230 CURVE SMOOTH",
"402 144 OFFCURVE",
"348 97 OFFCURVE",
"242 97 CURVE SMOOTH",
"170 97 LINE"
);
}
);
width = 578;
}
);
note = afii10018;
unicode = 0411;
},
{
glyphname = afii10021;
lastChange = "2018-06-23 23:43:57 +0000";
layers = (
{
layerId = "5202FA21-D17A-4E33-A53E-97CF8C508FBD";
paths = (
{
closed = 1;
nodes = (
"612 100 LINE",
"521 100 LINE",
"651 714 LINE",
"323 714 LINE",
"260 502 OFFCURVE",
"148 268 OFFCURVE",
"29 100 CURVE",
"-27 100 LINE",
"-89 -196 LINE",
"22 -196 LINE",
"64 0 LINE",
"477 0 LINE",
"435 -196 LINE",
"549 -196 LINE"
);
},
{
closed = 1;
nodes = (
"159 100 LINE",
"252 239 OFFCURVE",
"350 454 OFFCURVE",
"402 613 CURVE",
"512 613 LINE",
"402 100 LINE"
);
}
);
width = 670;
}
);
note = afii10021;
unicode = 0414;
},
{
glyphname = afii10024;
lastChange = "2018-06-23 23:43:57 +0000";
layers = (
{
anchors = (
{
name = bottomright;
position = "{753, 0}";
},
{
name = top;
position = "{505, 714}";
}
);
layerId = "5202FA21-D17A-4E33-A53E-97CF8C508FBD";
paths = (
{
closed = 1;
nodes = (
"79 0 LINE",
"373 353 LINE",
"299 0 LINE",
"411 0 LINE",
"485 354 LINE",
"641 0 LINE",
"764 0 LINE",
"601 358 LINE",
"907 714 LINE",
"777 714 LINE",
"490 376 LINE",
"562 714 LINE",
"450 714 LINE",
"378 376 LINE",
"225 714 LINE",
"106 714 LINE",
"263 378 LINE",
"-55 0 LINE"
);
}
);
width = 821;
}
);
note = afii10024;
unicode = 0416;
},
{
glyphname = afii10025;
lastChange = "2018-06-23 23:43:57 +0000";
layers = (
{
anchors = (
{
name = bottom;
position = "{225, 0}";
},
{
name = top;
position = "{376, 714}";
}
);
layerId = "5202FA21-D17A-4E33-A53E-97CF8C508FBD";
paths = (
{
closed = 1;
nodes = (
"552 660 OFFCURVE",
"474 724 OFFCURVE",
"356 724 CURVE SMOOTH",
"266 724 OFFCURVE",
"193 704 OFFCURVE",
"112 651 CURVE",
"156 570 LINE",
"216 609 OFFCURVE",
"274 629 OFFCURVE",
"330 629 CURVE SMOOTH",
"395 629 OFFCURVE",
"432 600 OFFCURVE",
"432 541 CURVE SMOOTH",
"432 463 OFFCURVE",
"364 416 OFFCURVE",
"240 416 CURVE SMOOTH",
"160 416 LINE",
"140 323 LINE",
"227 323 LINE SMOOTH",
"327 323 OFFCURVE",
"384 292 OFFCURVE",
"384 218 CURVE SMOOTH",
"384 134 OFFCURVE",
"318 84 OFFCURVE",
"205 84 CURVE SMOOTH",
"134 84 OFFCURVE",
"63 103 OFFCURVE",
"8 133 CURVE",
"8 29 LINE",
"61 2 OFFCURVE",
"121 -10 OFFCURVE",
"207 -10 CURVE SMOOTH",
"392 -10 OFFCURVE",
"504 74 OFFCURVE",
"504 213 CURVE SMOOTH",
"504 299 OFFCURVE",
"449 357 OFFCURVE",
"360 369 CURVE",
"360 371 LINE",
"480 387 OFFCURVE",
"552 458 OFFCURVE",
"552 562 CURVE SMOOTH"
);
}
);
width = 564;
}
);
note = afii10025;
unicode = 0417;
},
{
glyphname = afii10026;
lastChange = "2018-06-23 23:43:57 +0000";
layers = (
{
anchors = (
{
name = bottomright;
position = "{659, 0}";
},
{
name = top;
position = "{458, 714}";
}
);
layerId = "5202FA21-D17A-4E33-A53E-97CF8C508FBD";
paths = (
{
closed = 1;
nodes = (
"174 0 LINE",
"591 561 LINE",
"594 561 LINE",
"590 552 OFFCURVE",
"578 500 OFFCURVE",
"558 404 CURVE SMOOTH",
"538 308 OFFCURVE",
"510 173 OFFCURVE",
"473 0 CURVE",
"580 0 LINE",
"731 714 LINE",
"592 714 LINE",
"176 163 LINE",
"172 163 LINE",
"176 178 OFFCURVE",
"183 203 OFFCURVE",
"191 239 CURVE SMOOTH",
"199 274 OFFCURVE",
"233 433 OFFCURVE",
"293 714 CURVE",
"185 714 LINE",
"34 0 LINE"
);
}
);
width = 726;
}
);
note = afii10026;
unicode = 0418;
},
{
glyphname = afii10028;
lastChange = "2018-06-23 23:43:57 +0000";
layers = (
{
anchors = (
{
name = bottomright;
position = "{510, 0}";
},
{
name = top;
position = "{383, 714}";
}
);
layerId = "5202FA21-D17A-4E33-A53E-97CF8C508FBD";
paths = (
{
closed = 1;
nodes = (
"668 714 LINE",
"532 714 LINE",
"228 373 LINE",
"301 714 LINE",
"185 714 LINE",
"34 0 LINE",
"150 0 LINE",
"224 352 LINE",
"403 0 LINE",
"533 0 LINE",
"346 359 LINE"
);
}
);
width = 577;
}
);
note = afii10028;
unicode = 041A;
},
{
glyphname = afii10029;
lastChange = "2018-06-23 23:43:57 +0000";
layers = (
{
layerId = "5202FA21-D17A-4E33-A53E-97CF8C508FBD";
paths = (
{
closed = 1;
nodes = (
"406 0 LINE",
"522 0 LINE",
"674 714 LINE",
"290 714 LINE",
"267 626 OFFCURVE",
"244 542 OFFCURVE",
"221 461 CURVE SMOOTH",
"175 299 OFFCURVE",
"142 202 OFFCURVE",
"115 155 CURVE SMOOTH",
"87 108 OFFCURVE",
"63 89 OFFCURVE",
"18 89 CURVE SMOOTH",
"3 89 OFFCURVE",
"-13 92 OFFCURVE",
"-31 99 CURVE",
"-31 1 LINE",
"-14 -7 OFFCURVE",
"8 -11 OFFCURVE",
"34 -11 CURVE SMOOTH",
"149 -11 OFFCURVE",
"206 47 OFFCURVE",
"266 226 CURVE SMOOTH",
"296 314 OFFCURVE",
"333 443 OFFCURVE",
"377 613 CURVE",
"537 613 LINE"
);
}
);
width = 669;
}
);
note = afii10029;
unicode = 041B;
},
{
glyphname = afii10037;
lastChange = "2018-06-23 23:43:57 +0000";
layers = (
{
anchors = (
{
name = top;
position = "{387, 714}";
}
);
layerId = "5202FA21-D17A-4E33-A53E-97CF8C508FBD";
paths = (
{
closed = 1;
nodes = (
"135 -10 OFFCURVE",
"167 -4 OFFCURVE",
"194 8 CURVE SMOOTH",
"250 32 OFFCURVE",
"293 77 OFFCURVE",
"363 193 CURVE SMOOTH",
"677 714 LINE",
"548 714 LINE",
"365 392 LINE SMOOTH",
"350 366 OFFCURVE",
"334 333 OFFCURVE",
"318 295 CURVE",
"314 315 OFFCURVE",
"307 351 OFFCURVE",
"294 403 CURVE SMOOTH",
"213 714 LINE",
"96 714 LINE",
"241 205 LINE",
"188 118 OFFCURVE",
"150 92 OFFCURVE",
"95 92 CURVE SMOOTH",
"63 92 OFFCURVE",
"33 98 OFFCURVE",
"6 111 CURVE",
"6 5 LINE",
"32 -5 OFFCURVE",
"63 -10 OFFCURVE",
"98 -10 CURVE SMOOTH"
);
}
);
width = 585;
}
);
note = afii10037;
unicode = 0423;
},
{
glyphname = afii10040;
lastChange = "2018-06-23 23:43:57 +0000";
layers = (
{
layerId = "5202FA21-D17A-4E33-A53E-97CF8C508FBD";
paths = (
{
closed = 1;
nodes = (
"684 714 LINE",
"568 714 LINE",
"438 100 LINE",
"171 100 LINE",
"301 714 LINE",
"184 714 LINE",
"33 0 LINE",
"510 0 LINE",
"468 -197 LINE",
"582 -197 LINE",
"645 98 LINE",
"553 98 LINE"
);
}
);
width = 699;
}
);
note = afii10040;
unicode = 0426;
},
{
glyphname = afii10041;
lastChange = "2018-06-23 23:43:57 +0000";
layers = (
{
anchors = (
{
name = bottomright;
position = "{588, 0}";
},
{
name = top;
position = "{422, 714}";
}
);
layerId = "5202FA21-D17A-4E33-A53E-97CF8C508FBD";
paths = (
{
closed = 1;
nodes = (
"661 714 LINE",
"544 714 LINE",
"474 378 LINE",
"412 353 OFFCURVE",
"356 341 OFFCURVE",
"306 341 CURVE SMOOTH",
"251 341 OFFCURVE",
"224 364 OFFCURVE",
"224 411 CURVE SMOOTH",
"224 425 OFFCURVE",
"227 443 OFFCURVE",
"232 465 CURVE SMOOTH",
"284 714 LINE",
"168 714 LINE",
"114 456 LINE SMOOTH",
"108 430 OFFCURVE",
"106 407 OFFCURVE",
"106 387 CURVE SMOOTH",
"106 295 OFFCURVE",
"166 241 OFFCURVE",
"271 241 CURVE SMOOTH",
"331 241 OFFCURVE",
"392 255 OFFCURVE",
"453 283 CURVE",
"393 0 LINE",
"510 0 LINE"
);
}
);
width = 656;
}
);
note = afii10041;
unicode = 0427;
},
{
glyphname = afii10042;
lastChange = "2018-06-23 23:43:57 +0000";
layers = (
{
layerId = "5202FA21-D17A-4E33-A53E-97CF8C508FBD";
paths = (
{
closed = 1;
nodes = (
"984 714 LINE",
"866 714 LINE",
"736 100 LINE",
"514 100 LINE",
"644 714 LINE",
"525 714 LINE",
"395 100 LINE",
"172 100 LINE",
"303 714 LINE",
"184 714 LINE",
"33 0 LINE",
"833 0 LINE"
);
}
);
width = 979;
}
);
note = afii10042;
unicode = 0428;
},
{
glyphname = afii10043;
lastChange = "2018-06-23 23:43:57 +0000";
layers = (
{
layerId = "5202FA21-D17A-4E33-A53E-97CF8C508FBD";
paths = (
{
closed = 1;
nodes = (
"984 714 LINE",
"866 714 LINE",
"736 100 LINE",
"514 100 LINE",
"644 714 LINE",
"525 714 LINE",
"395 100 LINE",
"172 100 LINE",
"303 714 LINE",
"184 714 LINE",
"33 0 LINE",
"811 0 LINE",
"769 -197 LINE",
"882 -197 LINE",
"945 98 LINE",
"854 98 LINE"
);
}
);
width = 999;
}
);
note = afii10043;
unicode = 0429;
},
{
glyphname = afii10044;
lastChange = "2018-06-23 23:43:57 +0000";
layers = (
{
anchors = (
{
name = top;
position = "{424, 714}";
}
);
layerId = "5202FA21-D17A-4E33-A53E-97CF8C508FBD";
paths = (
{
closed = 1;
nodes = (
"389 714 LINE",
"108 714 LINE",
"86 614 LINE",
"251 614 LINE",
"121 0 LINE",
"315 0 LINE SMOOTH",
"502 0 OFFCURVE",
"605 85 OFFCURVE",
"605 237 CURVE SMOOTH",
"605 360 OFFCURVE",
"526 424 OFFCURVE",
"378 424 CURVE SMOOTH",
"327 424 LINE"
);
},
{
closed = 1;
nodes = (
"307 326 LINE",
"375 326 LINE SMOOTH",
"447 326 OFFCURVE",
"486 298 OFFCURVE",
"486 230 CURVE SMOOTH",
"486 144 OFFCURVE",
"432 97 OFFCURVE",
"326 97 CURVE SMOOTH",
"258 97 LINE"
);
}
);
width = 660;
}
);
note = afii10044;
unicode = 042A;
},
{
glyphname = afii10045;
lastChange = "2018-06-23 23:43:57 +0000";
layers = (
{
anchors = (
{
name = top;
position = "{504, 714}";
}
);
layerId = "5202FA21-D17A-4E33-A53E-97CF8C508FBD";
paths = (
{
closed = 1;
nodes = (
"707 714 LINE",
"556 0 LINE",
"674 0 LINE",
"825 714 LINE"
);
},
{
closed = 1;
nodes = (
"34 0 LINE",
"220 0 LINE SMOOTH",
"406 0 OFFCURVE",
"510 85 OFFCURVE",
"510 237 CURVE SMOOTH",
"510 361 OFFCURVE",
"431 424 OFFCURVE",
"283 424 CURVE SMOOTH",
"240 424 LINE",
"301 714 LINE",
"185 714 LINE"
);
},
{
closed = 1;
nodes = (
"219 326 LINE",
"280 326 LINE SMOOTH",
"352 326 OFFCURVE",
"391 298 OFFCURVE",
"391 230 CURVE SMOOTH",
"391 143 OFFCURVE",
"336 97 OFFCURVE",
"231 97 CURVE SMOOTH",
"170 97 LINE"
);
}
);
width = 820;
}
);
note = afii10045;
unicode = 042B;
},
{
glyphname = afii10046;
lastChange = "2018-06-23 23:43:57 +0000";
layers = (
{
layerId = "5202FA21-D17A-4E33-A53E-97CF8C508FBD";
paths = (
{
closed = 1;
nodes = (
"34 0 LINE",
"227 0 LINE SMOOTH",
"413 0 OFFCURVE",
"517 84 OFFCURVE",
"517 237 CURVE SMOOTH",
"517 360 OFFCURVE",
"440 424 OFFCURVE",
"290 424 CURVE SMOOTH",
"240 424 LINE",
"301 714 LINE",
"185 714 LINE"
);
},
{
closed = 1;
nodes = (
"219 326 LINE",
"288 326 LINE SMOOTH",
"362 326 OFFCURVE",
"399 294 OFFCURVE",
"399 230 CURVE SMOOTH",
"399 143 OFFCURVE",
"344 97 OFFCURVE",
"239 97 CURVE SMOOTH",
"170 97 LINE"
);
}
);
width = 573;
}
);
note = afii10046;
unicode = 042C;
},
{
glyphname = afii10047;
lastChange = "2018-06-23 23:43:57 +0000";
layers = (
{
anchors = (
{
name = top;
position = "{394, 714}";
}
);
layerId = "5202FA21-D17A-4E33-A53E-97CF8C508FBD";
paths = (
{
closed = 1;
nodes = (
"123 90 OFFCURVE",
"70 105 OFFCURVE",
"11 136 CURVE",
"11 30 LINE",
"63 0 OFFCURVE",
"120 -10 OFFCURVE",
"191 -10 CURVE SMOOTH",
"267 -10 OFFCURVE",
"333 8 OFFCURVE",
"389 45 CURVE SMOOTH",
"501 118 OFFCURVE",
"567 268 OFFCURVE",
"567 453 CURVE SMOOTH",
"567 627 OFFCURVE",
"476 724 OFFCURVE",
"312 724 CURVE SMOOTH",
"243 724 OFFCURVE",
"176 711 OFFCURVE",
"111 685 CURVE",
"141 590 LINE",
"210 616 OFFCURVE",
"251 624 OFFCURVE",
"298 624 CURVE SMOOTH",
"394 624 OFFCURVE",
"447 563 OFFCURVE",
"447 452 CURVE SMOOTH",
"446 417 LINE",
"168 417 LINE",
"148 318 LINE",
"431 318 LINE",
"396 166 OFFCURVE",
"315 90 OFFCURVE",
"186 90 CURVE SMOOTH"
);
}
);
width = 598;
}
);
note = afii10047;
unicode = 042D;
},
{
glyphname = afii10048;
lastChange = "2018-06-23 23:43:57 +0000";
layers = (
{
anchors = (
{
name = top;
position = "{590, 714}";
}
);
layerId = "5202FA21-D17A-4E33-A53E-97CF8C508FBD";
paths = (
{
closed = 1;
nodes = (
"961 624 OFFCURVE",
"870 725 OFFCURVE",
"717 725 CURVE SMOOTH",
"553 725 OFFCURVE",
"427 610 OFFCURVE",
"381 422 CURVE",
"239 422 LINE",
"301 714 LINE",
"185 714 LINE",
"34 0 LINE",
"150 0 LINE",
"218 322 LINE",
"365 322 LINE",
"363 305 OFFCURVE",
"362 286 OFFCURVE",
"362 265 CURVE SMOOTH",
"362 93 OFFCURVE",
"454 -10 OFFCURVE",
"616 -10 CURVE SMOOTH",
"685 -10 OFFCURVE",
"746 9 OFFCURVE",
"797 46 CURVE SMOOTH",
"900 121 OFFCURVE",
"961 268 OFFCURVE",
"961 450 CURVE SMOOTH"
);
},
{
closed = 1;
nodes = (
"790 625 OFFCURVE",
"841 562 OFFCURVE",
"841 449 CURVE SMOOTH",
"841 379 OFFCURVE",
"831 316 OFFCURVE",
"812 261 CURVE SMOOTH",
"773 151 OFFCURVE",
"707 90 OFFCURVE",
"623 90 CURVE SMOOTH",
"535 90 OFFCURVE",
"483 152 OFFCURVE",
"483 266 CURVE SMOOTH",
"483 332 OFFCURVE",
"493 393 OFFCURVE",
"512 449 CURVE SMOOTH",
"550 560 OFFCURVE",
"621 625 OFFCURVE",
"704 625 CURVE SMOOTH"
);
}
);
width = 992;
}
);
note = afii10048;
unicode = 042E;
},
{
glyphname = afii10049;
lastChange = "2018-06-23 23:43:57 +0000";
layers = (
{
anchors = (
{
name = top;
position = "{390, 714}";
}
);
layerId = "5202FA21-D17A-4E33-A53E-97CF8C508FBD";
paths = (
{
closed = 1;
nodes = (
"329 0 LINE",
"445 0 LINE",
"596 714 LINE",
"384 714 LINE SMOOTH",
"208 714 OFFCURVE",
"107 629 OFFCURVE",
"107 484 CURVE SMOOTH",
"107 415 OFFCURVE",
"134 364 OFFCURVE",
"202 324 CURVE",
"-49 0 LINE",
"90 0 LINE",
"304 286 LINE",
"389 286 LINE"
);
},
{
closed = 1;
nodes = (
"347 383 LINE SMOOTH",
"272 383 OFFCURVE",
"228 420 OFFCURVE",
"228 487 CURVE SMOOTH",
"228 570 OFFCURVE",
"280 616 OFFCURVE",
"382 616 CURVE SMOOTH",
"460 616 LINE",
"410 383 LINE"
);
}
);
width = 591;
}
);
note = afii10049;
unicode = 042F;
},
{
glyphname = afii10066;
lastChange = "2018-06-23 23:43:57 +0000";
layers = (
{
layerId = "5202FA21-D17A-4E33-A53E-97CF8C508FBD";
paths = (
{
closed = 1;
nodes = (
"51 70 OFFCURVE",
"120 -10 OFFCURVE",
"247 -10 CURVE SMOOTH",
"300 -10 OFFCURVE",
"347 4 OFFCURVE",
"387 31 CURVE SMOOTH",
"467 84 OFFCURVE",
"515 194 OFFCURVE",
"515 323 CURVE SMOOTH",
"515 440 OFFCURVE",
"460 503 OFFCURVE",
"367 503 CURVE SMOOTH",
"305 503 OFFCURVE",
"243 473 OFFCURVE",
"195 416 CURVE",
"194 416 LINE",
"219 515 OFFCURVE",
"264 580 OFFCURVE",
"332 612 CURVE SMOOTH",
"365 628 OFFCURVE",
"437 644 OFFCURVE",
"545 660 CURVE SMOOTH",
"597 668 LINE",
"584 765 LINE",
"471 751 OFFCURVE",
"341 726 OFFCURVE",
"298 708 CURVE",
"250 691 OFFCURVE",
"208 659 OFFCURVE",
"172 613 CURVE SMOOTH",
"98 520 OFFCURVE",
"51 365 OFFCURVE",
"51 220 CURVE SMOOTH"
);
},
{
closed = 1;
nodes = (
"197 84 OFFCURVE",
"167 128 OFFCURVE",
"167 216 CURVE SMOOTH",
"167 246 OFFCURVE",
"171 279 OFFCURVE",
"178 316 CURVE",
"218 373 OFFCURVE",
"279 413 OFFCURVE",
"328 413 CURVE SMOOTH",
"375 413 OFFCURVE",
"399 380 OFFCURVE",
"399 315 CURVE SMOOTH",
"399 274 OFFCURVE",
"392 235 OFFCURVE",
"379 198 CURVE SMOOTH",
"352 124 OFFCURVE",
"310 84 OFFCURVE",
"257 84 CURVE SMOOTH"
);
}
);
width = 563;
}
);
note = afii10066;
unicode = 0431;
},
{
glyphname = afii10067;
lastChange = "2018-06-23 23:43:57 +0000";
layers = (
{
layerId = "5202FA21-D17A-4E33-A53E-97CF8C508FBD";
paths = (
{
closed = 1;
nodes = (
"280 550 OFFCURVE",
"229 536 OFFCURVE",
"185 507 CURVE SMOOTH",
"96 450 OFFCURVE",
"46 340 OFFCURVE",
"46 211 CURVE SMOOTH",
"46 68 OFFCURVE",
"124 -10 OFFCURVE",
"267 -10 CURVE SMOOTH",
"314 -10 OFFCURVE",
"355 -2 OFFCURVE",
"389 12 CURVE SMOOTH",
"457 42 OFFCURVE",
"493 94 OFFCURVE",
"493 159 CURVE SMOOTH",
"493 217 OFFCURVE",
"462 254 OFFCURVE",
"399 271 CURVE",
"399 273 LINE",
"483 292 OFFCURVE",
"526 337 OFFCURVE",
"526 409 CURVE SMOOTH",
"526 499 OFFCURVE",
"457 550 OFFCURVE",
"338 550 CURVE SMOOTH"
);
},
{
closed = 1;
nodes = (
"345 232 OFFCURVE",
"380 208 OFFCURVE",
"380 161 CURVE SMOOTH",
"380 110 OFFCURVE",
"339 76 OFFCURVE",
"271 76 CURVE SMOOTH",
"198 76 OFFCURVE",
"161 122 OFFCURVE",
"161 205 CURVE SMOOTH",
"161 219 LINE",
"162 232 LINE",
"263 232 LINE SMOOTH"
);
},
{
closed = 1;
nodes = (
"387 462 OFFCURVE",
"413 437 OFFCURVE",
"413 400 CURVE SMOOTH",
"413 348 OFFCURVE",
"366 316 OFFCURVE",
"280 316 CURVE SMOOTH",
"176 316 LINE",
"201 408 OFFCURVE",
"258 462 OFFCURVE",
"336 462 CURVE SMOOTH"
);
}
);
width = 555;
}
);
note = afii10067;
unicode = 0432;
},
{
glyphname = afii10068;
lastChange = "2018-06-23 23:43:57 +0000";
layers = (
{
anchors = (
{
name = bottomright;
position = "{400, 0}";
},
{
name = top;
position = "{292, 540}";
}
);
layerId = "5202FA21-D17A-4E33-A53E-97CF8C508FBD";
paths = (
{
closed = 1;
nodes = (
"170 448 OFFCURVE",
"217 460 OFFCURVE",
"258 460 CURVE SMOOTH",
"303 460 OFFCURVE",
"325 443 OFFCURVE",
"325 410 CURVE SMOOTH",
"325 376 OFFCURVE",
"295 351 OFFCURVE",
"228 327 CURVE SMOOTH",
"163 303 OFFCURVE",
"119 283 OFFCURVE",
"94 267 CURVE SMOOTH",
"44 234 OFFCURVE",
"18 191 OFFCURVE",
"18 134 CURVE SMOOTH",
"18 42 OFFCURVE",
"84 -10 OFFCURVE",
"198 -10 CURVE SMOOTH",
"259 -10 OFFCURVE",
"311 -1 OFFCURVE",
"375 29 CURVE",
"375 121 LINE",
"327 99 OFFCURVE",
"274 79 OFFCURVE",
"219 79 CURVE SMOOTH",
"167 79 OFFCURVE",
"137 100 OFFCURVE",
"137 137 CURVE SMOOTH",
"137 159 OFFCURVE",
"147 178 OFFCURVE",
"168 194 CURVE SMOOTH",
"188 209 OFFCURVE",
"227 227 OFFCURVE",
"285 246 CURVE",
"400 290 OFFCURVE",
"441 339 OFFCURVE",
"441 415 CURVE SMOOTH",
"441 502 OFFCURVE",
"382 550 OFFCURVE",
"274 550 CURVE SMOOTH",
"213 550 OFFCURVE",
"151 536 OFFCURVE",
"90 509 CURVE",
"119 424 LINE"
);
}
);
width = 468;
}
);
note = afii10068;
unicode = 0433;
},
{
glyphname = afii10069;
lastChange = "2018-06-23 23:43:57 +0000";
layers = (
{
layerId = "5202FA21-D17A-4E33-A53E-97CF8C508FBD";
paths = (
{
closed = 1;
nodes = (
"547 666 OFFCURVE",
"470 770 OFFCURVE",
"316 770 CURVE SMOOTH",
"270 770 OFFCURVE",
"213 760 OFFCURVE",
"172 742 CURVE",
"198 654 LINE",
"231 668 OFFCURVE",
"265 676 OFFCURVE",
"300 676 CURVE SMOOTH",
"391 676 OFFCURVE",
"432 607 OFFCURVE",
"432 456 CURVE SMOOTH",
"432 442 LINE",
"431 426 LINE",
"428 426 LINE",
"397 484 OFFCURVE",
"351 513 OFFCURVE",
"289 513 CURVE SMOOTH",
"243 513 OFFCURVE",
"201 499 OFFCURVE",
"164 471 CURVE SMOOTH",
"89 415 OFFCURVE",
"46 311 OFFCURVE",
"46 194 CURVE SMOOTH",
"46 66 OFFCURVE",
"116 -10 OFFCURVE",
"238 -10 CURVE SMOOTH",
"298 -10 OFFCURVE",
"352 9 OFFCURVE",
"398 48 CURVE SMOOTH",
"490 124 OFFCURVE",
"547 282 OFFCURVE",
"547 458 CURVE SMOOTH"
);
},
{
closed = 1;
nodes = (
"194 84 OFFCURVE",
"162 123 OFFCURVE",
"162 192 CURVE SMOOTH",
"162 234 OFFCURVE",
"168 274 OFFCURVE",
"181 310 CURVE SMOOTH",
"207 381 OFFCURVE",
"255 424 OFFCURVE",
"309 424 CURVE SMOOTH",
"359 424 OFFCURVE",
"398 388 OFFCURVE",
"415 329 CURVE",
"388 177 OFFCURVE",
"327 84 OFFCURVE",
"247 84 CURVE SMOOTH"
);
}
);
width = 582;
}
);
note = afii10069;
unicode = 0434;
},
{
glyphname = afii10072;
lastChange = "2018-06-23 23:43:57 +0000";
layers = (
{
anchors = (
{
name = bottomright;
position = "{830, 0}";
},
{
name = top;
position = "{506, 540}";
}
);
layerId = "5202FA21-D17A-4E33-A53E-97CF8C508FBD";
paths = (
{
closed = 1;
nodes = (
"445 0 LINE",
"494 229 LINE",
"577 229 LINE",
"576 213 LINE",
"576 197 LINE SMOOTH",
"576 63 OFFCURVE",
"642 -10 OFFCURVE",
"754 -10 CURVE SMOOTH",
"782 -10 OFFCURVE",
"807 -6 OFFCURVE",
"830 0 CURVE",
"830 94 LINE",
"808 87 OFFCURVE",
"789 83 OFFCURVE",
"773 83 CURVE SMOOTH",
"719 83 OFFCURVE",
"691 125 OFFCURVE",
"691 200 CURVE SMOOTH",
"691 247 OFFCURVE",
"698 291 OFFCURVE",
"713 332 CURVE SMOOTH",
"742 413 OFFCURVE",
"792 456 OFFCURVE",
"850 456 CURVE SMOOTH",
"866 456 OFFCURVE",
"882 455 OFFCURVE",
"896 451 CURVE",
"916 543 LINE",
"898 547 OFFCURVE",
"876 550 OFFCURVE",
"849 550 CURVE SMOOTH",
"722 550 OFFCURVE",
"625 459 OFFCURVE",
"589 310 CURVE",
"511 310 LINE",
"561 540 LINE",
"453 540 LINE",
"404 310 LINE",
"322 310 LINE",
"323 322 OFFCURVE",
"324 333 OFFCURVE",
"324 342 CURVE SMOOTH",
"324 475 OFFCURVE",
"259 550 OFFCURVE",
"146 550 CURVE SMOOTH",
"119 550 OFFCURVE",
"94 546 OFFCURVE",
"69 539 CURVE",
"69 446 LINE",
"89 453 OFFCURVE",
"108 456 OFFCURVE",
"126 456 CURVE SMOOTH",
"179 456 OFFCURVE",
"209 416 OFFCURVE",
"209 340 CURVE SMOOTH",
"209 295 OFFCURVE",
"202 252 OFFCURVE",
"188 212 CURVE SMOOTH",
"161 132 OFFCURVE",
"110 83 OFFCURVE",
"48 83 CURVE SMOOTH",
"34 83 OFFCURVE",
"20 85 OFFCURVE",
"4 89 CURVE",
"-14 -3 LINE",
"6 -7 OFFCURVE",
"27 -10 OFFCURVE",
"49 -10 CURVE SMOOTH",
"177 -10 OFFCURVE",
"275 81 OFFCURVE",
"310 229 CURVE",
"387 229 LINE",
"338 0 LINE"
);
}
);
width = 897;
}
);
note = afii10072;
unicode = 0436;
},
{
glyphname = afii10073;
lastChange = "2018-06-23 23:43:57 +0000";
layers = (
{
anchors = (
{
name = bottom;
position = "{183, 0}";
},
{
name = top;
position = "{298, 540}";
}
);
layerId = "5202FA21-D17A-4E33-A53E-97CF8C508FBD";
paths = (
{
closed = 1;
nodes = (
"132 237 LINE",
"211 237 LINE SMOOTH",
"276 237 OFFCURVE",
"305 215 OFFCURVE",
"305 168 CURVE SMOOTH",
"305 114 OFFCURVE",
"256 81 OFFCURVE",
"173 81 CURVE SMOOTH",
"116 81 OFFCURVE",
"60 95 OFFCURVE",
"5 124 CURVE",
"5 25 LINE",
"47 3 OFFCURVE",
"111 -10 OFFCURVE",
"171 -10 CURVE SMOOTH",
"328 -10 OFFCURVE",
"419 55 OFFCURVE",
"419 168 CURVE SMOOTH",
"419 227 OFFCURVE",
"386 265 OFFCURVE",
"327 280 CURVE",
"327 283 LINE",
"407 301 OFFCURVE",
"453 348 OFFCURVE",
"453 420 CURVE SMOOTH",
"453 502 OFFCURVE",
"389 550 OFFCURVE",
"278 550 CURVE SMOOTH",
"212 550 OFFCURVE",
"148 536 OFFCURVE",
"84 509 CURVE",
"114 424 LINE",
"170 448 OFFCURVE",
"218 460 OFFCURVE",
"259 460 CURVE SMOOTH",
"312 460 OFFCURVE",
"339 441 OFFCURVE",
"339 403 CURVE SMOOTH",
"339 350 OFFCURVE",
"300 324 OFFCURVE",
"205 324 CURVE SMOOTH",
"151 324 LINE"
);
}
);
width = 480;
}
);
note = afii10073;
unicode = 0437;
},
{
glyphname = afii10076;
lastChange = "2018-06-23 23:43:57 +0000";
layers = (
{
anchors = (
{
name = bottomright;
position = "{459, 0}";
},
{
name = top;
position = "{321, 540}";
}
);
layerId = "5202FA21-D17A-4E33-A53E-97CF8C508FBD";
paths = (
{
closed = 1;
nodes = (
"252 540 LINE",
"138 540 LINE",
"23 0 LINE",
"138 0 LINE",
"194 266 LINE",
"344 0 LINE",
"476 0 LINE",
"317 271 LINE",
"568 540 LINE",
"432 540 LINE",
"198 284 LINE"
);
}
);
width = 527;
}
);
note = afii10076;
unicode = 043A;
},
{
glyphname = afii10077;
lastChange = "2018-06-23 23:43:57 +0000";
layers = (
{
layerId = "5202FA21-D17A-4E33-A53E-97CF8C508FBD";
paths = (
{
closed = 1;
nodes = (
"502 540 OFFCURVE",
"455 547 OFFCURVE",
"404 547 CURVE SMOOTH",
"366 547 OFFCURVE",
"334 543 OFFCURVE",
"308 535 CURVE SMOOTH",
"255 519 OFFCURVE",
"218 487 OFFCURVE",
"186 429 CURVE SMOOTH",
"170 399 OFFCURVE",
"150 350 OFFCURVE",
"126 282 CURVE SMOOTH",
"104 218 OFFCURVE",
"87 176 OFFCURVE",
"76 154 CURVE SMOOTH",
"54 111 OFFCURVE",
"31 90 OFFCURVE",
"-1 90 CURVE SMOOTH",
"-14 90 OFFCURVE",
"-26 92 OFFCURVE",
"-38 97 CURVE",
"-38 1 LINE",
"-21 -5 OFFCURVE",
"-3 -9 OFFCURVE",
"18 -9 CURVE SMOOTH",
"81 -9 OFFCURVE",
"124 19 OFFCURVE",
"159 77 CURVE SMOOTH",
"176 105 OFFCURVE",
"199 161 OFFCURVE",
"227 242 CURVE SMOOTH",
"251 313 OFFCURVE",
"270 361 OFFCURVE",
"283 385 CURVE SMOOTH",
"310 434 OFFCURVE",
"337 453 OFFCURVE",
"384 453 CURVE SMOOTH",
"395 453 OFFCURVE",
"406 452 OFFCURVE",
"418 449 CURVE",
"322 0 LINE",
"437 0 LINE",
"548 526 LINE"
);
}
);
width = 576;
}
);
note = afii10077;
unicode = 043B;
},
{
glyphname = afii10078;
lastChange = "2018-06-23 23:43:57 +0000";
layers = (
{
layerId = "5202FA21-D17A-4E33-A53E-97CF8C508FBD";
paths = (
{
closed = 1;
nodes = (
"602 0 LINE",
"717 540 LINE",
"564 540 LINE",
"390 236 LINE SMOOTH",
"373 207 OFFCURVE",
"354 169 OFFCURVE",
"334 123 CURVE",
"326 209 LINE",
"280 540 LINE",
"135 540 LINE",
"20 0 LINE",
"125 0 LINE",
"212 412 LINE",
"213 381 OFFCURVE",
"216 353 OFFCURVE",
"220 328 CURVE SMOOTH",
"268 0 LINE",
"354 0 LINE",
"505 271 OFFCURVE",
"581 408 OFFCURVE",
"582 409 CURVE",
"582 410 OFFCURVE",
"583 411 OFFCURVE",
"583 412 CURVE",
"495 0 LINE"
);
}
);
width = 740;
}
);
note = afii10078;
unicode = 043C;
},
{
glyphname = afii10079;
lastChange = "2018-06-23 23:43:57 +0000";
layers = (
{
anchors = (
{
name = bottomright;
position = "{540, 0}";
}
);
layerId = "5202FA21-D17A-4E33-A53E-97CF8C508FBD";
paths = (
{
closed = 1;
nodes = (
"23 0 LINE",
"138 0 LINE",
"188 233 LINE",
"403 233 LINE",
"354 0 LINE",
"469 0 LINE",
"583 540 LINE",
"469 540 LINE",
"423 323 LINE",
"207 323 LINE",
"253 540 LINE",
"139 540 LINE"
);
}
);
width = 607;
}
);
note = afii10079;
unicode = 043D;
},
{
glyphname = afii10086;
lastChange = "2018-06-23 23:43:57 +0000";
layers = (
{
layerId = "5202FA21-D17A-4E33-A53E-97CF8C508FBD";
paths = (
{
closed = 1;
nodes = (
"407 760 LINE",
"362 546 LINE",
"299 543 OFFCURVE",
"245 528 OFFCURVE",
"197 501 CURVE SMOOTH",
"103 447 OFFCURVE",
"46 343 OFFCURVE",
"46 220 CURVE SMOOTH",
"46 92 OFFCURVE",
"119 8 OFFCURVE",
"245 -7 CURVE",
"195 -240 LINE",
"303 -240 LINE",
"352 -9 LINE",
"414 -5 OFFCURVE",
"469 10 OFFCURVE",
"517 38 CURVE SMOOTH",
"612 92 OFFCURVE",
"668 196 OFFCURVE",
"668 320 CURVE SMOOTH",
"668 446 OFFCURVE",
"597 529 OFFCURVE",
"469 546 CURVE",
"515 760 LINE"
);
},
{
closed = 1;
nodes = (
"163 268 OFFCURVE",
"171 306 OFFCURVE",
"186 341 CURVE SMOOTH",
"216 412 OFFCURVE",
"271 451 OFFCURVE",
"343 455 CURVE",
"264 85 LINE",
"201 92 OFFCURVE",
"163 144 OFFCURVE",
"163 226 CURVE SMOOTH"
);
},
{
closed = 1;
nodes = (
"513 445 OFFCURVE",
"551 397 OFFCURVE",
"551 317 CURVE SMOOTH",
"551 275 OFFCURVE",
"543 237 OFFCURVE",
"528 201 CURVE SMOOTH",
"497 130 OFFCURVE",
"443 91 OFFCURVE",
"372 85 CURVE",
"450 453 LINE"
);
}
);
width = 713;
}
);
note = afii10086;
unicode = 0444;
},
{
glyphname = afii10088;
lastChange = "2018-06-23 23:43:57 +0000";
layers = (
{
layerId = "5202FA21-D17A-4E33-A53E-97CF8C508FBD";
paths = (
{
closed = 1;
nodes = (
"66 228 LINE SMOOTH",
"58 188 OFFCURVE",
"53 156 OFFCURVE",
"53 134 CURVE SMOOTH",
"53 42 OFFCURVE",
"104 -10 OFFCURVE",
"191 -10 CURVE SMOOTH",
"259 -10 OFFCURVE",
"317 24 OFFCURVE",
"365 93 CURVE",
"368 93 LINE",
"372 41 OFFCURVE",
"390 10 OFFCURVE",
"428 -4 CURVE",
"385 -191 LINE",
"495 -191 LINE",
"556 92 LINE",
"540 87 OFFCURVE",
"526 85 OFFCURVE",
"515 85 CURVE SMOOTH",
"493 85 OFFCURVE",
"481 98 OFFCURVE",
"481 120 CURVE SMOOTH",
"481 131 OFFCURVE",
"483 146 OFFCURVE",
"487 165 CURVE SMOOTH",
"566 540 LINE",
"452 540 LINE",
"404 311 LINE SMOOTH",
"375 173 OFFCURVE",
"304 83 OFFCURVE",
"231 83 CURVE SMOOTH",
"189 83 OFFCURVE",
"169 104 OFFCURVE",
"169 148 CURVE SMOOTH",
"169 165 OFFCURVE",
"171 186 OFFCURVE",
"177 211 CURVE SMOOTH",
"247 540 LINE",
"132 540 LINE"
);
}
);
width = 607;
}
);
note = afii10088;
unicode = 0446;
},
{
glyphname = afii10089;
lastChange = "2018-06-23 23:43:57 +0000";
layers = (
{
anchors = (
{
name = bottomright;
position = "{508, 0}";
},
{
name = top;
position = "{345, 540}";
}
);
layerId = "5202FA21-D17A-4E33-A53E-97CF8C508FBD";
paths = (
{
closed = 1;
nodes = (
"91 419 LINE SMOOTH",
"83 381 OFFCURVE",
"78 349 OFFCURVE",
"78 323 CURVE SMOOTH",
"78 229 OFFCURVE",
"126 177 OFFCURVE",
"217 177 CURVE SMOOTH",
"279 177 OFFCURVE",
"332 204 OFFCURVE",
"376 258 CURVE",
"380 258 LINE",
"376 242 OFFCURVE",
"372 225 OFFCURVE",
"366 207 CURVE SMOOTH",
"361 188 OFFCURVE",
"356 168 OFFCURVE",
"352 149 CURVE SMOOTH",
"321 0 LINE",
"436 0 LINE",
"551 540 LINE",
"437 540 LINE",
"424 482 LINE SMOOTH",
"391 338 OFFCURVE",
"339 270 OFFCURVE",
"260 270 CURVE SMOOTH",
"220 270 OFFCURVE",
"194 291 OFFCURVE",
"194 337 CURVE SMOOTH",
"194 354 OFFCURVE",
"197 377 OFFCURVE",
"203 405 CURVE SMOOTH",
"232 540 LINE",
"117 540 LINE"
);
}
);
width = 575;
}
);
note = afii10089;
unicode = 0447;
},
{
glyphname = afii10090;
lastChange = "2018-06-23 23:43:57 +0000";
layers = (
{
layerId = "5202FA21-D17A-4E33-A53E-97CF8C508FBD";
paths = (
{
closed = 1;
nodes = (
"392 305 LINE SMOOTH",
"363 172 OFFCURVE",
"297 84 OFFCURVE",
"227 84 CURVE SMOOTH",
"188 84 OFFCURVE",
"168 105 OFFCURVE",
"168 147 CURVE SMOOTH",
"168 161 OFFCURVE",
"171 183 OFFCURVE",
"177 212 CURVE SMOOTH",
"247 540 LINE",
"132 540 LINE",
"64 221 LINE SMOOTH",
"57 183 OFFCURVE",
"53 154 OFFCURVE",
"53 133 CURVE SMOOTH",
"53 42 OFFCURVE",
"100 -10 OFFCURVE",
"186 -10 CURVE SMOOTH",
"253 -10 OFFCURVE",
"317 29 OFFCURVE",
"366 105 CURVE",
"370 105 LINE",
"380 33 OFFCURVE",
"420 -10 OFFCURVE",
"494 -10 CURVE SMOOTH",
"561 -10 OFFCURVE",
"618 27 OFFCURVE",
"666 100 CURVE",
"670 100 LINE",
"660 0 LINE",
"750 0 LINE",
"865 540 LINE",
"750 540 LINE",
"702 311 LINE SMOOTH",
"671 172 OFFCURVE",
"607 84 OFFCURVE",
"535 84 CURVE SMOOTH",
"497 84 OFFCURVE",
"478 106 OFFCURVE",
"478 150 CURVE SMOOTH",
"478 165 OFFCURVE",
"480 186 OFFCURVE",
"486 212 CURVE SMOOTH",
"556 540 LINE",
"441 540 LINE"
);
}
);
width = 888;
}
);
note = afii10090;
unicode = 0448;
},
{
glyphname = afii10091;
lastChange = "2018-06-23 23:43:57 +0000";
layers = (
{
layerId = "5202FA21-D17A-4E33-A53E-97CF8C508FBD";
paths = (
{
closed = 1;
nodes = (
"392 305 LINE SMOOTH",
"364 172 OFFCURVE",
"297 84 OFFCURVE",
"227 84 CURVE SMOOTH",
"188 84 OFFCURVE",
"168 105 OFFCURVE",
"168 147 CURVE SMOOTH",
"168 162 OFFCURVE",
"171 183 OFFCURVE",
"177 211 CURVE SMOOTH",
"247 540 LINE",
"132 540 LINE",
"64 221 LINE SMOOTH",
"57 182 OFFCURVE",
"53 152 OFFCURVE",
"53 133 CURVE SMOOTH",
"53 42 OFFCURVE",
"100 -10 OFFCURVE",
"186 -10 CURVE SMOOTH",
"254 -10 OFFCURVE",
"317 29 OFFCURVE",
"366 105 CURVE",
"370 105 LINE",
"380 33 OFFCURVE",
"420 -10 OFFCURVE",
"494 -10 CURVE SMOOTH",
"559 -10 OFFCURVE",
"615 25 OFFCURVE",
"663 94 CURVE",
"665 94 LINE",
"669 42 OFFCURVE",
"689 9 OFFCURVE",
"727 -4 CURVE",
"684 -191 LINE",
"794 -191 LINE",
"855 92 LINE",
"839 87 OFFCURVE",
"826 85 OFFCURVE",
"814 85 CURVE SMOOTH",
"793 85 OFFCURVE",
"780 97 OFFCURVE",
"780 120 CURVE SMOOTH",
"780 131 OFFCURVE",
"782 146 OFFCURVE",
"785 165 CURVE SMOOTH",
"865 540 LINE",
"750 540 LINE",
"702 311 LINE SMOOTH",
"671 172 OFFCURVE",
"607 84 OFFCURVE",
"535 84 CURVE SMOOTH",
"495 84 OFFCURVE",
"478 105 OFFCURVE",
"478 150 CURVE SMOOTH",
"478 166 OFFCURVE",
"480 186 OFFCURVE",
"486 211 CURVE SMOOTH",
"556 540 LINE",
"441 540 LINE"
);
}
);
width = 905;
}
);
note = afii10091;
unicode = 0449;
},
